CoelacanthItalicPearlHairline.sfdir
StartChar: parenleft
Encoding: 40 40 59
Width: 351
Flags: HW
LayerCount: 2
Fore
SplineSet
305 714 m 1
 331 665 l 1
 172.640909091 585.85013624 94 447.065395095 94 271 c 3
 94 91.3827992141 173.558902877 -41.7718009103 333 -126 c 1
 308 -177 l 1
 133 -81.5925925926 37 69.8148148148 37 271 c 3
 37 472.269320843 139 629.964871194 305 714 c 1
EndSplineSet
Position2: "'case' vertical ajustments for all-caps-1" dx=0 dy=125 dh=0 dv=0
Position2: "cpsp-1" dx=0 dy=0 dh=50 dv=100
EndChar
StartChar: zero
Encoding: 48 48 63
Width: 573
Flags: HW
LayerCount: 2
Back
SplineSet
392.978515625 452 m 0
 255.451236254 452 174.270291964 310.596281828 161.040914345 248.356946564 c 0
 136.513702934 132.964156583 170.796297658 65.0287403647 250.86354417 48.191875682 c 0
 263.486274389 45.5375168789 277.971008901 44 294.44921875 44 c 0
 406.588339515 44 500.113916839 166.379507566 520.788217891 263.643197741 c 0
 539.425424234 351.326830714 515.348397822 431.027280523 433.303329338 448.155582447 c 0
 421.748192453 450.567913585 408.386324053 452 392.978515625 452 c 0
392.978515625 508 m 0
 411.852707451 508 429.074800564 506.245687385 444.747549933 502.973734687 c 0
 570.889406274 476.63947913 596.732694646 351.591552837 575.564453125 252 c 0
 551.718464142 139.814882908 446.606820264 -12 294.44921875 -12 c 0
 274.49545969 -12 256.139670083 -10.1423591281 239.339670724 -6.60958726192 c 0
 119.237755985 18.6459295028 78.6849160032 130.246061842 106.264648438 260 c 0
 122.462446245 336.204655821 214.842033988 508 392.978515625 508 c 0
EndSplineSet
Fore
SplineSet
396 453 m 3
 259.996323579 453 176.397209161 318.66361292 162 250 c 0
 136 126 172.221667636 44 295.999023438 44 c 3
 391.905963652 44 495.288977739 145.454946112 520 262 c 0
 545.891964578 384.114754098 492 453 396 453 c 3
392.978515625 508 m 3
 563.978515625 508 599.371051536 363.9998014 575.564453125 252 c 0
 551.7578125 140 446.44921875 -12 294.44921875 -12 c 3
 131.44921875 -12 74.8062963936 112.000073168 106.264648438 260 c 0
 122.418945312 336 214.978515625 508 392.978515625 508 c 3
EndSplineSet
Substitution2: "case-1" zero.proportionallining
Substitution2: "tnum-1" zero.tabulartext
Substitution2: "lnum-1" zero.proportionallining
Substitution2: "numr-1" zero.numerator
Substitution2: "dnom-1" zero.denom
Substitution2: "'zero' Slashed Zero lookup 22-1" zero.alt
EndChar
StartChar: B
Encoding: 66 66 27
Width: 640
Flags: HMW
AnchorPoint: "Top" 376.525 679 basechar 0
AnchorPoint: "Bottom" 249.415 -15 basechar 0
LayerCount: 2
Back
SplineSet
183 375 m 1
 312 377 l 1
 312 349 l 1
 312 321 l 1
 183 319 l 1
 183 337.666666667 183 356.333333333 183 375 c 1
168.800834667 657.774197813 m 1
 174.835832696 685.116085071 l 1
 192.431680328 681.232267367 210.313366523 678 256.578125 678 c 0
 299.126588815 678 333.13943007 688 375.703125 688 c 0
 402.081180843 688 425.732446803 685.602688898 446.761889202 681.169647726 c 0
 551.656982953 659.057588811 585.1708518 585.822075818 574.176948871 511.712865291 c 0
 563.690778566 441.02624856 518.23112511 393.895606345 466.256523783 362.929550926 c 1
 554.217481477 337.439488885 606.012063037 270.737330669 588.212890625 187 c 0
 563.122704774 68.9616361654 433.903035797 -3 283.827148438 -3 c 0
 224.771893407 -3 184.944579527 2 118.889648438 2 c 0
 74.9968747548 2 52.1189679913 0.888339095237 36.49192798 -0.264741652221 c 1
 34.4314785731 27.6593437982 l 1
 32.3710291662 55.5834292486 l 1
 49.5389082694 56.8502047131 74.1262686676 58 118.889648438 58 c 0
 188.154656177 58 228.635192671 53 283.827148438 53 c 0
 419.997494201 53 516.305156815 118.046980795 533.436658684 198.643213231 c 0
 544.251350152 249.521612215 519.00955964 290.329013068 447.943818388 309.903278494 c 0
 405.339427108 320.474183566 372.162310186 320.134097564 316.735986829 320.536872082 c 1
 315.696894564 376.508548658 l 1
 370.166129647 378.928118521 399.098914289 390.906836622 431.755875397 407.674342075 c 0
 478.265471282 433.845355203 511.099396432 468.134648326 518.783155447 519.93038621 c 0
 526.271135281 570.406388916 513.027325132 609.970062928 435.210855786 626.373903119 c 0
 418.501300722 629.89630491 398.679830621 632 375.703125 632 c 0
 343.849468276 632 307.475436323 622 256.578125 622 c 0
 207.996251237 622 183.117290561 625.940265689 162.765836638 630.432310556 c 1
 168.800834667 657.774197813 l 1
111 39 m 1
 83.9669814778 46.2949235486 l 1
 88.0512474325 61.4301112535 109.742073614 170.677133721 134.467773438 287 c 0
 168.297501019 446.15306364 204.826713588 619.823001668 209.34397902 648.375443243 c 1
 237 644 l 1
 264.65602098 639.624556757 l 1
 259.405708287 606.438717082 223.26866022 435.426892101 189.243990111 275.356714941 c 0
 164.367312091 158.323566784 143.765158818 52.9468418715 138.033018522 31.7050764514 c 1
 111 39 l 1
EndSplineSet
Fore
SplineSet
24.7060546875 52 m 1
 73.6315085307 62 81.9616427289 50.7071617239 86.5556640625 62 c 0
 90.5521631313 71.375 109.026097006 167.308798272 134.467773438 287 c 0
 169.444614511 451.549696711 199.810276991 594.450208002 202.1484375 609 c 0
 203.43440181 617.002236439 205.345161164 624.105057776 194.548828125 625 c 0
 182.128770587 626.571428571 151.364539667 632.857142857 140.037109375 636 c 1
 156.127929688 689 l 1
 184.6459207 684.416666667 192.754980187 678 256.578125 678 c 3
 298.578125 678 333.703125 688 375.703125 688 c 3
 541.703125 688 590.872989429 590 573.868164062 510 c 0
 559.4140625 442 524.723632812 387 453.834960938 364 c 1
 543.858723958 350 606.9180849 274.999767741 588.212890625 187 c 0
 563.130859375 69 433.827148438 -3 283.827148438 -3 c 3
 224.827148438 -3 184.889648438 2 118.889648438 2 c 3
 52.8592159762 2 43.4937276845 -1.6 15.8271484375 -4 c 1
 24.7060546875 52 l 1
290.598632812 377 m 3
 437.906775961 377 506.759293806 449.443425373 519 519 c 0
 527.212267098 565.665376995 518 631 378 631 c 3
 335.331150119 631 299.159590666 622.860744776 277.973632812 622 c 0
 261.780511877 621.342104598 260.485266002 613.911498208 256.258789062 593 c 0
 238.654932341 505.900738952 217.1875 411.163265306 211.598632812 377 c 1
 271.447117661 377 264.265299479 377 290.598632812 377 c 3
337.482421875 320 m 3
 307.657318887 320 235.143594998 320 197.844726562 319 c 1
 176.964675609 215.265217391 159.423854434 137.017089488 147.95703125 78 c 0
 144.287099631 59.111709903 146.493164062 57 159.493164062 57 c 0
 172.360826405 57 240.208500573 53 287 53 c 3
 397.147399538 53 512.394919474 104 533 197 c 0
 542.305520238 239 540 320 337.482421875 320 c 3
EndSplineSet
Position2: "cpsp-1" dx=0 dy=0 dh=50 dv=100
Substitution2: "c2pc-1" b.pcap
Substitution2: "c2sc-1" b.smcp
EndChar
StartChar: G
Encoding: 71 71 32
Width: 775
Flags: HW
AnchorPoint: "Top" 511.525 679 basechar 0
AnchorPoint: "Bottom" 350.514 -15 basechar 0
LayerCount: 2
Back
SplineSet
496.782201685 323.620938765 m 1
 499.005133599 351.53255953 l 1
 575.301366262 345.456189693 649.573787135 352.08525718 705.099822028 359.09601077 c 1
 708.607273476 331.316561814 l 1
 712.114724925 303.537112857 l 1
 654.771601121 296.296932428 576.821107401 289.157836605 494.559269771 295.709318001 c 1
 496.782201685 323.620938765 l 1
660.14283368 284.155605382 m 1
 687.380726966 277.667372238 l 1
 668.885639972 200.024168815 656.699642806 152.119642616 645.250762214 98.2425574796 c 1
 617.862314389 104.062602643 l 1
 590.473866563 109.882647806 l 1
 602.223285105 165.174029179 614.513053359 213.433873154 632.904940394 290.643838527 c 1
 660.14283368 284.155605382 l 1
673.398356778 595.509318877 m 1
 638.661238065 607.236606993 554.381969159 632 515.607421875 632 c 0
 330.150764546 632 144.914938117 500.08018274 107.138566447 322.356927053 c 0
 76.3378369548 177.451376813 154.580707579 81.8818784757 293.385641263 52.4187571624 c 0
 319.234538267 46.9319983848 347.220305051 44 376.818359375 44 c 0
 426.845221313 44 542.02930612 69.1429944569 627.875797866 84.3147273836 c 1
 637.621700942 29.1693071455 l 1
 552.822820505 14.1827195714 439.918121432 -12 376.818359375 -12 c 0
 343.527736568 -12 311.667690539 -8.70949654503 281.757984514 -2.36077914952 c 0
 119.563333082 32.0671087122 14.711703461 156.868445731 52.3623087984 334.00001934 c 0
 96.5839215647 542.045648 306.552194901 688 515.607421875 688 c 0
 581.82546718 688 706.812325297 657.178048634 723.353218254 630.671276866 c 0
 744.973693637 596.024477085 677.781853302 593.560904489 677.781853302 593.560904489 c 1
 694.900918859 642.661078758 l 2
 690.002551738 630.86447724 673.398356778 595.509318877 673.398356778 595.509318877 c 1
710.122193237 657.7755247 m 1
 738.085368684 659.211079972 l 1
 742.885491339 565.709509787 l 1
 714.922315893 564.273954515 l 1
 686.959140446 562.838399244 l 1
 682.15901779 656.339969429 l 1
 710.122193237 657.7755247 l 1
EndSplineSet
Fore
SplineSet
52.3623046875 334 m 0
 96.57421875 542 306.607421875 688 515.607421875 688 c 1
 580.626688256 688 628.512573607 672.747782041 669 660 c 0
 681.813894082 655.965445488 681.890764559 667.047619048 681.544921875 683 c 1
 736.607421875 688 l 1
 744 544 l 1
 690 534 l 1
 682 623 522.053795395 632 512.732421875 632 c 3
 341.513858254 632 147.07221159 507.766536965 107 325 c 1
 70.7773282883 153.281456954 185.847047465 44 378 44 c 1
 419.615482495 44 530.552793172 65.1315473991 579.07421875 76 c 0
 582.141411067 76.6870291611 585.546102313 83.0033103442 586.412109375 87 c 0
 596.75125903 134.715976331 610.73335442 197.377679767 630.333984375 279 c 0
 633.819639007 293.60561619 635.62535322 294 546.522460938 294 c 0
 517.734375 294 494.309570312 295 462.734375 298 c 1
 474.614257812 354 l 1
 573.063476562 342 679.826171875 355 740.739257812 364 c 1
 734.922851562 306 l 1
 691.247585046 301.333333333 691.832591818 296.356500242 687.459960938 278 c 0
 668.879882812 200 656.719382868 152.212537027 645.19921875 98 c 0
 643.07421875 88 648.861328125 87 668.735351562 77 c 1
 654.170898438 32 l 1
 569.194335938 18 443.818359375 -12 376.818359375 -12 c 1
 162.818359375 -12 7.72528946162 124.000063018 52.3623046875 334 c 0
EndSplineSet
Position2: "cpsp-1" dx=0 dy=0 dh=50 dv=100
Substitution2: "c2pc-1" g.pcap
Substitution2: "c2sc-1" g.smcp
EndChar
StartChar: H
Encoding: 72 72 33
Width: 795
Flags: HW
AnchorPoint: "Top" 494.525 679 basechar 0
AnchorPoint: "Bottom" 347.664 -15 basechar 0
LayerCount: 2
Back
SplineSet
729 639 m 1
 756.343935963 632.97429124 l 1
 624.343935963 33.9742912402 l 1
 597 40 l 1
 569.656064037 46.0257087598 l 1
 701.656064037 645.02570876 l 1
 729 639 l 1
233 633 m 1
 260.355026424 627.024840645 l 1
 132.355026424 41.0248406445 l 1
 105 47 l 1
 77.6449735757 52.9751593555 l 1
 205.644973576 638.975159355 l 1
 233 633 l 1
203.707348196 21.7917042329 m 1
 200.424527506 -6.01518499114 l 1
 164.883619366 -1.81930289728 137.426726465 0 107.577148438 0 c 0
 80.1203939989 0 50.2424350107 -1.24576626083 23.1854371234 -3.62612559152 c 1
 20.7315942246 24.2661431406 l 1
 18.2777513257 52.1584118728 l 1
 47.1945773432 54.702390954 78.4440182572 56 107.577148438 56 c 0
 139.78917304 56 170.014597619 53.9638487503 206.990168886 49.5985934569 c 1
 203.707348196 21.7917042329 l 1
158.689333615 655.062694527 m 1
 163.114389019 682.710820768 l 1
 197.316609507 677.236789029 231.325154754 674 266.83984375 674 c 0
 290.203388743 674 314.058033881 675.923608098 339.699674059 679.026616482 c 1
 343.0635365 651.229414654 l 1
 346.427398942 623.432212826 l 1
 319.439967612 620.166344297 293.279393678 618 266.83984375 618 c 0
 227.903229684 618 190.786988991 621.569144358 154.264278212 627.414568285 c 1
 158.689333615 655.062694527 l 1
213.189453125 345 m 1
 213.189453125 373 l 1
 248.135742188 373 l 1
 603.135742188 373 l 1
 625.809570312 373 l 1
 625.809570312 345 l 1
 625.809570312 317 l 1
 603.135742188 317 l 1
 248.135742188 317 l 1
 213.189453125 317 l 1
 213.189453125 345 l 1
631.945223739 654.757204355 m 1
 635.744307235 682.498274352 l 1
 660.667031681 679.085157586 680.089647562 677 701.477539062 677 c 0
 729.462477857 677 758.409635964 679.527727236 794.888573824 686.21620178 c 1
 799.938243007 658.675307802 l 1
 804.987912189 631.134413823 l 1
 765.798352867 623.948942279 732.952743416 621 701.477539062 621 c 0
 676.301259681 621 653.789694005 623.504301473 628.146140244 627.016134357 c 1
 631.945223739 654.757204355 l 1
666.993344985 23.4181560013 m 1
 664.268675763 -4.44896041993 l 1
 631.129341777 -1.20880733135 601.354850306 0 569.577148438 0 c 0
 549.621558653 0 527.28476345 -1.05492909579 506.191967942 -3.34229497211 c 1
 503.173262071 24.4945046799 l 1
 500.1545562 52.3313043319 l 1
 523.590043951 54.8727187668 547.678935186 56 569.577148438 56 c 0
 602.781766 56 634.6688915 54.7121524931 669.718014207 51.2852724224 c 1
 666.993344985 23.4181560013 l 1
EndSplineSet
Fore
SplineSet
138.603515625 687 m 1
 180.903320312 679 222.83984375 674 266.83984375 674 c 3
 295.854779541 674 325.595588756 678 359.965820312 684 c 1
 353.086914062 626 l 1
 297.908127493 615.857142857 263.600890032 619.571428571 258.598632812 617 c 1
 249.222956113 576.333333333 224.260523547 471.456140351 205.135742188 373 c 1
 642.135742188 373 l 1
 658.101766694 443.631578947 697.501718119 610.694060247 691.598632812 617 c 0
 684.568967272 624.509403148 679.376098955 616.066666667 605.724609375 631 c 1
 617.390625 686 l 1
 649.067807815 681 675.342404806 677 701.477539062 677 c 3
 736.338310878 677 772.022751647 681 823.87890625 693 c 1
 824 635 l 1
 773.505354395 624.5 754.611803652 625.498319619 753.024414062 618 c 0
 729.303045432 511.925918196 695.748762159 361.801915699 667.890625 232 c 0
 650.894342716 152.807698385 635.077596622 84.756540359 630.58203125 61 c 0
 628.732551789 51.2265388626 648.061099708 56 699.668945312 47 c 1
 699.668945312 47 687.202445297 -6.30769230769 687.088867188 -7 c 1
 647.15234375 -2 608.577148438 0 569.577148438 0 c 3
 542.059046217 0 513.234013295 -2 480.876953125 -8 c 1
 482.340820312 8.45945945946 483.8671875 28.8378378378 486.60546875 50 c 1
 559.111887078 59 571.960554354 50.8779194699 575.219726562 67 c 0
 596.269004343 161.262008734 609.06521366 224.834061135 629.89453125 318 c 1
 192.682617188 317 l 1
 173.804833486 228.999994421 151.28100093 125.865655501 136.793945312 64 c 0
 133.341116141 47.7613531185 150.774166248 60.6232934206 228.03125 45 c 1
 228.03125 45 215.776735806 -8.2987012987 215.6640625 -9 c 1
 174.952685735 -3 141.096248654 0 107.577148438 0 c 3
 71.5344268655 0 36.0372738328 -2 -2.9111328125 -7 c 1
 -2.9111328125 -7 -0.0793839254231 48.5 0.2431640625 50 c 1
 61.4622832393 57 77.376508653 50.4838300774 79.5185546875 61 c 0
 105.866986352 181.253641917 139.47055032 335.861965929 166.991210938 463 c 0
 184.146280759 542.251798561 198.933239698 601.64748988 198 616 c 0
 197.259740984 627.384615385 192.190926701 618.384615385 127.299804688 633 c 1
 138.603515625 687 l 1
EndSplineSet
Position2: "cpsp-1" dx=0 dy=0 dh=50 dv=100
Substitution2: "c2pc-1" h.pcap
Substitution2: "c2sc-1" h.smcp
EndChar
StartChar: M
Encoding: 77 77 38
Width: 897
Flags: HW
AnchorPoint: "Top" 549.525 679 basechar 0
AnchorPoint: "Bottom" 387.285 -15 basechar 0
LayerCount: 2
Back
SplineSet
83 47 m 1
 55.8089346209 53.6817635061 l 1
 199.808934621 639.681763506 l 1
 227 633 l 1
 254.191065379 626.318236494 l 1
 110.191065379 40.3182364939 l 1
 83 47 l 1
818 633 m 1
 845.566302888 628.090932362 l 1
 741.566302888 44.0909323624 l 1
 714 49 l 1
 686.433697112 53.9090676376 l 1
 790.433697112 637.909067638 l 1
 818 633 l 1
153.368920728 661.064733881 m 1
 159.278587491 688.433983757 l 1
 182.944136526 683.324033387 207.11836353 679.912218363 231.45939709 678.405494515 c 1
 229.729492188 650.458984375 l 1
 227.999587285 622.512474235 l 1
 200.739085571 624.199914824 173.786064578 628.010904474 147.459253966 633.695484006 c 1
 153.368920728 661.064733881 l 1
150.713322751 22.999536171 m 1
 146.668040341 -4.70670302202 l 1
 120.913614772 -0.946397481782 96.353995935 0 67.185546875 0 c 0
 48.7149412366 0 26.0297673663 -0.701755409501 7.56940341334 -3.27516771103 c 1
 3.70352833258 24.4566733721 l 1
 -0.162346748174 52.1885144552 l 1
 22.787751139 55.3878048037 47.3676436027 56 67.185546875 56 c 0
 97.4933267741 56 125.208884977 55.0202174091 154.758605161 50.7057753641 c 1
 150.713322751 22.999536171 l 1
792.118465091 21.4755970727 m 1
 787.767326975 -6.1842582612 l 1
 758.228129516 -1.53748312674 731.45047434 0 701.185546875 0 c 0
 674.404131951 0 646.359043974 -1.67027522384 616.439775886 -6.2885408394 c 1
 612.168350335 21.3837363305 l 1
 607.896924785 49.0560135004 l 1
 641.03157198 54.170597232 672.067420736 56 701.185546875 56 c 0
 733.348888371 56 763.59000122 54.3077025044 796.469603208 49.1354524066 c 1
 792.118465091 21.4755970727 l 1
239.389480621 678.02510403 m 2
 240.389330877 678.02510403 268.927225826 649.407808599 269.190668946 648.268159417 c 0
 325.278007415 470.053315239 368.7219143 299.181124515 400.632059424 128.719884217 c 0
 401.374041143 124.337032471 401.895286969 121.34229588 402.624917771 117.157907901 c 1
 508.695807081 286.269434785 769.490604141 638.981861819 785.300680221 659.757108211 c 0
 795.513326717 674.089280233 810.596201834 683.996819573 827.635203796 681.940890563 c 0
 856.837602957 677.376386853 883.203738507 679.282599943 912.26687485 682.657363762 c 1
 918.726102578 627.031125554 l 1
 891.389099546 623.85679751 860.514274918 621.593442253 829.365769876 625.183408248 c 1
 803.482025907 590.845504917 433.54233418 85.0745967466 410.424414216 16.101659809 c 2
 347.952322789 -170.28550777 l 1
 355.89886371 26.1318818187 l 2
 357.116829424 56.2367599543 351.384446479 84.1271548013 345.498799951 118.893397033 c 0
 314.081808839 286.720251178 269.853356157 459.984773903 214.013263029 637.047272685 c 2
 213.410485444 638.958610928 l 1
 212.801891088 642.66873597 l 2
 212.640018377 643.655547617 239.389480621 678.02510403 239.389480621 678.02510403 c 2
EndSplineSet
Fore
SplineSet
806.84765625 -10 m 1
 773.444634896 -2.72727272727 738.089938962 0 701.185546875 0 c 3
 670.673376812 0 638.810675995 -2.53846153846 602.422851562 -11 c 1
 605.151367188 48 l 1
 683.348214828 62.5666666667 685.862822976 50.199585812 689.528320312 71 c 0
 717.926716294 232.15095566 748.832325138 408.534246575 774.627929688 551 c 1
 676.995084729 411.593516209 573.64638576 255.65027649 488.393554688 128 c 0
 462.758842782 89.6167812693 426.200729264 35 417.547851562 -3 c 1
 364.547851562 -3 l 1
 372.475585939 39 366.635400764 73.1766081927 357.48046875 119 c 0
 321.037514123 301.408759124 252.67088067 516.686131387 238 560 c 1
 202.809867562 419.158653846 160.265207339 245.842895197 123.202148438 95 c 0
 109.541502745 39.4025558705 109.188476561 62 178 47 c 1
 169.272460938 -9 l 1
 139.760742188 -2 105.185546875 0 67.185546875 0 c 3
 37.185546875 0 4.9736328125 -1 -28.15234375 -11 c 1
 -20.4228515625 49 l 1
 57.7631921094 59.0915750916 55.5959441624 53.3818681319 61.8662109375 78 c 1
 62.3220759355 80.1964285714 182.182158003 565.607142857 183.091796875 570 c 1
 193 609 193 614 187.932617188 621 c 0
 183.054123991 627.739070964 173.693227749 627.461538462 121.6953125 640 c 1
 135.487304688 693 l 1
 167.629026509 682.733333333 204.081265191 677.133333333 237.298828125 679 c 1
 258.51171875 680 266.007705114 654.77185041 267.34765625 651 c 0
 331.775321478 469.641509434 381.541067924 291.641509434 415.958007812 117 c 1
 460.435238042 195 755.661824455 625.566857829 785.473632812 660 c 0
 796.725676516 672.996300524 810.47657345 682.868035456 827.149414062 682 c 0
 855.960749742 680.5 892.279552532 681.5 927 684 c 1
 918.845703125 628 l 1
 853.893102014 618.429864253 845.420576391 625.719684921 843.08203125 613 c 0
 811.146110166 439.295910746 780.371486798 263.282422974 745.465820312 66 c 0
 742.570080473 49.6336437806 743.653456921 59.9545454545 819.639648438 45 c 1
 806.84765625 -10 l 1
EndSplineSet
Position2: "cpsp-1" dx=0 dy=0 dh=50 dv=100
Substitution2: "c2pc-1" m.pcap
Substitution2: "c2sc-1" m.smcp
EndChar
StartChar: P
Encoding: 80 80 41
Width: 640
Flags: HW
AnchorPoint: "Top" 396.525 679 basechar 0
AnchorPoint: "Bottom" 143.699 -15 basechar 0
LayerCount: 2
Back
SplineSet
228 634 m 1
 255.434513646 628.401119664 l 1
 135.434513646 40.4011196641 l 1
 108 46 l 1
 80.5654863541 51.5988803359 l 1
 200.565486354 639.598880336 l 1
 228 634 l 1
152.768608179 650.127579709 m 1
 155.936683191 677.947775623 l 1
 173.588722908 675.937617748 189.348612272 675 218.107421875 675 c 0
 293.315708771 675 325.233772413 686 398.4453125 686 c 0
 421.764269701 686 443.640833116 683.722996213 463.94076892 679.456990306 c 0
 587.135403507 653.56779322 652.385627646 553.992228256 629.431640625 446 c 0
 607.972055594 345.038524211 495.69315241 198 257.717773438 198 c 0
 242.704461176 198 219.778312582 202.791515283 209.206054688 205 c 2
 181.412966229 210.80581856 l 1
 187.138420896 238.214196273 l 1
 192.863875563 265.622573986 l 1
 220.656964022 259.816755426 l 2
 227.73470836 258.338254773 253.87446424 254.08592125 257.795405394 253.99857931 c 0
 469.936959965 254.525316262 558.552625236 381.884023166 574.655326533 457.642826739 c 0
 590.945898771 534.285511687 549.569564838 604.239015944 452.423996881 624.65403453 c 0
 436.124622243 628.079327553 418.12031018 630 398.4453125 630 c 0
 333.09283378 630 300.088863293 619 218.107421875 619 c 0
 188.248114119 619 169.299543605 620.064123434 149.600533168 622.307383794 c 1
 152.768608179 650.127579709 l 1
230.954347251 21.2976329112 m 1
 226.383263073 -6.32672571382 l 1
 190.91170706 -0.457142617043 164.584821526 0 135.631835938 0 c 0
 108.401126577 0 79.764051896 0.465406340882 41.1262332272 -7.55379857804 c 1
 35.4361486225 19.8619439286 l 1
 29.7460640179 47.2776864353 l 1
 74.3087515019 56.5265864763 109.034267334 56 135.631835938 56 c 0
 165.142697368 56 195.977883112 55.466041113 235.525431428 48.9219915361 c 1
 230.954347251 21.2976329112 l 1
EndSplineSet
Fore
SplineSet
260.549804688 254 m 1
 419.735639936 254 545 337 574 455 c 1
 593 543 541.655316998 595.205639932 483 616 c 0
 464.08454887 622.705866097 427.342532815 630.512670799 400 631 c 0
 335.877823758 632.142857143 252.457838709 617.379950192 252.015625 615 c 0
 238.770091339 543.713855422 208.282656933 397.009036145 183.447265625 272 c 1
 202.329163071 263 248.148516222 254 260.549804688 254 c 1
132.3828125 681 m 1
 161.532226562 677 177.107421875 675 218.107421875 675 c 1
 293.107421875 675 325.4453125 686 398.4453125 686 c 1
 563.4453125 686 656.213867188 572 629.431640625 446 c 1
 607.963867188 345 495.717773438 198 257.717773438 198 c 1
 232.751351021 198 188.27991109 208.428571429 171.206054688 214 c 1
 157.667612532 150.666666667 145.196531015 87.0816671699 139.1484375 62 c 0
 135.619082956 47.3636363636 184 64 262 42 c 1
 250.293945312 -11 l 1
 205.418945312 -1 170.631835938 0 135.631835938 0 c 3
 101.631835938 0 66.84375 1 11.443359375 -15 c 1
 6.109375 42 l 1
 78.2949055793 60 80.6310840283 47.8488438663 82.935546875 60 c 0
 90.0363600761 95.5887850467 97.0687947199 131.15594932 106.6796875 179 c 0
 139.238212014 341.079812207 183.163551975 547.17791179 195.228515625 616 c 0
 196.397086202 622.665869014 187.513777306 614 122.078125 626 c 1
 132.3828125 681 l 1
EndSplineSet
Position2: "cpsp-1" dx=0 dy=0 dh=50 dv=100
Substitution2: "c2pc-1" p.pcap
Substitution2: "c2sc-1" p.smcp
EndChar
StartChar: Q
Encoding: 81 81 42
Width: 786
Flags: HW
AnchorPoint: "Top" 480.525 679 basechar 0
AnchorPoint: "Middle" 402.727 347.853 basechar 0
AnchorPoint: "Bottom" 258.553 -15 basechar 0
LayerCount: 2
Back
SplineSet
727.288085938 -129.092773438 m 1
 738.60103049 -154.705607829 l 1
 718.955548997 -163.382829547 693.580974693 -171 664.3125 -171 c 0
 547.762075018 -171 458.143056729 -96.6705732615 390.065249098 15.4697660281 c 1
 414 30 l 1
 437.934750902 44.5302339719 l 1
 501.216516775 -59.7098839587 574.637897256 -115 664.3125 -115 c 0
 683.729345108 -115 701.531270852 -109.859658837 715.975141385 -103.479939046 c 1
 727.288085938 -129.092773438 l 1
377.151011553 16 m 1
 377.151011553 -12 l 1
 363.108398438 -12 l 2
 329.831009017 -12 299.164486667 -8.83323056249 271.130967302 -2.88732811665 c 0
 98.8594865517 33.6514098636 25.9873042949 175.610659837 59.228515625 332 c 0
 103.658986803 541.031253455 287.719370958 692 482.748046875 692 c 0
 509.260054454 692 534.553569896 689.365244248 558.372301064 684.335846484 c 0
 710.495194534 652.214633357 802.618214555 522.020804283 767.541992188 357 c 0
 735.852388338 207.911997876 625.472644055 74.0308358874 497.3984375 27 c 2
 464.321253431 14.8535447738 l 1
 454.66940812 41.1374159134 l 1
 445.017562808 67.421287053 l 1
 478.094746877 79.5677422792 l 2
 584.690401366 118.71132058 684.87940717 237.448115734 712.76572436 368.643044397 c 0
 741.692965435 504.735139437 670.868676091 603.347109841 546.802833601 629.543991043 c 0
 526.957757757 633.734339361 505.550950232 636 482.748046875 636 c 0
 316.398338789 636 153.188169738 504.702341383 114.004807557 320.357069004 c 0
 86.0181505399 188.688737762 141.708756573 81.8088505057 282.750077862 51.8940215363 c 0
 306.618330272 46.8315711698 333.382523483 44 363.108398438 44 c 2
 377.151011553 44 l 1
 377.151011553 16 l 1
EndSplineSet
Fore
SplineSet
488 636 m 3
 325.848835959 636 156.501218078 517.156379689 115 325 c 0
 78.7137212107 156.98951049 172.976441243 44 364 44 c 3
 430.068146637 44 655 120 712 366 c 0
 751.067174729 534.60570146 629.014183684 636 488 636 c 3
459 10 m 1
 512.403854656 -73.6693548387 597.175350145 -115 663 -115 c 3
 701.194497274 -115 734.066382477 -101 751.25390625 -96 c 1
 757.775390625 -150 l 1
 739.066136099 -159 704.44259189 -171 664.3125 -171 c 3
 556.115642623 -171 470.810816635 -107.830188679 405 -9 c 1
 126 -31 20.6496642808 150.498759084 59.228515625 332 c 0
 103.65234375 541 287.748046875 692 482.748046875 692 c 3
 678.748046875 692 811.883561617 547.165912316 767.541992188 357 c 0
 722.147127024 162.316860465 591 55 459 10 c 1
EndSplineSet
Position2: "cpsp-1" dx=0 dy=0 dh=50 dv=100
Substitution2: "salt-1" Q.alt
Substitution2: "c2pc-1" q.pcap
Substitution2: "c2sc-1" q.smcp
EndChar
StartChar: R
Encoding: 82 82 43
Width: 707
Flags: HMW
AnchorPoint: "Top" 381.525 679 basechar 0
AnchorPoint: "Bottom" 340.125 -15 basechar 0
LayerCount: 2
Back
SplineSet
38.2105991217 24.8333426989 m 1
 41.4632538174 -2.97709126808 l 1
 34.2899386758 -3.81606836593 26.3733057115 -4.94883780959 19.3551878215 -6.10365251358 c 1
 14.8089892347 21.5248124892 l 1
 10.2627906478 49.1532774919 l 1
 18.1303838002 50.4478713417 26.7557052424 51.6844585974 34.9579444259 52.6437766658 c 1
 38.2105991217 24.8333426989 l 1
181.222726139 19.3491701779 m 1
 175.385463436 -8.03561326349 l 1
 148.067493799 -2.21259240097 121.21333376 0 92.4970703125 0 c 0
 85.2637957448 0 77.8718666411 -0.184424430795 70.4377550122 -0.558579327358 c 1
 69.0303112975 27.4060251252 l 1
 67.6228675828 55.3706295778 l 1
 75.9941952487 55.7919540606 84.3135029322 56 92.4970703125 56 c 0
 124.09387203 56 155.188936966 53.5274965677 187.059988843 46.7339536192 c 1
 181.222726139 19.3491701779 l 1
90.763671875 69.0048828125 m 1
 63.6515750014 76.0001814562 l 1
 92.0325843276 185.99815487 109.186067988 262.002697371 125.553336574 339.000535345 c 0
 142.771287972 420.00030785 155.799861649 486.000712371 175.90652488 590.000472529 c 1
 203.397460938 584.685546875 l 1
 230.888396995 579.370621221 l 1
 210.771354364 475.31717463 197.645340656 408.817280477 180.329475926 327.35688653 c 0
 163.863887057 249.896512664 146.446454059 172.742696124 117.875768749 62.0095841688 c 1
 90.763671875 69.0048828125 l 1
139.52612682 646.432574667 m 1
 140.249061697 674.423240346 l 1
 170.978640588 673.629565604 192.810525876 673 223.547851562 673 c 0
 284.393297128 673 312.702848686 692 383.586914062 692 c 0
 406.836271643 692 429.472478135 689.720116076 450.790493612 685.206593306 c 0
 543.830827895 665.507777166 611.554051219 602.458023778 590.201171875 502 c 0
 569.135544646 402.893399575 483.946763848 345.054021324 420.665039062 316 c 1
 408.982128557 341.446209976 l 1
 397.299218053 366.892419952 l 1
 454.357523076 393.089133402 520.19889405 442.009853873 535.42489151 513.642985414 c 0
 548.822922112 576.676155561 516.029192085 614.152643107 439.191114585 630.421062313 c 0
 422.010572921 634.05858505 403.157905743 636 383.586914062 636 c 0
 327.277589646 636 297.973845124 617 223.547851562 617 c 0
 191.999262362 617 169.379615545 617.652189896 138.803191942 618.441908987 c 1
 139.52612682 646.432574667 l 1
647.407799027 0.196402709267 m 1
 643.98479462 -27.5935782339 l 1
 491.250393961 -8.78066404931 374.025483352 170.779980325 335.505385463 297.878766787 c 1
 362.301757812 306 l 1
 389.098130162 314.121233213 l 1
 424.844696766 196.173837323 536.652230614 42.0502205022 650.830803435 27.9863836525 c 1
 647.407799027 0.196402709267 l 1
302.288898068 320.889290012 m 1
 304.776367188 293 l 1
 293.577997622 292.001208045 281.340188121 291 266.3515625 291 c 0
 242.278839577 291 224.844571129 292.996369642 205.989257812 294 c 2
 181.718191494 295.291899985 l 1
 183.206468295 323.252319012 l 1
 184.694745095 351.212738039 l 1
 208.965811412 349.920838054 l 2
 230.012766661 348.800551009 245.638188946 347 266.3515625 347 c 0
 278.87727688 347 288.863781092 347.803042057 299.801428947 348.778580024 c 1
 302.288898068 320.889290012 l 1
EndSplineSet
Fore
SplineSet
185.017578125 351 m 1
 211.312625806 349.666666667 240.44857821 347 268.999023438 347 c 3
 402.806989275 347 512 414 534 510 c 0
 556.43568586 607.901174661 462.445634085 636 385.495117188 636 c 3
 375 636 241.218397496 622.514943388 236.393554688 603 c 0
 231.482728815 583.137282663 201.948615883 430.746835443 185.017578125 351 c 1
124.97265625 675 m 1
 164.548881431 674 188.40029766 673 223.547851562 673 c 3
 283.547851562 673 313.586914062 692 383.586914062 692 c 3
 508.586914062 692 619.578391713 625.319265178 590.201171875 502 c 0
 565.476153289 398.209677419 471.216363566 332.351679415 391 307 c 1
 461.845524867 124.054347826 571.023038669 27.0760869565 686 24 c 1
 665.333007812 -29 l 1
 506.747658146 -24.9751552795 377.925796572 162.180124224 337 295 c 1
 316.385602182 292 293.930793445 291 266.3515625 291 c 3
 229.230791117 291 202.047257483 293 172.989257812 294 c 1
 159.483486565 226.878504673 137.669413597 125.234497174 124.501953125 66 c 0
 119.594428159 43.923246907 138.409395973 64 214.375976562 39 c 1
 198.521484375 -14 l 1
 165.647460938 -4 129.497070312 0 92.4970703125 0 c 3
 61.6817032876 0 29.1899717996 -4 -4.265625 -13 c 1
 -5.8984375 43 l 1
 54.829972046 57.4166666667 65.8922537558 58.1666666667 65.6513671875 62 c 1
 93.1162156824 177.855513308 108.4395561 258.168182824 125.553710938 339 c 0
 143.113428868 421.93625498 156.400491253 489.513944223 176.90625 596 c 1
 178.09375 616.625 180.068794745 617.25 114.306640625 618 c 1
 124.97265625 675 l 1
EndSplineSet
Position2: "cpsp-1" dx=0 dy=0 dh=50 dv=100
Substitution2: "salt-1" R.alt
Substitution2: "c2pc-1" r.pcap
Substitution2: "c2sc-1" r.smcp
EndChar
StartChar: U
Encoding: 85 85 53
Width: 775
Flags: HW
AnchorPoint: "Horn" 764 595 basechar 0
AnchorPoint: "Top" 491.495 679 basechar 0
AnchorPoint: "Ogonek" 348.583 10 basechar 0
AnchorPoint: "Bottom" 298.932 -15 basechar 0
LayerCount: 2
Back
SplineSet
665.649146596 654.363821801 m 1
 669.292186235 682.125814924 l 1
 696.976030603 678.493030277 728.07157475 676 758.579101562 676 c 0
 775.776036887 676 793.803536695 676.834382461 807.676282277 678.344943681 c 1
 810.707202499 650.509471301 l 1
 813.738122721 622.673998921 l 1
 797.056248517 620.857560199 777.549993637 620 758.579101562 620 c 0
 725.054253125 620 691.754168907 622.698169153 662.006106956 626.601828677 c 1
 665.649146596 654.363821801 l 1
171.169917112 596.419745819 m 1
 185.168347064 596.984459808 l 1
 213.14559102 598.113096452 l 1
 214.918675062 554.160948488 138.299387017 255.569407282 131.939855235 219.423301649 c 0
 120.821184579 154.477804196 127.186875058 113.872725539 141.279676611 96.6857681293 c 0
 163.883207904 69.5773017927 218.105961717 43 327.1015625 43 c 0
 413.182730084 43 486.203958058 64.7835830112 537.589568002 105.904669338 c 0
 581.77210096 140.516822472 612.334053492 189.484964117 629.286662087 259.343770336 c 0
 684.381435351 481.473889107 706.454611384 599.213218782 710.444063035 616.554873987 c 1
 737.731308861 610.277436993 l 1
 765.018554688 604 l 1
 761.795204833 589.988494995 738.738821568 468.010053019 683.673828125 246 c 0
 664.522280954 167.079743266 627.169270137 104.942877269 572.352539063 62 c 0
 508.620223233 10.9985218832 422.111371664 -13 327.1015625 -13 c 0
 211.015070867 -13 137.381906486 13.9155894498 98.1220703125 61 c 0
 65.0838029442 101.29200951 65.0817966424 160.759052412 76.7646484375 229 c 0
 83.3998591175 266.713000637 156.09604154 567.366032041 157.17148716 595.855031831 c 1
 171.169917112 596.419745819 l 1
138.240791297 655.044396775 m 1
 141.116126549 682.896370622 l 1
 169.007135605 680.017005518 201.06763406 679 236.26953125 679 c 0
 262.06484468 679 289.412232121 679.977737873 311.831667072 681.637925346 c 1
 313.899440775 653.714381303 l 1
 315.967214479 625.790837261 l 1
 291.87138946 624.006510986 263.467207833 623 236.26953125 623 c 0
 200.00447066 623 166.227703825 624.006318076 135.365456044 627.192422927 c 1
 138.240791297 655.044396775 l 1
EndSplineSet
Fore
SplineSet
118.879882812 686 m 1
 145.729492188 681 190.26953125 679 236.26953125 679 c 3
 263.50319939 679 291.058057877 681 312.649414062 685 c 1
 305.779296875 628 l 1
 221.324224701 618.609622547 221.034939095 628.612102025 219.55859375 612 c 0
 217.53972908 595.571280295 179.882951472 413.779704443 138.594726562 250 c 0
 124.279464959 193.215061446 117.600472477 139.708253608 135.999023438 107 c 0
 160.033321145 64.2727272727 219.935802784 43 305.818359375 43 c 3
 336.543033922 43 453.622909031 41.5518669497 538 105 c 0
 578.5021954 135.456 603.283371009 177.102169993 623.673828125 246 c 0
 650.60546875 337 688.610440665 508.607811704 707.329101562 601 c 0
 712.916575307 628.578838524 708 616.922334159 634 632 c 1
 644.879882812 686 l 1
 670.729492188 681 717.579101562 676 758.579101562 676 c 3
 794.579101562 676 828.26953125 679 845.109375 687 c 1
 837.399414062 627 l 1
 778.388067663 614 770.278986392 624.767502691 768.018554688 615 c 0
 764.679071775 600.569832402 739.289211751 475.18150241 683.673828125 246 c 0
 664.502929688 167 626.793773199 105.566334838 572.352539062 62 c 0
 508.622070312 11 422.1015625 -13 327.1015625 -13 c 3
 211.1015625 -13 136.923665131 13.6792912589 98.1220703125 61 c 0
 65.3232421875 101 64.6817022313 161.077034091 76.7646484375 229 c 0
 83.4363221786 266.504087193 139.732878147 499 159.177734375 601 c 0
 166.152763541 637.588235294 165.885824431 617.588235294 99.0888671875 633 c 1
 118.879882812 686 l 1
EndSplineSet
Position2: "cpsp-1" dx=0 dy=0 dh=50 dv=100
Substitution2: "c2pc-1" u.pcap
Substitution2: "c2sc-1" u.smcp
EndChar
StartChar: Z
Encoding: 90 90 58
Width: 693
Flags: HW
AnchorPoint: "Top" 437.525 679 basechar 0
AnchorPoint: "Bottom" 300.997 -15 basechar 0
LayerCount: 2
Back
SplineSet
612.72464681 138.80404694 m 1
 636.437940646 123.915135112 l 1
 597.930601652 62.5852101999 576.271080306 25.1895209629 549.621282243 -8.7497887122 c 2
 532.996261897 -29.841208123 l 1
 511.329496495 -14.6964394207 l 2
 496.074540864 -4.03343687622 478.522579483 2 417.5078125 2 c 0
 313.199696695 2 96.6929030806 2.76642903639 10.3621105333 0.78196051527 c 1
 9.71865015649 28.774565945 l 1
 9.07518977972 56.7671713747 l 1
 97.1377428729 58.7914475263 313.187595271 58 417.5078125 58 c 0
 464.34708725 58 492.980690514 55.1870232566 519.402586733 44.4169781781 c 1
 537.868203163 70.6120416503 557.731743756 103.874505074 589.011352973 153.692958768 c 1
 612.72464681 138.80404694 l 1
695.223632812 649.859375 m 1
 712.222182904 627.609671748 l 1
 614.981841233 553.319026156 253.714514469 167.451869686 92.4700987292 51.6270802631 c 1
 76.134765625 74.3681640625 l 1
 59.7994325208 97.1092478619 l 1
 212.154543279 206.54868823 571.792558276 590.795697229 678.225082721 672.109078252 c 1
 695.223632812 649.859375 l 1
120.03250319 563.073118647 m 1
 95.3937530193 576.374697125 l 1
 123.946468461 629.263399292 141.391101954 681.463951403 175.57269119 707.154633942 c 2
 197.368398759 723.536160266 l 1
 214.323386694 702.183510377 l 2
 233.178721722 678.43761513 219.245145769 680.3218478 234.914044083 679.993867993 c 0
 268.287363895 679.295301012 447.153960742 676.03515625 581.725585938 676.03515625 c 0
 598.941902261 676.03515625 615.504035402 676.196762077 630.42933111 676.41927107 c 1
 630.846713768 648.422382105 l 1
 631.264096425 620.42549314 l 1
 616.125093674 620.199798164 599.291422781 620.03515625 581.725585938 620.03515625 c 0
 446.304790349 620.03515625 267.474930115 623.300040094 233.742114412 624.006132007 c 0
 216.926547986 624.358113756 202.944854932 628.943392293 191.194807219 638.483908334 c 1
 178.83621632 617.515369506 163.504087515 584.655933513 144.671253362 549.771540169 c 1
 120.03250319 563.073118647 l 1
EndSplineSet
Fore
SplineSet
84.5634765625 558 m 1
 126.652662292 621.081871345 146.410972181 708.643274854 201.911132812 719 c 1
 219.872070312 703 218.62153175 680.041854631 234.62109375 680 c 0
 268.686054639 679.910886537 446.958007812 676.03515625 581.725585938 676.03515625 c 3
 641.811281592 676.03515625 683.800238143 678 718.196289062 678 c 1
 735.90625 639 l 1
 737.730947987 639 724.310318642 633.578591049 722.630859375 633 c 0
 676.14197311 616.98409894 212 127 100.32421875 58 c 1
 212.594627189 58 343.116514684 58 418 58 c 3
 541.122639197 58 508.441665434 34.4237288136 595.91796875 165 c 1
 645.966796875 139 l 1
 592.334522852 55.4388888889 569.929770126 12.25 531.706054688 -30 c 1
 499 4 505.530273438 2 417.5078125 2 c 3
 302.296986167 2 52.2781854861 3 -10.9169921875 0 c 1
 -19.6513671875 53 l 1
 27.1931411354 72.2705882353 65.0899437133 100.717647059 103.416015625 131 c 1
 269.2187152 273.303418803 449.509572618 460.551282051 613.150390625 616 c 1
 617 620 l 1
 592.324157388 620.571428571 287.109070214 621.428571429 226 624 c 1
 177.80376952 624.430465368 192.381805651 637.4375 141.3125 538 c 1
 84.5634765625 558 l 1
EndSplineSet
Position2: "cpsp-1" dx=0 dy=0 dh=50 dv=100
Substitution2: "c2pc-1" z.pcap
Substitution2: "c2sc-1" z.smcp
EndChar
StartChar: c
Encoding: 99 99 2
Width: 417
VWidth: 1159
Flags: HMW
AnchorPoint: "Top" 304.16 537 basechar 0
AnchorPoint: "Bottom" 175.475 -15 basechar 0
LayerCount: 2
Fore
SplineSet
370 394 m 1
 359.961941961 425.240234374 340.352277145 451 298.64453125 451 c 3
 218.873363668 451 79.9005854397 315.308639435 87 159 c 0
 90.209888133 88.3275181299 120.833333332 49 174 49 c 3
 221.130561608 49 269.183165253 84.428571428 297 111 c 1
 332.799803339 68.3551401869 l 1
 304.441547528 38.8683462007 238.571668838 -7 175.73431717 -7 c 3
 119.70955196 -7 36.4830195477 30.8229485395 31.2987816565 154.107062208 c 0
 23.7040924846 334.713072734 170.967132814 507 299.576471528 507 c 3
 353.790764051 507 400.213146654 472.643640777 413.839409716 434.00616679 c 1
 409.574584619 420.897789652 398.341193147 403.622399447 370 394 c 1
EndSplineSet
Substitution2: "pcap-1" c.pcap
Substitution2: "smcp-1" c.smcp
EndChar
StartChar: e
Encoding: 101 101 4
Width: 447
VWidth: 1159
Flags: HMW
AnchorPoint: "Top" 272.504 537 basechar 0
AnchorPoint: "Ogonek" 286.606 26 basechar 0
AnchorPoint: "Bottom" 180.006 -15 basechar 0
LayerCount: 2
Back
SplineSet
95.45703125 199.553710938 m 2
 94.48828125 189.563476562 93.984375 179.333984375 94.0009765625 168.8671875 c 0
 94.0068359375 164.708007812 94.0947265625 160.514648438 94.267578125 156.288085938 c 0
 97.32421875 81.3212890625 130.297851562 46 181.197265625 46 c 0
 233.057617188 46 277.778320312 71.3896484375 313.73828125 105.3671875 c 1
 352.198242188 64.662109375 l 1
 310.000976562 24.79296875 252.205078125 -10 181.197265625 -10 c 0
 92.1513671875 -10 42.05078125 62.37890625 38.3134765625 154.005859375 c 0
 38.111328125 158.966796875 38.0078125 163.891601562 38.0009765625 168.780273438 c 0
 37.966796875 190.579101562 39.8515625 211.583984375 43.3076171875 231.674804688 c 0
 71.2919921875 394.370117188 200.354492188 505 265.78515625 505 c 0
 329.94921875 505 393.354492188 434.12109375 399.637695312 364.138671875 c 0
 401.541015625 342.93359375 400.901367188 327.25390625 401.041992188 319.783203125 c 1
 434.036132812 291.268554688 l 1
 386.4453125 275.654296875 l 2
 322.079101562 254.537109375 230.96875 224.739257812 143.073242188 198.658203125 c 2
 123.37109375 192.8125 l 1
 107.44140625 246.498046875 l 1
 127.143554688 252.344726562 l 2
 203.889648438 275.1171875 281.719726562 300.296875 345.014648438 321.0078125 c 1
 344.9296875 330.200195312 345.333984375 342.724609375 343.861328125 359.131835938 c 0
 339.779296875 404.60546875 289.990234375 449 265.78515625 449 c 0
 247.859375 449 136.166992188 376.303710938 103.3125 245.015625 c 0
 103.069335938 244.045898438 95.45703125 199.553710938 95.45703125 199.553710938 c 2
EndSplineSet
Fore
SplineSet
265.373046875 505 m 3
 328.0859375 505 394.258789062 434.006835938 399.3125 361.809570312 c 0
 399.620117188 353.009765625 402 341.06640625 408 337.922851562 c 1
 404.020507812 281.556640625 l 1
 328.465820312 257.049804688 207.83203125 217.6953125 93 184 c 1
 92.9189453125 178.940429688 92.4794921875 174.314453125 92.8427734375 166.341796875 c 0
 96.3681640625 88.98828125 122.850585938 46 182 46 c 3
 240.060546875 46 289.918945312 77.3955078125 331.50390625 124 c 1
 372.50390625 86 l 1
 330.182617188 38.640625 264.479492188 -10 180.78515625 -10 c 3
 91.357421875 -10 41.6455078125 62.21484375 37.9013671875 154.005859375 c 0
 29.48828125 360.290039062 192.547851562 505 265.373046875 505 c 3
266 449 m 3
 240.974609375 449 128 363 103 245 c 1
 153.625976562 258.237304688 313.284179688 308.84765625 338 319 c 0
 344.372070312 321.661132812 345.48828125 328.529296875 344.838867188 335.170898438 c 1
 349.053710938 402.551757812 287.48828125 449 266 449 c 3
EndSplineSet
Substitution2: "pcap-1" e.pcap
Substitution2: "smcp-1" e.smcp
EndChar
StartChar: g
Encoding: 103 103 6
Width: 503
VWidth: 1159
Flags: HMW
AnchorPoint: "Top" 309.43 537 basechar 0
AnchorPoint: "Bottom" 236.583 -225 basechar 0
LayerCount: 2
Back
SplineSet
134.974609375 114 m 1
 141.512695312 102.666992188 154.58984375 80 219.974609375 80 c 3
 256.67578125 80 292.264648438 92 338.974609375 92 c 3
 424.622070312 92 466.974609375 34.0810546875 466.974609375 -22 c 3
 466.974609375 -128.624023438 270.974609375 -177 186.974609375 -177 c 3
 75.974609375 -177 25.974609375 -111 25.974609375 -59 c 3
 25.974609375 6.8603515625 76.3671875 47.1826171875 103.974609375 66 c 1
 74.61328125 87.767578125 63.8466796875 113.720703125 57.974609375 138 c 1
 92.03125 151.713867188 100.133789062 163.857421875 168.974609375 170 c 1
 88.517578125 193.67578125 40.974609375 249.549804688 40.974609375 313 c 3
 40.974609375 435 157.974609375 514 233.974609375 514 c 3
 276.45703125 514 317.849609375 504 355.974609375 486 c 1
 379.424804688 488 398.6875 487 422.974609375 487 c 3
 451.958007812 487 457.44140625 486 469.974609375 486 c 1
 469.428710938 480.76171875 465.974609375 431 465.974609375 431 c 1
 448.974609375 431 434.305664062 428.278320312 417.974609375 431 c 0
 411.974609375 432 407.974609375 431 402.974609375 431 c 1
 423.974609375 404.103515625 437.974609375 357.389648438 437.974609375 322 c 3
 437.974609375 225.979492188 343.5234375 167.819335938 267.974609375 142 c 0
 216.276367188 124.33203125 149.751953125 117.818359375 134.974609375 114 c 1
234.974609375 458 m 3
 182.19140625 458 96.974609375 396.286132812 96.974609375 314 c 3
 96.974609375 242.352539062 215.974609375 194 254.974609375 198 c 1
 308.596679688 217.155273438 381.974609375 252 381.974609375 321 c 3
 381.974609375 366.341796875 347.95703125 458 234.974609375 458 c 3
81.974609375 -58 m 3
 81.974609375 -86.25 113.967773438 -121 187.974609375 -121 c 3
 283.146484375 -121 410.974609375 -68.23046875 410.974609375 -25 c 3
 410.974609375 18.3779296875 381.474609375 36 339.974609375 36 c 3
 295.228515625 36 281.534179688 24 219.974609375 24 c 3
 197.430664062 24 163.077148438 32 146.974609375 34 c 1
 97.732421875 4.1962890625 81.974609375 -32 81.974609375 -58 c 3
EndSplineSet
Fore
SplineSet
398.349609375 454.686523438 m 1
 430.69140625 464.502929688 463.607421875 469 490.637695312 469 c 3
 508.7734375 469 532.955078125 467 539 463 c 1
 521.349609375 409 l 1
 512.255859375 411.104492188 502.62890625 413 490.349609375 413 c 0
 465.642578125 413 440.328125 409.453125 414.349609375 402 c 1
 413.573242188 402.045898438 397.756835938 454.421875 398.349609375 454.686523438 c 1
435.000976562 354.936523438 m 1
 394.50390625 175 224.578125 178 120.349609375 117 c 0
 107.56640625 109.518554688 99.4990234375 103.494140625 89.349609375 95 c 1
 83.349609375 92 92.349609375 125.989257812 95.349609375 116 c 1
 100.264648438 103 125.404296875 93 140.349609375 93 c 3
 198.317382812 93 269.64453125 125 327.349609375 125 c 3
 409.817382812 125 436.538085938 64.42578125 429.349609375 18 c 1
 400.330078125 -118 212.75 -174 98.806640625 -174 c 3
 -2.4326171875 -174 -37.2333984375 -114.356445312 -30.90625 -63.083984375 c 1
 -22.30078125 7.3251953125 58.1181640625 53.3603515625 101.6484375 75.79296875 c 1
 103.151367188 76.6064453125 160.813476562 39.6962890625 159.349609375 39 c 1
 96.373046875 14.18359375 36.8134765625 -28.5849609375 29.349609375 -70 c 0
 24.263671875 -98.21875 48.3896484375 -119 101.349609375 -119 c 3
 215.365234375 -119 360.349609375 -48 374.349609375 27 c 1
 377.247070312 49.4150390625 366.245117188 69 328.349609375 69 c 3
 288.3203125 69 214.32421875 37 139.349609375 37 c 3
 94.4189453125 37 30.7919921875 64.576171875 29.3505859375 119 c 1
 65.3564453125 155.012695312 112.377929688 178.114257812 172.348632812 201.913085938 c 0
 260.95703125 237.077148438 353.013671875 249.40234375 379.349609375 360 c 0
 390.890625 408.465820312 335.411132812 449 293.349609375 449 c 3
 229.155273438 449 148.344726562 396.086914062 128.0234375 317 c 0
 112.349609375 256 151.93359375 219 233.0234375 197 c 1
 230.908203125 196.4609375 145.172851562 170.444335938 150.349609375 171 c 1
 102.934570312 187.943359375 59.279296875 241.90625 68.455078125 307.892578125 c 1
 85.5830078125 431.333984375 204.409179688 505 292.19140625 505 c 3
 366.126953125 505 450.127929688 441 435.000976562 354.936523438 c 1
EndSplineSet
Substitution2: "pcap-1" g.pcap
Substitution2: "smcp-1" g.smcp
EndChar
StartChar: l
Encoding: 108 108 11
Width: 281
VWidth: 1159
Flags: HMW
AnchorPoint: "TopRight" 306.049 581 basechar 0
AnchorPoint: "Top" 234.514 749 basechar 0
LayerCount: 2
Back
SplineSet
214.202148438 70.7001953125 m 1
 233.397460938 50.314453125 l 1
 194.58203125 13.7646484375 151.650390625 -10 108.813476562 -10 c 0
 89.16015625 -10 69.85546875 -4.841796875 58.25 10.92578125 c 0
 50.2568359375 21.7841796875 49.447265625 30.0146484375 48.1044921875 39.0361328125 c 0
 46.1416015625 52.34375 48.7890625 70.435546875 52.994140625 95.6865234375 c 0
 63.3671875 168.084960938 94.90234375 309.500976562 114.985351562 401.131835938 c 0
 156.537109375 590.720703125 164.145507812 614.880859375 190.301757812 750.309570312 c 1
 217.793945312 745 l 1
 245.286132812 739.690429688 l 1
 218.909179688 603.120117188 211.044921875 577.848632812 169.686523438 389.143554688 c 0
 149.577148438 297.387695312 118.2734375 156.45703125 108.337890625 87.1142578125 c 0
 104.213867188 62.3515625 103.404296875 48.42578125 103.649414062 46.23046875 c 0
 104.615234375 46.14453125 106.700195312 46 108.813476562 46 c 0
 130.033203125 46 161.89453125 59.904296875 195.006835938 91.0849609375 c 1
 214.202148438 70.7001953125 l 1
EndSplineSet
Fore
SplineSet
175.497070312 413 m 0
 152.561523438 304.9453125 104.293945312 97.84375 104.293945312 50 c 3
 104.293945312 48.162109375 104.41796875 46 108.293945312 46 c 3
 148.206054688 46 184.852539062 81.4375 216 109 c 1
 254 70 l 1
 209.294921875 22 157.624023438 -10 108.313476562 -10 c 3
 67.458984375 -10 52.8369140625 11.548828125 48.9140625 37 c 0
 46.5869140625 52.0947265625 49.7880859375 69.7890625 53.5458984375 96 c 0
 64.154296875 170 95.5625 311.672851562 115.45703125 401 c 0
 162.764648438 613.415039062 179.293945312 692.58203125 179.293945312 694 c 0
 179.293945312 694 l 1
 184.05859375 713.836914062 187.212890625 733.0234375 191.293945312 751 c 1
 196.412109375 755.875 209.013671875 760.053710938 221.241210938 764 c 1
 234.37890625 757.713867188 239.426757812 749.857421875 246.293945312 742 c 1
 241.451171875 714.405273438 229.944335938 658.08984375 223.858398438 630 c 0
 211.408203125 572 189.293945312 478 175.497070312 413 c 0
EndSplineSet
Substitution2: "pcap-1" l.pcap
Substitution2: "smcp-1" l.smcp
EndChar
StartChar: m
Encoding: 109 109 12
Width: 781
VWidth: 1159
Flags: HMW
AnchorPoint: "Top" 407.318 537 basechar 0
AnchorPoint: "Bottom" 335.057 -15 basechar 0
LayerCount: 2
Back
SplineSet
351.328125 27.6923828125 m 1
 323.677734375 32.1025390625 l 2
 323.87109375 33.314453125 324.830078125 39.43359375 325.805664062 44.35546875 c 0
 348.8125 160.501953125 372.979492188 285.8359375 397.734375 401.461914062 c 0
 397.978515625 403.534179688 398.234375 410.936523438 398.940429688 421.412109375 c 0
 400.596679688 445.970703125 393.919921875 457 364.634765625 457 c 0
 357.833007812 457 318.546875 435.7890625 282.588867188 404.590820312 c 0
 232.998046875 361.564453125 208.390625 325.801757812 168.702148438 273.146484375 c 1
 146.341796875 290 l 1
 123.982421875 306.853515625 l 1
 162.5625 358.037109375 191.186523438 399.427734375 245.889648438 446.889648438 c 0
 282.453125 478.612304688 324.647460938 513 364.634765625 513 c 0
 425.581054688 513 458.231445312 468.319335938 454.813476562 417.64453125 c 0
 454.030273438 406.030273438 454.689453125 399.983398438 452.55078125 390.002929688 c 0
 427.81640625 274.541992188 403.819335938 149.9921875 380.73828125 33.474609375 c 0
 380.11328125 30.3232421875 379.138671875 24.2822265625 378.978515625 23.2822265625 c 2
 351.328125 27.6923828125 l 1
411.715820312 294 m 1
 389.915039062 311.5703125 l 1
 422.567382812 352.0859375 l 1
 465.443359375 404.462890625 l 2
 500.711914062 444.009765625 561.021484375 502 614.099609375 502 c 0
 624.081054688 502 633.086914062 501.06640625 641.237304688 499.275390625 c 0
 700.385742188 486.280273438 712.838867188 426.557617188 696.732421875 354.822265625 c 0
 674.75 256.919921875 627.634765625 126.63671875 627.634765625 72 c 0
 627.634765625 57.5732421875 630.569335938 47.7080078125 631.45703125 46.3798828125 c 1
 650.51953125 60.435546875 693.900390625 126.420898438 695.98828125 130.033203125 c 1
 720.229492188 116.020507812 l 1
 744.470703125 102.0078125 l 2
 743.3984375 100.15234375 690.579101562 -10 634.634765625 -10 c 0
 577.67578125 -10 571.634765625 46.9423828125 571.634765625 72 c 0
 571.634765625 147.3671875 621.244140625 274.237304688 642.092773438 367.08984375 c 0
 657.233398438 434.522460938 641.702148438 441.837890625 629.220703125 444.580078125 c 0
 625.573242188 445.380859375 620.55859375 446 614.099609375 446 c 0
 599.609375 446 541.338867188 405.213867188 508.01953125 368.06640625 c 2
 466.03515625 316.779296875 l 1
 433.517578125 276.4296875 l 1
 411.715820312 294 l 1
96.701171875 27.767578125 m 1
 69.3994140625 33.978515625 l 2
 69.9677734375 36.478515625 71.6201171875 44.0654296875 72.2822265625 47.5341796875 c 0
 82.36328125 100.348632812 107.995117188 211.953125 120.057617188 271.795898438 c 2
 143.98828125 395.142578125 l 2
 147.83203125 414.954101562 149.426757812 431.479492188 148.82421875 445.955078125 c 0
 148.787109375 446.9296875 148.659179688 448.075195312 148.629882812 448.295898438 c 0
 147.44140625 448.177734375 146.600585938 448.052734375 144.573242188 447.55078125 c 0
 137.521484375 444.94140625 104.455078125 415.912109375 84.771484375 387.0390625 c 1
 61.63671875 402.810546875 l 1
 38.5009765625 418.58203125 l 1
 63.0849609375 454.64453125 97.5673828125 494.211914062 131.5546875 502.018554688 c 0
 148.58984375 506.234375 169.206054688 505.500976562 184.99609375 492.392578125 c 0
 194.576171875 484.439453125 200.274414062 473.493164062 202.865234375 462.59375 c 0
 203.997070312 457.83203125 204.59375 453.014648438 204.78125 448.157226562 c 0
 205.616210938 428.083984375 203.337890625 407.021484375 198.962890625 384.4765625 c 2
 174.994140625 260.930664062 l 2
 162.595703125 199.421875 136.993164062 87.8759765625 127.2890625 37.0341796875 c 0
 126.338867188 32.0576171875 124.732421875 24.7578125 124.00390625 21.556640625 c 2
 96.701171875 27.767578125 l 1
EndSplineSet
Fore
SplineSet
632.318359375 50 m 3
 653.779296875 50 686.318359375 111 709.193359375 155.486328125 c 1
 756.318359375 126 l 1
 733.955078125 75 687.166015625 -10 629.5703125 -10 c 3
 589.279296875 -10 571.413085938 30.0341796875 571.413085938 72.0380859375 c 3
 571.413085938 169.73828125 647.973632812 334.897460938 647.973632812 416.139648438 c 3
 647.973632812 438.439453125 636.663085938 446 618.318359375 446 c 3
 569.186523438 446 437.076171875 300.077148438 425.318359375 253 c 0
 411.059570312 195.908203125 390.56640625 84.689453125 380.420898438 33.474609375 c 0
 377.85546875 20.5224609375 377.462890625 9.4189453125 372.333984375 1 c 1
 368.616210938 0 343.203125 -2 337.526367188 -2 c 1
 334.793945312 -2 320.444335938 -2 319.030273438 -1 c 1
 319.689453125 0.400390625 323.204101562 28.6689453125 324.752929688 37.400390625 c 0
 332.709960938 82.2568359375 347.819335938 159.688476562 357.291992188 204 c 0
 372.98828125 277.41796875 396.318359375 397 398.318359375 415 c 0
 401.806640625 446.39453125 392.606445312 457 369.318359375 457 c 3
 320.805664062 457 184.061523438 307.228515625 175.318359375 264 c 0
 156.471679688 172.8828125 144.083984375 116.693359375 126.971679688 37.0341796875 c 0
 124.1875 24.0537109375 120.744140625 9.408203125 118.999023438 1 c 1
 118.35546875 -1 95.8173828125 0 92.0693359375 0 c 1
 86.0341796875 0 68.7919921875 2 64.626953125 4 c 1
 63.849609375 6.404296875 69.513671875 30.0107421875 70.7412109375 36.4599609375 c 0
 84.4345703125 108.383789062 96.560546875 167.064453125 114.106445312 246.590820312 c 0
 131.806640625 326.814453125 145.416992188 398.696289062 148.318359375 434 c 0
 148.831054688 440.231445312 145.498046875 446 141.318359375 446 c 3
 135.78125 446 86.3330078125 402.24609375 68 355 c 1
 18 384 l 1
 32.8837890625 416.83984375 80.318359375 487 131.15625 502 c 0
 152.03515625 508.16015625 174.659179688 500.56640625 186.204101562 490 c 0
 196.448242188 480.625 206.340820312 460.1484375 205.450195312 437.49609375 c 0
 204.993164062 425.857421875 205.319335938 412.372070312 200.318359375 398 c 1
 266.096679688 465.709960938 314.491210938 513 369.318359375 513 c 3
 424.603515625 513 456.240234375 469.861328125 454.497070312 419.64453125 c 0
 454.15625 409.810546875 454.427734375 399.92578125 452 390 c 1
 479.463867188 423.45703125 555.897460938 503 616.783203125 503 c 3
 693.168945312 503 713.958007812 437.409179688 696.415039062 354.822265625 c 0
 672.034179688 240.036132812 627.318359375 139.043945312 627.318359375 76 c 3
 627.318359375 51.8046875 632.318359375 50 632.318359375 50 c 3
EndSplineSet
Substitution2: "pcap-1" m.pcap
Substitution2: "smcp-1" m.smcp
EndChar
StartChar: n
Encoding: 110 110 13
Width: 527
VWidth: 1159
Flags: HMW
AnchorPoint: "Top" 294.119 537 basechar 0
AnchorPoint: "Bottom" 197.629 -15 basechar 0
LayerCount: 2
Back
SplineSet
429.236328125 86.8369140625 m 1
 452.727539062 71.599609375 l 1
 436.112304688 45.984375 395.0703125 -9 345.328125 -9 c 0
 311.60546875 -9 292.34375 21.6201171875 292.34375 48.6630859375 c 0
 292.34375 89.298828125 321.975585938 197.8515625 341.33984375 288.936523438 c 0
 347.595703125 317.202148438 354.243164062 347.58984375 361.579101562 383.096679688 c 0
 374.17578125 444.060546875 363.4609375 445.043945312 353.640625 446.912109375 c 0
 350.44921875 447.51953125 345.985351562 448 340.23828125 448 c 0
 331.00390625 448 295.021484375 430.474609375 264.029296875 401.858398438 c 0
 240.284179688 378.11328125 204.125976562 340.740234375 170.796875 295.413085938 c 1
 148.23828125 312 l 1
 125.680664062 328.586914062 l 1
 162.071289062 378.078125 200.157226562 417.19921875 225.151367188 442.176757812 c 0
 260.973632812 475.493164062 301.786132812 504 340.23828125 504 c 0
 349.045898438 504 356.952148438 503.287109375 364.108398438 501.92578125 c 0
 424.0234375 490.524414062 428.8125 431.737304688 416.420898438 371.764648438 c 0
 409.041015625 336.045898438 402.2265625 304.892578125 396.06640625 277.063476562 c 0
 376.958984375 187.182617188 348.34375 69.673828125 348.34375 48.6630859375 c 0
 348.34375 48.33984375 348.346679688 48.234375 348.438476562 47.7216796875 c 1
 362.565429688 52.6533203125 393.69140625 83.4892578125 405.745117188 102.073242188 c 1
 429.236328125 86.8369140625 l 1
66.462890625 397.7421875 m 1
 42.67578125 412.51171875 l 1
 69.3515625 455.474609375 114.336914062 504.614257812 150.892578125 503.993164062 c 0
 215.120117188 502.626953125 200.290039062 423.947265625 192.165039062 385.643554688 c 0
 184.8046875 350.943359375 121.448242188 43.9482421875 116.247070312 21.642578125 c 1
 88.978515625 28 l 1
 61.7099609375 34.357421875 l 1
 66.3017578125 54.0517578125 130.052734375 362.698242188 137.383789062 397.263671875 c 0
 141.293945312 415.696289062 143.356445312 430.59375 143.469726562 441.358398438 c 1
 128.475585938 430.069335938 104.60546875 406.091796875 90.2509765625 382.97265625 c 1
 66.462890625 397.7421875 l 1
EndSplineSet
Fore
SplineSet
143.119140625 434 m 1
 143.762695312 435.559570312 141.91015625 438 140.119140625 438 c 3
 135.99609375 438 94.6611328125 396.689453125 70.119140625 354 c 1
 28 382 l 1
 47.005859375 440 118.28125 504 143.979492188 504 c 3
 174.267578125 504 183.682617188 493.823242188 191.658203125 482 c 0
 195.908203125 475.700195312 198.280273438 459.971679688 199.604492188 440.49609375 c 0
 200.233398438 431.244140625 197.774414062 410.282226562 193.119140625 393 c 1
 227.967773438 432.498046875 290.592773438 504 357.119140625 504 c 3
 453.817382812 504 455.971679688 431.4609375 441.119140625 357 c 0
 420.376953125 253.012695312 394.662109375 148.258789062 379.979492188 76 c 0
 376.749023438 60.1015625 377.370117188 50 380.244140625 50 c 3
 382.596679688 50 399.98046875 60.3759765625 407.119140625 67 c 0
 427.412109375 89.96484375 448.888671875 119.912109375 459 134 c 1
 507.119140625 118 l 1
 492.81640625 88.033203125 474.068359375 57.732421875 446.412109375 31 c 0
 425.720703125 11 404.79296875 -9 374.208984375 -9 c 3
 341.09375 -9 320.118164062 18.1181640625 320.118164062 48 c 3
 320.118164062 96.89453125 390.889648438 355.958007812 390.889648438 398 c 3
 390.889648438 437.6640625 385.100585938 448 358.119140625 448 c 3
 305.909179688 448 175.62890625 301.560546875 166.119140625 258 c 0
 146.430664062 167.810546875 138.294921875 126.34765625 120.0625 38 c 0
 117.47265625 25.4501953125 114.418945312 11.611328125 112.580078125 0 c 1
 107.580078125 0 77.580078125 0 75.580078125 0 c 1
 74.080078125 0 56.080078125 0 54.580078125 0 c 1
 56.06640625 8 60.130859375 26.056640625 62.8525390625 39 c 0
 78.55078125 113.661132812 99.2509765625 213.90625 115.119140625 291 c 0
 123.352539062 330.998046875 135.80078125 387.735351562 143.119140625 434 c 1
EndSplineSet
Substitution2: "pcap-1" n.pcap
Substitution2: "smcp-1" n.smcp
EndChar
StartChar: p
Encoding: 112 112 15
Width: 475
VWidth: 1159
Flags: HMW
AnchorPoint: "Top" 327.32 537 basechar 0
AnchorPoint: "Bottom" 89.3232 -156 basechar 0
LayerCount: 2
Back
SplineSet
175.13671875 515.665039062 m 1
 201.963867188 507.647460938 l 1
 195.138671875 484.809570312 102.837890625 68.853515625 95.02734375 31.298828125 c 0
 83.720703125 -23.0673828125 69.91015625 -89.5087890625 65.794921875 -127.05078125 c 1
 37.9619140625 -124 l 1
 10.12890625 -120.94921875 l 1
 14.818359375 -78.1689453125 28.8349609375 -11.947265625 40.201171875 42.701171875 c 0
 48.6728515625 83.4375 139.110351562 492.903320312 148.309570312 523.682617188 c 1
 175.13671875 515.665039062 l 1
80.9619140625 411 m 1
 74.109375 438.1484375 l 1
 117.575195312 449.119140625 154.029296875 460.55078125 192.064453125 473.421875 c 0
 232.205078125 487.005859375 285.598632812 505.080078125 334.572265625 505.080078125 c 0
 340.383789062 505.080078125 346.142578125 504.580078125 351.78125 503.607421875 c 0
 419.924804688 491.849609375 475.653320312 408.390625 453.861328125 302.278320312 c 0
 424.696289062 160.267578125 292.541015625 40.3662109375 182.090820312 40.3662109375 c 0
 145.296875 40.3662109375 115.807617188 42.7060546875 89.5791015625 48.9326171875 c 2
 68.3291015625 53.9775390625 l 1
 74.796875 81.220703125 l 1
 81.2646484375 108.463867188 l 1
 102.514648438 103.418945312 l 2
 122.474609375 98.6796875 147.650390625 96.3662109375 182.090820312 96.3662109375 c 0
 256.1796875 96.3662109375 374.338867188 193.43359375 399.005859375 313.543945312 c 0
 416.270507812 397.609375 369.870117188 443.659179688 342.259765625 448.422851562 c 0
 339.727539062 448.859375 337.192382812 449.080078125 334.572265625 449.080078125 c 0
 299.357421875 449.080078125 249.453125 433.72265625 210.015625 420.376953125 c 0
 171.235351562 407.25390625 133.043945312 395.267578125 87.814453125 383.8515625 c 1
 80.9619140625 411 l 1
-9.9326171875 -141.780273438 m 1
 -14.6826171875 -114.186523438 l 1
 15.251953125 -109.033203125 42.9541015625 -107 70.7568359375 -107 c 0
 104.590820312 -107 125.61328125 -106.998046875 163.104492188 -107.576171875 c 1
 162.672851562 -135.573242188 l 1
 162.240234375 -163.5703125 l 1
 125.078125 -162.99609375 104.645507812 -163 70.7568359375 -163 c 0
 45.6435546875 -163 21.521484375 -164.77734375 -5.1826171875 -169.374023438 c 1
 -9.9326171875 -141.780273438 l 1
EndSplineSet
Fore
SplineSet
45.1337890625 64.947265625 m 0
 75.1279296875 203.134765625 105.821289062 336.841796875 116.401367188 385.034179688 c 0
 117.061523438 388.041015625 115.688476562 389.431640625 114.356445312 390.287109375 c 1
 105.610351562 389.272460938 55.6201171875 373.030273438 43.2822265625 371 c 1
 40.1279296875 428.228515625 l 1
 141.282226562 457 130.282226562 445 151.3203125 538 c 1
 216.06640625 546.13671875 213.965820312 556.223632812 193.793945312 474.21484375 c 1
 232.255859375 486.41796875 285.849609375 505.080078125 334.892578125 505.080078125 c 3
 411.00390625 505.080078125 477.489257812 419.588867188 454.3203125 303 c 0
 424.051757812 150.686523438 285.078125 40.7177734375 179.984375 40.3662109375 c 1
 154.659179688 39.3662109375 120.171875 42.3662109375 99.2373046875 46.3662109375 c 1
 87.48046875 -4.59375 72.78125 -78.3994140625 69.056640625 -103 c 1
 69.1337890625 -105.857421875 70.1923828125 -106.991210938 76.376953125 -107 c 0
 106.48046875 -107.04296875 156.6484375 -107.75 184.7421875 -108 c 1
 177.688476562 -164 l 1
 123.739257812 -163 101.879882812 -163 61.0771484375 -163 c 3
 43.69921875 -163 -2.7255859375 -167.333007812 -23.6796875 -174 c 1
 -23.3017578125 -116 l 1
 -10.16796875 -113.412109375 1.59765625 -112.434570312 10.6787109375 -106.94140625 c 0
 13.1025390625 -105.474609375 15.421875 -86.650390625 18.5224609375 -66.705078125 c 0
 22.4208984375 -41.6279296875 33.4560546875 11.1484375 45.1337890625 64.947265625 c 0
336.282226562 449 m 3
 284.388671875 449 206.622070312 419.046875 179.282226562 410 c 1
 110.3203125 102 l 1
 129.366210938 98.78125 151.940429688 96.3662109375 182.411132812 96.3662109375 c 3
 246.77734375 96.3662109375 371.313476562 184.375 398.28125 307 c 0
 417.96484375 396.502929688 369.798828125 449 336.282226562 449 c 3
EndSplineSet
Substitution2: "pcap-1" p.pcap
Substitution2: "smcp-1" p.smcp
EndChar
StartChar: v
Encoding: 118 118 21
Width: 470
VWidth: 1159
Flags: HMW
AnchorPoint: "Top" 289.573 537 basechar 0
AnchorPoint: "Bottom" 106.897 -15 basechar 0
LayerCount: 2
Back
SplineSet
354.657226562 463.68359375 m 2
 347.364257812 475.634765625 347.884765625 474.78125 347.364257812 475.634765625 c 2
 332.778320312 499.53515625 l 1
 353.6953125 512.30078125 370.298828125 516.896484375 383.29296875 516.896484375 c 0
 438.168945312 516.896484375 471.719726562 482.49609375 471.719726562 434 c 0
 471.719726562 318.678710938 316.619140625 144.614257812 229.064453125 67.0029296875 c 0
 208.478515625 48.7548828125 179.228515625 22.2998046875 160.87109375 -0.208984375 c 2
 129.852539062 -38.2412109375 l 1
 112.896484375 7.814453125 l 1
 111.846679688 10.6669921875 l 1
 110.247070312 15.0107421875 l 1
 110.130859375 19.638671875 l 2
 106.545898438 162.495117188 104.837890625 291.881835938 102.953125 434.237304688 c 1
 90.3154296875 421.106445312 78.3525390625 406.421875 66.736328125 391.540039062 c 1
 44.6640625 408.768554688 l 1
 22.591796875 425.997070312 l 1
 45.083984375 454.811523438 77.001953125 507.043945312 119.512695312 507.043945312 c 0
 164.931640625 507.043945312 158.719726562 453.447265625 158.719726562 452.185546875 c 0
 160.430664062 323.203125 161.868164062 209.622070312 164.625976562 84.224609375 c 1
 173.161132812 92.1787109375 184.221679688 102.086914062 191.91796875 108.909179688 c 0
 276.80859375 184.16015625 415.719726562 357.7890625 415.719726562 434 c 0
 415.719726562 454.21875 413.630859375 460.633789062 383.895507812 460.895507812 c 0
 382.392578125 460.672851562 372.962890625 458.455078125 361.950195312 451.733398438 c 1
 354.657226562 463.68359375 l 2
EndSplineSet
Fore
SplineSet
165.573242188 84 m 1
 297 200.408203125 417 363.74609375 417 434 c 3
 417 448.748046875 410.65625 460.737304688 387.814453125 460.737304688 c 3
 380.3828125 460.737304688 362.97265625 455.737304688 344.510742188 437.737304688 c 1
 315.352539062 486.611328125 l 1
 342.390625 508.407226562 368.399414062 516.896484375 384.146484375 516.896484375 c 3
 439.875976562 516.896484375 472.573242188 483.701171875 472.573242188 434 c 3
 472.573242188 319.313476562 317.072265625 144.259765625 229.91796875 67.0029296875 c 0
 204.987304688 44.9033203125 169.529296875 13.2373046875 151.490234375 -14 c 1
 112.59375 -3.951171875 l 1
 108.348632812 143.666015625 103.870117188 273.828125 103.870117188 422.904296875 c 3
 103.870117188 424.888671875 103.655273438 429.721679688 101.848632812 429.721679688 c 3
 95.0703125 429.721679688 65.8125 388.724609375 48.4619140625 359.69921875 c 1
 12 411.197265625 l 1
 29.6083984375 435.483398438 75.025390625 507.043945312 118.366210938 507.043945312 c 3
 153.014648438 507.043945312 159.573242188 482.827148438 159.573242188 452 c 3
 159.573242188 328.397460938 162.419921875 180.491210938 165.573242188 84 c 1
EndSplineSet
Substitution2: "pcap-1" v.pcap
Substitution2: "smcp-1" v.smcp
EndChar
StartChar: x
Encoding: 120 120 23
Width: 541
VWidth: 1159
Flags: HW
AnchorPoint: "Top" 346.849 537 basechar 0
AnchorPoint: "Bottom" 212.757 -15 basechar 0
LayerCount: 2
Back
SplineSet
477.752929688 105.029296875 m 1
 501.3984375 90.03125 l 1
 467.313476562 36.2958984375 428.7265625 -9.83984375 368.439453125 -9.83984375 c 0
 276.876953125 -9.83984375 270.047851562 126.01171875 254.93359375 199.0078125 c 2
 235.747070312 309.466796875 l 2
 220.432617188 384.776367188 208.995117188 441.54296875 199.313476562 452.969726562 c 1
 173.83203125 452.112304688 144.201171875 432.224609375 115.213867188 354.158203125 c 1
 88.96484375 363.905273438 l 1
 62.7158203125 373.651367188 l 1
 94.236328125 458.540039062 138.518554688 509 201.1484375 509 c 0
 273.399414062 509 275.51953125 394.608398438 290.779296875 319.869140625 c 2
 309.952148438 209.482421875 l 2
 330.829101562 108.205078125 345.674804688 46.16015625 368.439453125 46.16015625 c 0
 395.32421875 46.16015625 420.461914062 66.9794921875 454.108398438 120.026367188 c 1
 477.752929688 105.029296875 l 1
504.221679688 414.307617188 m 1
 490.727539062 418.0390625 l 2
 491.288085938 420.064453125 491.456054688 422.672851562 491.323242188 430.745117188 c 0
 489.116210938 436.411132812 477.020507812 450 458.030273438 450 c 0
 447.046875 450 412.532226562 413.7109375 332.837890625 293.454101562 c 2
 266.751953125 191.220703125 l 2
 178.416992188 54.708984375 134.072265625 -10 69.474609375 -10 c 0
 47.2041015625 -10 26.26171875 -5.3779296875 12.0673828125 10.697265625 c 0
 -2.05078125 26.685546875 -2.9580078125 45.330078125 -3.4140625 58.919921875 c 0
 -3.8583984375 72.154296875 -1.4599609375 87.259765625 4.2919921875 106.749023438 c 1
 31.1474609375 98.8232421875 l 1
 58.001953125 90.8974609375 l 1
 53.3251953125 75.05078125 52.4013671875 65.359375 52.5546875 60.7978515625 c 0
 52.7900390625 53.779296875 53.67578125 49.19921875 54.1025390625 47.931640625 c 0
 55.92578125 47.1904296875 60.5166015625 46 69.474609375 46 c 0
 88.9931640625 46 126.327148438 77.291015625 219.72265625 221.622070312 c 2
 285.981445312 324.122070312 l 2
 358.573242188 433.662109375 396.634765625 506 458.030273438 506 c 0
 508.409179688 506 546.848632812 468.938476562 547.305664062 432.432617188 c 0
 547.374023438 426.90234375 548.291992188 416.091796875 544.702148438 403.111328125 c 1
 517.71484375 410.575195312 l 1
 504.221679688 414.307617188 l 1
EndSplineSet
Fore
SplineSet
301.13671875 262 m 1
 333.358398438 88.7900390625 348.69140625 46 369.231445312 46 c 3
 402.22265625 46 427.267578125 80.5869140625 458.982421875 128.404296875 c 1
 505.59765625 98.087890625 l 1
 470.873046875 43.08203125 432.041015625 -9.83984375 369.139648438 -9.83984375 c 3
 281.336914062 -9.83984375 270.186523438 117.525390625 255.848632812 198 c 1
 255.686523438 199.0703125 248.099609375 241.682617188 247.848632812 244 c 1
 226.233398438 392 210.375 453 198.848632812 453 c 3
 158.01953125 453 127.091796875 392.46875 114.87890625 348.094726562 c 1
 61.3203125 367.931640625 l 1
 89.267578125 458.057617188 138.549804688 509 202.848632812 509 c 3
 272.790039062 509 277.034179688 392.360351562 292.453125 316 c 1
 292.797851562 313.141601562 300.864257812 262.930664062 301.13671875 262 c 1
266.6171875 190 m 1
 161.646484375 23.390625 123.874023438 -10 67.1748046875 -10 c 3
 13.671875 -10 -1.56640625 24.7236328125 -2.7138671875 58.919921875 c 0
 -3.3193359375 73.2734375 1.259765625 90.814453125 13.6083984375 117.19921875 c 1
 65.8486328125 103 l 1
 50.2333984375 53.9169921875 49.40234375 46 70.2333984375 46 c 3
 90.6083984375 46 130.233398438 78 247.848632812 264 c 1
 248.524414062 265.116210938 285.237304688 321.297851562 285.938476562 323 c 1
 358.599609375 432.552734375 398.762695312 506 458.73046875 506 c 3
 495.938476562 506 547.166015625 481.072265625 547.991210938 429.034179688 c 0
 548.234375 416.0625 543.452148438 403.650390625 537.848632812 392 c 1
 485.252929688 405.719726562 l 1
 503.256835938 445.194335938 469.352539062 450 459.848632812 450 c 3
 441.8515625 450 388.3046875 376.620117188 300.848632812 243 c 1
 300.216796875 242.123046875 267.27734375 190.966796875 266.6171875 190 c 1
EndSplineSet
Substitution2: "pcap-1" x.pcap
Substitution2: "smcp-1" x.smcp
EndChar
StartChar: asciitilde
Encoding: 126 126 339
Width: 533
Flags: HW
LayerCount: 2
Fore
SplineSet
28.2340700037 246.486557305 m 1
 75.6788687059 303.391297318 139.306863405 356 175 356 c 3
 233.747384638 356 330.814251973 252 366 252 c 3
 372.998170206 252 429.353777925 300.905356989 462 347 c 1
 504.33203125 310.140625 l 1
 463.138146986 257.591087751 402 194 367 194 c 3
 306.67539267 194 208.375271912 299 175 299 c 3
 162.949244044 299 94.9417939594 244.212279827 70 210 c 1
 28.2340700037 246.486557305 l 1
EndSplineSet
Position2: "cpsp-1" dx=0 dy=0 dh=50 dv=100
Position2: "'case' vertical ajustments for all-caps-1" dx=0 dy=90 dh=0 dv=0
EndChar
StartChar: germandbls
Encoding: 223 223 327
Width: 498
VWidth: 1159
Flags: HW
LayerCount: 2
Back
SplineSet
341.706367756 250.590553172 m 1025
320.916976437 423.317347974 m 1
 345.340778316 409.625090973 l 1
 339.818016842 399.773769014 338.27825476 392.436831363 338.76171875 386.748046875 c 0
 342.528984334 342.419694714 364.80851087 321.084936508 402.688476562 283.75 c 0
 445.011342493 242.036089137 471.143464612 202.614031273 473.108398438 157.958007812 c 0
 476.018854229 91.8136011395 438.653092584 49.3415132374 397.046574791 24.4636975499 c 1
 382.677275071 48.4954104629 l 1
 368.30797535 72.5271233759 l 1
 399.607911633 91.242317225 418.98517491 114.074043077 417.16253164 155.496303487 c 0
 416.164659986 178.174410713 402.259442237 205.544586018 363.378467407 243.866128821 c 0
 327.452815901 279.274870447 288.599068405 315.686287222 282.962860654 382.00595502 c 0
 281.235821088 402.32754275 287.502645034 420.972591364 296.493174558 437.009604975 c 1
 320.916976437 423.317347974 l 1
409.544161212 516.464742779 m 1
 428.382742342 495.749823976 l 1
 394.218606065 464.68024272 358.929081137 433.863465174 345.340778894 409.625092005 c 1
 320.916976437 423.317347974 l 1
 296.493173979 437.009603943 l 1
 318.204528495 475.737614504 357.886042515 507.332886561 390.705580083 537.179661582 c 1
 409.544161212 516.464742779 l 1
-111.948242188 -143.380859375 m 1
 -119.15869031 -116.325186442 l 1
 -87.5420452461 -107.899220487 -67.3426688503 -92.6515768969 -47.017578125 -60 c 0
 16.7717023764 42.475340732 76.5241912315 405.599238652 93.490234375 493.169921875 c 0
 119.380966868 626.805626701 175.195150839 670.594492814 257.4453125 713.6796875 c 0
 288.494790952 729.944370718 336.305280508 749 368.948242188 749 c 0
 379.347135911 749 389.194088428 748.083940183 398.453713148 746.357814277 c 0
 476.188315479 731.866977457 515.601405292 659.333733455 500.459481229 591.453428412 c 0
 491.752168306 552.419085425 458.707217559 523.327537566 428.382742544 495.74982416 c 1
 409.544161212 516.464742779 l 1
 390.70557988 537.179661398 l 1
 421.450201547 565.139464979 442.835257343 590.342214687 445.802812969 603.645582231 c 0
 454.705165148 643.554274081 433.136999252 682.927657636 388.191303707 691.306175315 c 0
 382.444931832 692.377380861 376.069057917 693 368.948242188 693 c 0
 357.539573075 693 307.905012327 676.894049697 283.430545028 664.073561966 c 0
 206.749844235 623.90582423 171.487447265 601.334341819 148.467928166 482.518481342 c 0
 131.684816888 395.892005813 77.625484246 34.2670593795 0.524004117489 -89.5938837918 c 0
 -25.5200136817 -131.432725319 -59.5064753024 -158.382199812 -104.737794065 -170.436532308 c 1
 -111.948242188 -143.380859375 l 1
351.133964094 33.2735281736 m 1
 361.118903093 7.11438076447 l 1
 351.009459822 3.25560919209 341.16585084 0.22414681558 332.208007812 -2.00390625 c 0
 308.578493552 -7.88119294941 279.330673348 -9.166015625 249.724609375 -9.166015625 c 0
 230.455711507 -9.166015625 209.606510772 -7.96423638385 194.675319134 -6.32437633627 c 1
 197.732117243 21.5082661061 l 1
 200.788915352 49.3409085484 l 1
 213.031445031 47.99633835 232.919468869 46.833984375 249.724609375 46.833984375 c 0
 277.08716356 46.833984375 304.051852588 48.6991351724 318.691158226 52.3403186249 c 0
 325.390874124 54.0067156023 333.267894297 56.4244502373 341.149025094 59.4326755828 c 1
 351.133964094 33.2735281736 l 1
EndSplineSet
Fore
SplineSet
500.576171875 592 m 0
 481.298828125 501.306640625 335.255895054 428.000086038 338.76171875 386.748046875 c 0
 342.55859375 342.071289062 364.526725112 321.362667841 402.688476562 283.75 c 0
 444.97265625 242.07421875 471.145860296 202.559585823 473.108398438 157.958007812 c 0
 477.571289062 56.5322265625 388.782175235 12.0675891719 332.208007812 -2.00390625 c 0
 308.819335938 -7.8212890625 279.0859375 -9.166015625 249.724609375 -9.166015625 c 3
 216.2578125 -9.166015625 183.083007812 -6.1083984375 162.791992188 -1 c 1
 167.450616876 12.2336425781 174.139130421 37.4403159524 176.02734375 51.9345703125 c 1
 204 58 l 1
 217.087399835 50.6671005403 236.782383374 47 250 47 c 3
 369.425699896 47 420.219656099 99.6974441418 418.000976562 153 c 0
 416.675976772 184.832391377 389.393175646 216.606824354 361 245 c 0
 308 298 271.20783819 347.58359012 286 412 c 0
 299.332925038 470.061774553 431.540704652 541.29799477 447 607 c 0
 455.94427191 645.013155617 430.074953184 692 370 692 c 3
 340.315789474 692 215 653 170 563 c 0
 143 509 93.2426811143 97.3515626047 19.84765625 -53 c 0
 -4.79663877379 -103.484460942 -38.6364226906 -147.104492188 -89.380859375 -171 c 1
 -93.3300995394 -171.169921875 -92.9352596507 -171.33984375 -109.522460938 -171.33984375 c 3
 -118.458709499 -171.33984375 -132.075934982 -173.46819173 -137.182617188 -174 c 1
 -143 -117.360351562 l 1
 -96.765625 -117.287794647 -69.3622718794 -95.8960014605 -47.017578125 -60 c 0
 16.5615234375 42.1376953125 76.6018253228 405.99994908 93.490234375 493.169921875 c 0
 119.487304688 627.354492188 174.649805127 670.308823756 257.4453125 713.6796875 c 0
 287.584960938 729.467773438 337.467773438 749 368.948242188 749 c 3
 467.076171875 749 516.572471612 667.257160923 500.576171875 592 c 0
EndSplineSet
Substitution2: "pcap-1" uni1E9E.pcap
Substitution2: "smcp-1" uni1E9E.smcp
EndChar
StartChar: eth
Encoding: 240 240 453
Width: 471
UnlinkRmOvrlpSave: 1
Flags: HW
LayerCount: 2
Fore
SplineSet
354 309 m 1
 322 347 236.429148452 359 222 359 c 3
 198 359 92 331.004882812 92 226 c 3
 92 129.916992188 150.98046875 44 252 44 c 3
 332.374023438 44 366 128.150390625 366 202 c 3
 366 372.223208516 223 618 65 700 c 1
 69.0966796875 706.58203125 77.2373046875 727.453125 77.2373046875 727.453125 c 1
 260.283740169 675.166289781 435 439.719447105 435 235 c 3
 435 113.962890625 360.284179688 -5 193 -5 c 3
 102.911132812 -5 28 65.923828125 28 171 c 3
 28 326.389648438 176 405 264 405 c 3
 280.100844176 405 312.529887067 398.835864585 329 392 c 1
 354 309 l 1
EndSplineSet
Refer: 1961 58113 N 0.284488 0.177084 -0.547233 0.872389 104.756 489.958 2
Substitution2: "pcap-1" eth.pcap
Substitution2: "smcp-1" eth.smcp
EndChar
StartChar: Eng
Encoding: 330 330 468
Width: 836
Flags: HW
LayerCount: 2
Fore
SplineSet
628 -189 m 0
 589 -216 552 -241 493 -241 c 3
 461 -241 411 -230 386 -208 c 1
 387.224489796 -178.046875 386 -178.046875 446 -137 c 1
 485 -155 508.349151158 -179 554 -179 c 3
 640.616503398 -179 676.265625 -76.9678502479 676.265625 -13.4755859375 c 3
 676.265625 48.2626834417 640.03404243 103.097021502 604 139.090820312 c 0
 459.896 279.614068929 313.026 416.065410818 161 550 c 1
 152 154 l 2
 149.672574689 52.4216563039 186 44.674796748 277 35 c 1
 269 -11 l 1
 229.225006617 -2.55029543162 191.72886241 0.193359375 156.584960938 0.193359375 c 0
 107.789937357 0.193359375 63.5294692282 -6.59829339283 24 -10 c 1
 19 34 l 1
 77 34 94.2505340003 45.0370931165 97 93 c 0
 106 246.782786885 108.836453881 409.412965035 105 571 c 0
 104 614 69 649 12 648 c 1
 14 692 l 1
 53 688 104.987806691 684 146 684 c 0
 161 684 162.224003945 680.217054625 169 673 c 0
 318.792 516.927864326 473.300161891 367.004316767 636 223.227539062 c 0
 659.155 202.310678333 682.86 176.9488472 699 154 c 1
 708 281.98180798 710.135155394 409.964631854 709 545 c 0
 708 667 656 656 597 663 c 1
 602 701 l 1
 658.737273127 693.806776525 706.285370634 691.3984375 751.0625 691.3984375 c 0
 778.931628397 691.3984375 805.747514379 692.483615703 833 694 c 1
 837 655 l 1
 788 649 766.708243919 651.026764413 763 609 c 0
 748 442.189493433 745 264.596148366 745 86 c 0
 745 63 747 43 747 0 c 3
 747 -86.94 692.388915009 -144.42305884 628 -189 c 0
EndSplineSet
Position2: "cpsp-1" dx=0 dy=0 dh=50 dv=100
Substitution2: "c2pc-1" eng.pcap
Substitution2: "c2sc-1" eng.smcp
EndChar
StartChar: uni0194
Encoding: 404 404 1365
Width: 749
UnlinkRmOvrlpSave: 1
Flags: HW
LayerCount: 2
Fore
SplineSet
125 608 m 0
 98 636 76 636 17 652 c 1
 21 692 l 1
 78 686 222 679 280 690 c 1
 285 651 l 1
 285 651 263 649 248 649 c 0
 230 649 214.844009904 638.898043821 226 622 c 0
 325.378973408 458.754267846 530 72.883537374 530 -80 c 3
 530 -160.120526714 495.109999894 -242 395 -242 c 3
 309.791732073 -242 272 -174.480377907 272 -94 c 3
 272 7.25500959342 451.830860347 420.853785411 547 589 c 0
 559 609 565 633 539 643 c 0
 527 648 508 650 492 652 c 1
 494 691 l 1
 532 685 675 674 740 690 c 1
 740 647 l 1
 675 645 649.293842756 627.713645513 622 600 c 0
 508.323947346 477.883142293 316 -5.88164981191 316 -86 c 3
 316 -139.983642578 343.017907694 -190 395 -190 c 3
 432.930571222 -190 448 -133.524263822 448 -84 c 3
 448 25.3077460043 246.832662671 471.233665558 125 608 c 0
EndSplineSet
EndChar
StartChar: Uhorn
Encoding: 431 431 760
Width: 775
UnlinkRmOvrlpSave: 1
Flags: HW
AnchorPoint: "Bottom" 298.932 -15 basechar 0
AnchorPoint: "Ogonek" 348.583 10 basechar 0
AnchorPoint: "Top" 491.495 679 basechar 0
AnchorPoint: "Horn" 764 595 mark 0
LayerCount: 2
Back
SplineSet
784 642 m 0xc6
 761.478546471 636.66795393 740.04456668 635.741559345 736 590 c 0xc6
 735.091705198 579.727744928 731.787772597 469.658489995 729 255 c 0
 728 178 703.339117404 117.635735037 662 74 c 0
 608 17 523 -10 412 -10 c 3
 299 -10 220.090904911 16.0950453125 172 62 c 0
 128 104 109 163 109 236 c 0xea
 109 266.168539326 114 578.915730337 114 594 c 0
 114 638 102 641 20 650 c 1
 25 690 l 1
 55 686.5 103.25 684.75 154.125 684.75 c 0
 205 684.75 258.5 686.5 299 690 c 1
 303 654 l 1
 235 648 204 646.009090158 204 591 c 0xd2
 204 583.958083832 196 287.191616766 196 255 c 0
 196 196 207.684535021 144.717092872 240 109 c 0
 278 67 345 44 453 44 c 3
 479 44 562.229152898 44.763500117 619 100 c 0
 656 136 668.983205589 181.001106759 674 257 c 0xea
 680 347.893371758 678.9219485 497.10161583 675 589 c 0
 673 635.863636364 645 650.568181818 579 652 c 1
 581 692 l 1
 621.355554481 685.58960168 705.122701859 680.796875 775.796875 680.796875 c 3
 803.822832579 680.796875 835.9140625 687.672407215 835.9140625 719.4453125 c 3
 835.9140625 734.991660599 824.343297353 747.24382169 805.458984375 760.080078125 c 1
 817.774221442 790.721679688 842.434890552 810 869 810 c 3
 906.495832074 810 931.1015625 781.841796875 931.1015625 752.943359375 c 3
 931.1015625 671.477853735 849.800683128 657.57858037 784 642 c 0xc6
EndSplineSet
Fore
Refer: 759 58038 N 1 0 0 1 941 0 2
Refer: 53 85 N 1 0 0 1 0 0 2
Position2: "cpsp-1" dx=0 dy=0 dh=50 dv=100
Substitution2: "c2pc-1" uhorn.pcap
Substitution2: "c2sc-1" uhorn.smcp
EndChar
StartChar: uni01B2
Encoding: 434 434 1971
Width: 747
Flags: HW
AnchorPoint: "Top" 405 699 basechar 0
AnchorPoint: "Bottom" 384 -15 basechar 0
LayerCount: 2
Fore
SplineSet
706 462 m 3
 706 197 472 -10 288 -10 c 3
 161.560337972 -10 99 80.0090957253 99 208 c 3
 99 241 104 578 104 594 c 0
 104 638 92 641 10 650 c 1
 15 690 l 1
 75 683 208 683 289 690 c 1
 293 654 l 1
 225 648 194 646 194 591 c 0
 194 583 186 262 186 227 c 3
 186 123.880830821 220.422871704 50 329 50 c 3
 438 50 650 196 650 443 c 3
 650 606 555 621 496 621 c 1
 494 625 491 629 491 639 c 3
 491 664 528 708 537 717 c 1
 640 717 706 591 706 462 c 3
EndSplineSet
EndChar
StartChar: uni0223
Encoding: 547 547 1750
Width: 505
UnlinkRmOvrlpSave: 1
Flags: HW
LayerCount: 2
Fore
SplineSet
142.771484375 632.404296875 m 1
 136.000137022 620.896141503 128.428710938 604.550367327 128.428710938 581.482421875 c 3
 128.428710938 486.147181428 195.891052506 443.467043117 267.124023438 429 c 0
 377.449604451 406.593452631 473 325.307519939 473 208.216796875 c 3
 473 77.0469727635 378.797699162 -10 253.713867188 -10 c 3
 138.817848132 -10 32 62.454288434 32 199.11328125 c 3
 32 305.616637844 114.681038842 385.9549512 193.999997812 412.166772416 c 1
 208.777417728 421.472852403 223.438476562 425.19921875 237.42578125 427 c 1
 322.020507812 432.524414062 374.314453125 493.683927903 374.314453125 539.088867188 c 3
 374.314453125 580.888505508 368.510036426 610.212428847 358 634.676757812 c 1
 387 646 l 1
 408.098728073 635.650858628 434 599.532139883 434 559.005859375 c 3
 434 490.835593766 374.994140625 429.026367188 288 404.080078125 c 1
 273.189453125 396.063476562 257.568520686 391.954942899 241.2890625 388 c 1
 175.28783652 379.478857291 108.057617188 315.930882685 108.057617188 225.57421875 c 3
 108.057617188 127.971132886 172.297311821 28.341796875 266.314453125 28.341796875 c 3
 380.75820258 28.341796875 393.942382812 138.733310856 393.942382812 186.11328125 c 3
 393.942382812 280.7265625 328.320447516 369.017057706 221.077148438 387.515625 c 0
 135.148225323 402.33764167 72.0576171875 466.737304688 72.0576171875 545.581054688 c 3
 72.0576171875 599.096174571 99.5263996359 628.612213256 117.713867188 643 c 1
 142.771484375 632.404296875 l 1
EndSplineSet
Substitution2: "pcap-1" uni0223.pcap
Substitution2: "smcp-1" uni0223.smcp
EndChar
StartChar: uni0292
Encoding: 658 658 1353
Width: 424
Flags: HW
AnchorPoint: "Top" 210.5 465 basechar 0
LayerCount: 2
Fore
SplineSet
418 -113 m 3
 418 -180.474609375 375.249023438 -253.1640625 315 -301 c 0
 276 -329 239 -353 180 -353 c 3
 133.64453125 -353 61.21484375 -335 25 -299 c 1
 26 -272 25 -272 74 -235 c 1
 130.333007812 -262 175.111328125 -298 230 -298 c 3
 323.27734375 -298 361 -186.76953125 361 -117 c 3
 361 -4.322265625 256.768554688 68.4931640625 165.169921875 68.4931640625 c 3
 134.966796875 68.4931640625 104.28515625 62.6162109375 76 50 c 1
 69 80 l 1
 152.599609375 164.823242188 235.38671875 262 306 360 c 1
 275.876953125 361 247.123046875 362 217 362 c 3
 177.34765625 362 141.844726562 361.19921875 103 357 c 0
 66 353 42 334 32 303 c 1
 6 311 l 1
 42 412 l 1
 61.115234375 400 86.3115234375 395 201 395 c 3
 296.874023438 395 375.03125 394 399 401 c 1
 409 381 l 1
 337.888671875 298.025390625 255.780273438 214.317382812 192 124 c 1
 201.612304688 125.752929688 211.33984375 126.625976562 221.081054688 126.625976562 c 3
 318.807617188 126.625976562 418 44.87109375 418 -113 c 3
EndSplineSet
EndChar
StartChar: uni0294
Encoding: 660 660 1973
Width: 262
Flags: HW
LayerCount: 2
Fore
SplineSet
160 283 m 3
 160 206.666666667 161.065849207 88.5894040254 166 54 c 0
 168.183759552 39.025648788 187.153477109 35.7116307227 198 33 c 0
 214 29 232 28 246 27 c 1
 241 -7 l 1
 202 -1 158 4 116 4 c 3
 86 4 40 -1 10 -5 c 1
 8 28 l 1
 19 29 34.1817100136 30.1778373948 45 33 c 0
 68 39 80.1108857894 48.0777325584 83 76 c 0
 88 131.414141414 91 217.732323232 91 287 c 3
 91 376.025948344 160.105936136 379.848716935 222 418.352539062 c 0
 243.999999408 432.038569856 274 461.772250265 274 530 c 3
 274 642.514332634 202 720 106 720 c 3
 67 720 34 704 11 688 c 1
 -5 714 l 1
 29 741 88 771 148 771 c 3
 197 771 346 751.974146076 346 567 c 3
 346 466.487275562 271.557824116 407.238980513 223.365234375 380 c 0
 184.902691122 358.260548524 160 336.809455544 160 283 c 3
EndSplineSet
EndChar
StartChar: tildecomb
Encoding: 771 771 100
Width: 0
Flags: HW
AnchorPoint: "TopMark" -119.757 768 basemark 0
AnchorPoint: "TopMark" -163.857 537 mark 0
AnchorPoint: "Top" -157.857 537 mark 0
LayerCount: 2
Back
SplineSet
-234.871544612 627.242037553 m 1
 -256.932802027 644.484453893 l 1
 -236.987602617 670.003857306 -218.65828496 688.51253196 -207.988270484 697.457449173 c 2
 -198.564998095 705.357193975 l 1
 -186.372143474 703.763981289 l 2
 -146.050455678 698.495237708 -100.638442916 664.482421919 -72.4853482445 652.716677893 c 1
 -64.9705047616 661.480290124 -57.2526929372 671.384035551 -48.7770701877 683.717625341 c 1
 -25.7006472664 667.859545219 l 1
 -2.62422434523 652.001465097 l 1
 -18.9760185245 628.206597427 -34.2862753312 610.05096565 -45.2912337029 600.167763835 c 2
 -55.0571690275 591.397289066 l 1
 -68.0455472441 593.293799476 l 2
 -107.365676693 599.035165607 -153.117790224 633.860935298 -182.200713288 644.946684864 c 1
 -189.843280403 637.222768516 -201.549800263 624.407143683 -212.810287196 609.999621213 c 1
 -234.871544612 627.242037553 l 1
EndSplineSet
Fore
SplineSet
-287.518554688 608.708984375 m 1
 -250.123890888 667.508413975 -202.910521396 712.192382812 -196.58203125 712.192382812 c 3
 -154.790555276 712.192382812 -90.2858110784 649.408203125 -76.7412109375 649.408203125 c 3
 -68.2362091766 649.408203125 -43.042284707 679.936912855 -18.6650390625 717.178710938 c 1
 27.669921875 693.893554688 l 1
 -1.66479020694 638.590047233 -47.049404388 584.408203125 -57.6875 584.408203125 c 3
 -96.5796620029 584.408203125 -162.070290921 648.74609375 -180.407226562 648.74609375 c 3
 -191.553889125 648.74609375 -216.53424262 611.508104134 -240.142578125 585 c 1
 -287.518554688 608.708984375 l 1
EndSplineSet
EndChar
StartChar: uni0315
Encoding: 789 789 113
Width: 0
Flags: HW
AnchorPoint: "TopRight" -95.6328 531 mark 0
LayerCount: 2
Fore
SplineSet
-18.0478515625 657.245117188 m 9
 61.1259765625 639.245117188 l 1
 33.75 577.094726562 -7.4501953125 493.133789062 -80.9453125 442.494140625 c 9
 -117.268554688 464.494140625 l 1
 -66.1044921875 521.860351562 -41.345703125 587.85546875 -18.0478515625 657.245117188 c 9
EndSplineSet
EndChar
StartChar: uni0328
Encoding: 808 808 254
Width: 0
Flags: HW
AnchorPoint: "Ogonek" -104.35 21.6582 mark 0
LayerCount: 2
Back
SplineSet
-147.646658952 -131.119329376 m 1
 -131.384385126 -153.912715479 l 1
 -154.189554351 -170.183396145 -183.106983509 -177 -210.850585938 -177 c 0
 -243.94889297 -177 -274.872070312 -148.599366316 -274.872070312 -100.834960938 c 0
 -274.872070312 -56.0403176042 -244.37773693 -5.38289224549 -172.543081584 31.0787245337 c 1
 -159.86998513 6.11089270436 l 1
 -147.196888675 -18.856939125 l 1
 -206.831481451 -49.1260850978 -218.872070312 -82.8258735136 -218.872070312 -100.834960938 c 0
 -218.872070312 -123.806439419 -210.850585938 -121 -210.850585938 -121 c 1
 -192.468611988 -121 -173.975523563 -115.508099321 -163.908932778 -108.325943274 c 1
 -150.760391658 -126.755086557 l 1
 -147.646658952 -131.119329376 l 1
EndSplineSet
Fore
SplineSet
-94.19140625 5.54296875 m 1
 -204.648448196 -34.9839680021 -219 -81.3391997631 -219 -101 c 3
 -219 -113.55581635 -214.585678195 -121 -209 -121 c 3
 -186.651938397 -121 -159.81921718 -111.519392655 -132.28515625 -90.599609375 c 1
 -132.28515625 -90.599609375 -119.956504299 -118.886828613 -116.970703125 -141 c 1
 -139.208691059 -166.004842105 -176.675164455 -177 -210.850585938 -177 c 3
 -244.809991273 -177 -274.872070312 -148.506528262 -274.872070312 -100.834960938 c 3
 -274.872070312 -45.1138248367 -228.508390893 20.109327726 -109.096679688 56 c 1
 -94.19140625 5.54296875 l 1
EndSplineSet
EndChar
StartChar: uni037A
Encoding: 890 890 961
Width: 133
Flags: HW
AnchorPoint: "Bottom" 78 -15 mark 0
LayerCount: 2
Fore
SplineSet
113.515625 -99.5126953125 m 3
 113.515625 -105.751917862 117.006622505 -106.504882812 122.2421875 -106.504882812 c 3
 124.084655324 -106.504882812 132.043429193 -103.890219949 134.528320312 -102.662109375 c 1
 154.528320312 -156.662109375 l 1
 140.32932672 -164.957752886 114.304310706 -174 78 -174 c 3
 38.118275332 -174 11.5283203125 -156.081054687 11.5283203125 -101.393554688 c 3
 11.5283203125 -80.7296303487 14.2207199409 -58.7174938551 16.5322265625 -38.0400390625 c 1
 26.4606242491 -37.2478615807 102.132988027 -21.4105478418 123.690429688 -31.611328125 c 1
 123.690429688 -38.5512761904 113.515625 -89.1773700985 113.515625 -99.5126953125 c 3
EndSplineSet
EndChar
StartChar: Lambda
Encoding: 923 923 986
Width: 733
Flags: HW
AnchorPoint: "Bottom" 364.812 -15 basechar 0
AnchorPoint: "Top" 526.326 679 basechar 0
LayerCount: 2
Back
SplineSet
364 507 m 1
 312.501629389 371.110893755 238.604917999 226.191311398 182 96 c 0
 172 73 193 70 227 64 c 1
 222 -8 l 1
 192 -1 156 1 120 1 c 3
 94 1 68 0 46 -3 c 1
 45 14 44 37 43 61 c 1
 82 71 86.7672077901 76.1124447675 97 97 c 0
 194 295 269.643877136 453.137093764 326 599 c 0
 343 643 341 650 349 689 c 1
 415 689 l 1
 421 653 423 645 438 600 c 0
 509 387 561.675212583 292.146370115 651 80 c 0
 659 61 667 63 693 59 c 1
 694 42 696 17 697 -2 c 1
 665 -1 635 1 607 1 c 3
 574 1 543 -1 510 -10 c 1
 510 -10 493 53 493 54 c 1
 511 60 542.655651182 59.3471545497 532 83 c 0
 470.786730957 218.877945655 420.586516256 358.743971691 364 507 c 1
EndSplineSet
Fore
SplineSet
468.916015625 503 m 1
 389.380859375 368.43359375 285.846679688 224.8984375 202.405273438 96 c 0
 187.516601562 73 207.87890625 70 240.603515625 64 c 1
 220.299804688 -8 l 1
 191.787109375 -1 156.212890625 1 120.212890625 1 c 3
 94.212890625 1 68 0 45.3623046875 -3 c 1
 47.9755859375 14 51.8642578125 37 55.9658203125 61 c 1
 97.091796875 71 102.9453125 76.1123046875 117.618164062 97 c 0
 256.704101562 295 365.9609375 453.13671875 453.321289062 599 c 0
 479.673828125 643 479.162109375 650 495.451171875 689 c 1
 561.451171875 689 l 1
 559.799804688 653 560.098632812 645 565.534179688 600 c 0
 591.259765625 387 623.772460938 292.146484375 668.004882812 80 c 0
 671.965820312 61 680.390625 63 705.541015625 59 c 1
 702.927734375 42 699.61328125 17 696.575195312 -2 c 1
 664.787109375 -1 635.212890625 1 607.212890625 1 c 3
 574.212890625 1 542.787109375 -1 507.874023438 -10 c 1
 507.874023438 -10 504.265625 53 504.478515625 54 c 1
 522.369140625 60 551.912109375 59.54296875 546.642578125 83 c 0
 516.40234375 217.595703125 493.950195312 356.142578125 468.916015625 503 c 1
EndSplineSet
Position2: "cpsp-1" dx=0 dy=0 dh=50 dv=100
Substitution2: "c2pc-1" lambda.pcap
Substitution2: "c2sc-1" lambda.smcp
EndChar
StartChar: Pi
Encoding: 928 928 991
Width: 870
Flags: HW
AnchorPoint: "Top" 581.525 679 basechar 0
AnchorPoint: "Bottom" 442.812 -15 basechar 0
LayerCount: 2
Back
SplineSet
245.684570312 88.2021484375 m 0
 246.612304688 67.4697265625 290.33984375 76.763671875 309.11328125 74.73046875 c 1
 309.11328125 74.73046875 302.37109375 -1.2783203125 302.28515625 -2.4833984375 c 1
 257.784179688 3.9814453125 220.34765625 6.9111328125 184.276367188 6.9111328125 c 3
 146.357421875 6.9111328125 109.79296875 4.30859375 69.494140625 -0.4833984375 c 1
 69.494140625 -0.4833984375 57.1826171875 74.697265625 57.0107421875 76.24609375 c 1
 86.2099609375 76.466796875 130.172851562 81.4052734375 130.54296875 90.6357421875 c 0
 135.353515625 206.40234375 135.610351562 340.05078125 135.610351562 462.693359375 c 3
 135.610351562 534.838867188 134.155273438 588.810546875 130.461914062 601.95703125 c 0
 127.333007812 612.546875 100.923828125 613.1484375 63.837890625 614.979492188 c 1
 68.666015625 686.794921875 l 1xea
 113.060546875 678.424804688 155.443359375 677.171875 199.573242188 677.171875 c 0
 696.56640625 676.740234375 l 3xda
 732.30859375 676.740234375 769.260742188 681.173828125 820.329101562 692.881835938 c 1
 834.5546875 622.979492188 l 1
 810.440429688 615.548828125 777.201171875 617.196289062 776.694335938 608.595703125 c 0xec
 770.990234375 501.268554688 767.744140625 358.397460938 767.744140625 231.573242188 c 3
 767.744140625 161.090820312 768.795898438 105.458984375 771.107421875 84.505859375 c 0
 772.456054688 75.8681640625 803.09765625 76.962890625 835.296875 76.4716796875 c 1
 835.296875 76.4716796875 827.5546875 -1.1064453125 827.641601562 -2.3115234375 c 1
 786.5078125 2.21484375 747.995117188 5.4072265625 708.767578125 5.4072265625 c 3
 678.268554688 5.4072265625 647.330078125 2.9111328125 613.676757812 -3.4833984375 c 1
 611.10546875 17.30859375 607.528320312 44.041015625 604.193359375 70.81640625 c 1
 637.1015625 72.5908203125 656.713221786 72.7771771032 657.620117188 88.0224609375 c 0
 660.051811392 128.900238308 665.234375 227.943359375 665.234375 330 c 3
 665.234375 443.69140625 666 533 663.103515625 579.998046875 c 0
 662.362123278 592.027800112 653 605 646 604.95703125 c 24
 497 605 413 605 264 605.040775423 c 24
 257 605 248.694516336 598.02871237 248 589 c 0
 245 550 242.4296875 454.194335938 242.4296875 344 c 3
 242.4296875 229.701171875 244.398099751 116.951379993 245.684570312 88.2021484375 c 0
EndSplineSet
Fore
SplineSet
264.432617188 88.2021484375 m 0
 260.953125 67.4697265625 306.65625 76.763671875 324.998046875 74.73046875 c 1
 324.998046875 74.73046875 302.099609375 -1.2783203125 301.756835938 -2.4833984375 c 1
 258.630859375 3.9814453125 221.81640625 6.9111328125 185.745117188 6.9111328125 c 3
 147.826171875 6.9111328125 110.708984375 4.30859375 69.3916015625 -0.4833984375 c 1
 69.3916015625 -0.4833984375 73.0595703125 74.697265625 73.2177734375 76.24609375 c 1
 102.463867188 76.466796875 147.4765625 81.4052734375 149.80859375 90.6357421875 c 0
 179.225585938 206.40234375 207.890625 340.05078125 233.958984375 462.693359375 c 0
 249.293945312 534.838867188 259.310546875 588.810546875 258.412109375 601.95703125 c 0
 257.534179688 612.546875 231.252929688 613.1484375 194.555664062 614.979492188 c 1
 214.6484375 686.794921875 l 1
 257.264648438 678.424804688 299.380859375 677.171875 343.510742188 677.171875 c 0
 817.412109375 676.740234375 l 3
 853.154296875 676.740234375 891.048828125 681.173828125 944.60546875 692.881835938 c 1
 943.97265625 622.979492188 l 1
 918.279296875 615.548828125 885.390625 617.196289062 883.055664062 608.595703125 c 0
 854.538085938 501.268554688 820.923828125 358.397460938 793.966796875 231.573242188 c 0
 778.985351562 161.090820312 768.211914062 105.458984375 766.069335938 84.505859375 c 0
 765.58203125 75.8681640625 796.45703125 76.962890625 828.551757812 76.4716796875 c 1
 828.551757812 76.4716796875 804.319335938 -1.1064453125 804.150390625 -2.3115234375 c 1
 763.978515625 2.21484375 726.14453125 5.4072265625 686.916992188 5.4072265625 c 3
 656.41796875 5.4072265625 624.94921875 2.9111328125 589.936523438 -3.4833984375 c 1
 591.784179688 17.30859375 593.889648438 44.041015625 596.24609375 70.81640625 c 1
 629.53125 72.5908203125 649.182617188 72.77734375 653.330078125 88.0224609375 c 0
 664.450195312 128.900390625 690.685546875 227.943359375 712.377929688 330 c 0
 736.543945312 443.69140625 756.29296875 533 763.385742188 579.998046875 c 0
 765.201171875 592.02734375 758.596679688 605 751.587890625 604.95703125 c 24
 602.596679688 605 541.596679688 605 392.60546875 605.041015625 c 24
 385.596679688 605 375.809570312 598.028320312 373.196289062 589 c 0
 361.90625 550 338.971679688 454.194335938 315.548828125 344 c 0
 291.25390625 229.701171875 269.256835938 116.951171875 264.432617188 88.2021484375 c 0
EndSplineSet
Position2: "cpsp-1" dx=0 dy=0 dh=50 dv=100
Substitution2: "c2pc-1" pi.pcap
Substitution2: "c2sc-1" pi.smcp
EndChar
StartChar: Upsilon
Encoding: 933 933 995
Width: 734
Flags: HW
AnchorPoint: "Top" 509.525 679 basechar 0
AnchorPoint: "Bottom" 363.812 -15 basechar 0
LayerCount: 2
Back
SplineSet
274 611 m 1xb0
 255 612 252 604 241 604 c 0
 239 604 232 593 233 592 c 1
 292 481 370 385 396 348 c 1
 435 414 542 599 542 594 c 1
 546 599 549 606 537 607 c 0
 527 608 510 608 499 613 c 1
 504 688 l 1
 525 683 566 677 608 677 c 3
 637 677 667 682 688 689 c 1
 698 610 l 1
 659 610 643 603 633 590 c 1
 564 515 491 393 444 291 c 1
 443 249 440 205 450 88 c 0
 452 72 497 69 550 66 c 1
 541 -6 l 1
 488 0 438 0 389 0 c 3
 344 0 298 0 250 -11 c 1
 232 63 l 1
 302 72 340 79 338 94 c 1
 338 97 335 261 336 264 c 1
 313 297 221 456 106 591 c 1
 102 600 76 603 44 617 c 1
 50 687 l 1
 82 683 131 678 175 678 c 3xd0
 210 678 243 680 265 686 c 1
 274 611 l 1xb0
EndSplineSet
Fore
SplineSet
493.868164062 324 m 0
 481.234375 290.205078125 471.086914062 252.581054688 462.958984375 214.342773438 c 0
 455.262695312 178.133789062 450.826171875 140.71484375 445.806640625 112 c 0
 439.221679688 74.3369140625 447.7734375 72.8330078125 539.028320312 66 c 1
 514.299804688 -8 l 1
 463.215820312 -2.75 415.614257812 1 366.962890625 1 c 0
 319.608398438 1 271.297851562 -2.3330078125 217.662109375 -11 c 1
 221.390625 63 l 1
 328.1328125 75.8984375 330.62890625 79.6103515625 338.380859375 110 c 0
 343.1171875 128.563476562 353.009765625 168.345703125 361.438476562 212 c 0
 370.30078125 257.896484375 376.877929688 308.258789062 377.081054688 325 c 0
 378.275390625 423.716796875 352.979492188 584 236.1328125 584 c 3
 217.717773438 584 198.168945312 578.666992188 175.732421875 568 c 1
 155.998046875 621 l 1
 179.524414062 647 242.088867188 692 283.088867188 692 c 3
 458.088867188 692 436.412109375 477.106445312 440.694335938 342 c 1
 501.412109375 477.106445312 571.088867188 692 746.088867188 692 c 3
 787.088867188 692 829.524414062 647 841.998046875 621 c 1
 799.732421875 568 l 1
 781.830078125 578.666992188 764.548828125 584 746.1328125 584 c 3
 628.690429688 584 531.442382812 424.505859375 493.868164062 324 c 0
EndSplineSet
Position2: "cpsp-1" dx=0 dy=0 dh=50 dv=100
Substitution2: "c2pc-1" upsilon.pcap
Substitution2: "c2sc-1" upsilon.smcp
EndChar
StartChar: Phi
Encoding: 934 934 996
Width: 714
UnlinkRmOvrlpSave: 1
Flags: HW
AnchorPoint: "Top" 502.525 679 basechar 0
LayerCount: 2
Fore
SplineSet
438.766601562 507 m 3
 340.627929688 507 249.619140625 449.8515625 232.645507812 370 c 0
 212.171875 273.678710938 295.709960938 184 418.110351562 184 c 3
 528.03125 184 614.573242188 252.043945312 630.71875 328 c 0
 650.881835938 422.861328125 564.806640625 507 438.766601562 507 c 3
483.58203125 572 m 3
 655.58203125 572 772.50390625 468.12890625 745.694335938 342 c 0
 719.955078125 220.907226562 566.931640625 122 388.931640625 122 c 3
 210.931640625 122 87.7587890625 219.983398438 113.694335938 342 c 0
 139.715820312 464.418945312 308.58203125 572 483.58203125 572 c 3
EndSplineSet
Refer: 984 921 N 0.97 0 0 1 188 0 2
Position2: "cpsp-1" dx=0 dy=0 dh=50 dv=100
Substitution2: "c2pc-1" phi.pcap
Substitution2: "c2sc-1" phi.smcp
EndChar
StartChar: Upsilon1
Encoding: 978 978 1031
Width: 697
Flags: HW
AnchorPoint: "Top" 335 699 basechar 0
AnchorPoint: "Bottom" 347 -15 basechar 0
LayerCount: 2
Fore
SplineSet
398 379 m 0
 383 286 393 164 404 80 c 0
 409 41 429 36 510 32 c 1
 505 -11 l 1
 402 3 314 9 209 -17 c 1
 197 25 l 1
 276 39 313 52 313 100 c 0
 313 150 313 339 304 380 c 0
 283 473 220 624 96 624 c 3
 75 624 54 616 31 600 c 1
 8 629 l 1
 26 655 78 700 119 700 c 3
 294 700 319 498 352 371 c 1
 381 498 403 700 563 700 c 3
 635 700 674 654 674 595 c 3
 674 535 647 511 609 511 c 3
 597 511 581 511 561 525 c 1
 560 550 568 562 586 586 c 1
 612 571 625 589 625 603 c 3
 625 618 599 624 586 624 c 3
 474 624 412 474 398 379 c 0
EndSplineSet
Position2: "cpsp-1" dx=0 dy=0 dh=50 dv=100
EndChar
StartChar: uni03D9
Encoding: 985 985 1036
Width: 586
UnlinkRmOvrlpSave: 1
Flags: HW
LayerCount: 2
Fore
SplineSet
335 45 m 1
 334.097175434 -15.4489252934 332.334024359 -85.4544133541 331 -135.099609375 c 1
 331 -135.099609375 235.455927862 -147.099609375 220 -147.099609375 c 1
 220 -128.37879723 231.48732721 -18.5599933868 236.703125 47 c 1
 335 45 l 1
EndSplineSet
Refer: 1017 959 N 1 0 0 0.924852 -4.375e-07 38.6412 2
EndChar
StartChar: uni03DA
Encoding: 986 986 1037
Width: 713
Flags: HMW
LayerCount: 2
Fore
SplineSet
23 185 m 3
 23 341.626953125 109.18359375 544.809570312 229.381835938 642 c 0
 274.8359375 678.75390625 313.884765625 689 421 689 c 3
 520.662109375 689 536.25 681 656 681 c 3
 684.099609375 681 697 686 697 713 c 1
 706 714 712 715 721 716 c 1
 725 698 730 689.384765625 730 671 c 3
 730 645.861328125 681 578 573 578 c 3
 504.970703125 578 413.025390625 594 334 594 c 3
 130.842773438 594 76 358.318359375 76 239 c 3
 76 129.291992188 130.985351562 107 165 107 c 3
 194.391601562 107 211.196289062 112 241 112 c 3
 365.547851562 112 383 -4.0146484375 383 -23 c 3
 383 -119.784179688 304.325195312 -195 255 -195 c 3
 222.63671875 -195 201.72265625 -166.583007812 193 -133 c 1
 212.384765625 -105.038085938 237.889648438 -94.6259765625 264.19140625 -94.6259765625 c 3
 277.934570312 -94.6259765625 291.958984375 -97.1376953125 305 -101 c 1
 341.95703125 -85.76953125 348 -69.708984375 348 -47 c 3
 348 -30.720703125 334.19140625 19 261 19 c 3
 219.373046875 19 187.1953125 10.6728515625 162 10.6728515625 c 3
 122.963867188 10.6728515625 86.95703125 26.2529296875 71 43.5361328125 c 0
 41.31640625 75.6875 23 117.723632812 23 185 c 3
EndSplineSet
Position2: "cpsp-1" dx=0 dy=0 dh=50 dv=100
EndChar
StartChar: afii10057
Encoding: 1032 1032 1085
Width: 337
Flags: HW
AnchorPoint: "Top" 242 699 basechar 0
LayerCount: 2
Fore
SplineSet
224 65 m 3
 224 -14.580078125 185.093870345 -67.4307948629 141 -108 c 0
 108.90625 -137.528320312 77.9482421875 -160 29 -160 c 3
 5.9716796875 -160 -30.009765625 -149 -48 -127 c 1
 -46.775390625 -97.046875 -48 -97.046875 12 -56 c 1
 40.1669921875 -69.2861328125 57.0302734375 -87 90 -87 c 3
 159.542741459 -87 140.265625 45.8535785761 140.265625 128.524414062 c 3
 140.265625 163.011187684 131.651244936 581.618290628 124 614 c 0
 117.062678912 650 66.5227367605 647 14 652 c 1
 18 692 l 1
 134 677 200 680 323 692 c 1
 325 649 l 1
 266.419506836 647 226.99839939 657.081031174 224 616 c 0
 215.457795516 498.963367087 217.291015625 375.548154733 217.291015625 243.026367188 c 3
 217.291015625 187.991977069 224 129.421203124 224 65 c 3
EndSplineSet
Position2: "cpsp-1" dx=0 dy=0 dh=50 dv=100
EndChar
StartChar: afii10028
Encoding: 1050 1050 1268
Width: 717
Flags: HW
AnchorPoint: "Top" 346 699 basechar 0
AnchorPoint: "Bottom" 370 -15 basechar 0
LayerCount: 2
Fore
SplineSet
475 39 m 0
 338 138.147601476 313 284.313653137 189 316 c 1
 189 235 191.437873927 134.085710579 194 79 c 0
 196 36 228 34 287 20 c 1
 283 -10 l 1
 206 2 126 7 26 -5 c 1
 23 28 l 1
 78 29 99.8448476065 35.0089550282 102 71 c 0
 112 238 112.21927907 417.969825563 106 589 c 0
 104 644 89 645 26 657 c 1
 32 688 l 1
 112 676 201 679 280 689 c 1
 283 657 l 1
 225 652 200.572216385 651.213235274 198 608 c 0
 193 524 189 444 189 357 c 1
 271 433 354.498427689 504.498427689 434 584 c 0
 445 595 457.218129963 603.01698915 458 621 c 0
 459 644 438 650 401 656 c 1
 402 683 l 1
 466 676 547 678 615 692 c 1
 624 656 l 1
 583 646 557.202657177 634.771155163 529 610 c 0
 441.333333333 533 352.724014337 456.950617284 266 379 c 1
 398 322.103448276 466.73025241 131.957842319 589 49 c 0
 619.213940145 28.5003806597 660.554455446 20.671875 688 12 c 1
 684 -12 l 1
 673.389473684 -12 658.725351937 -14 648 -14 c 3
 582.379310345 -14 513.879839224 10.8624612782 475 39 c 0
EndSplineSet
Position2: "cpsp-1" dx=0 dy=0 dh=50 dv=100
EndChar
StartChar: afii57670
Encoding: 1494 1494 2398
Width: 350
UnlinkRmOvrlpSave: 1
Flags: HW
AnchorPoint: "HbTopLeft" 136.128 638.023 basechar 0
AnchorPoint: "HbBottom" 146.5 0 basechar 0
AnchorPoint: "HbTop" 242 639.218 basechar 0
LayerCount: 2
Fore
SplineSet
370.229492188 571.295898438 m 1
 352.211277656 523.981520606 335.579483775 476.665027749 321.838867187 430.662109375 c 1
 264.303597049 414.945712085 228.253681799 384.318424635 214.30078125 333.750976562 c 1
 166.595156578 210.524604737 236.440471593 119.578538127 234.278320312 90.4931640625 c 1
 212.695757786 55.0533179132 188.666325799 18.2502270766 170.920898437 -13.1015625 c 1
 114.870117188 -4.779296875 l 1
 113.709189761 136.553670166 81.8307163382 255.514432552 148.346679687 381.08203125 c 1
 160.703146841 402.146409395 208.007578788 451.403167355 222.330078125 463.458984375 c 1
 218.561877381 470.350895576 261.27742506 414.017628337 255.0234375 416.994140625 c 0
 234 427 84 446 75.9482421875 468.486328125 c 1
 129.53515625 604.46484375 l 1
 268 571 325 594 370.229492188 571.295898438 c 1
EndSplineSet
EndChar
StartChar: afii57673
Encoding: 1497 1497 2401
Width: 303
UnlinkRmOvrlpSave: 1
Flags: HW
AnchorPoint: "HbMiddle" 134.85 214.52 basechar 0
AnchorPoint: "HbTop" 186.309 638.023 basechar 0
AnchorPoint: "HbTopLeft" 87.729 638.023 basechar 0
AnchorPoint: "HbBottom" 130.5 0 basechar 0
LayerCount: 2
Fore
SplineSet
120.576171875 619.854492188 m 1
 242 555.819244969 256.740482138 549 279.161132812 519.737304688 c 1
 287.842797859 503.757880736 290.997070312 489.256909083 290.997070312 474.489257812 c 0
 290.997070312 414.627908635 279.572041253 403.000146824 160.2890625 259.3125 c 1
 109.286132812 287 l 1
 127.826860193 308.154327019 147.756652479 334.698249527 167.114257812 360.806640625 c 0
 175.529752668 372.540614056 176.594293694 421.190330887 171.868164062 423.001953125 c 0
 119.989415802 443.015267425 74.0643621791 469.258040031 56.4951171875 498.579101562 c 1
 64.4138998242 535.812414982 71.0332285166 574.109683606 120.576171875 619.854492188 c 1
EndSplineSet
EndChar
StartChar: afii57675
Encoding: 1499 1499 2403
Width: 515
UnlinkRmOvrlpSave: 1
Flags: HW
AnchorPoint: "HbTopLeft" 158.498 638.023 basechar 0
AnchorPoint: "HbBottom" 201.78 0 basechar 0
AnchorPoint: "HbMiddle" 248.34 292.52 basechar 0
AnchorPoint: "HbTop" 318 638.023 basechar 0
LayerCount: 2
Fore
SplineSet
387.538085938 552.704101562 m 0
 436 519 483.71875 450.763639858 483.71875 284.05078125 c 3
 483.71875 185.095578654 373.228270301 -2.3896484375 242.392578125 -2.3896484375 c 3
 150.754617572 -2.3896484375 137.995192404 -5.89225413295 74.61328125 -7.0654296875 c 1
 24.2568359375 11.298828125 l 1
 48.2294921875 136.287109375 l 1
 88.368596413 144.791673693 123.561985224 145.041992188 282.373046875 145.041992188 c 3
 378.637392697 145.041992188 411.197265625 197.176757812 411.197265625 252.986328125 c 3
 411.197265625 343.39444235 383.715623204 378.501705615 344.677734375 408.916015625 c 0
 319.060690602 428.874182786 259.251884213 437.923480904 182.822265625 438.080078125 c 0
 162.485359407 438.148305916 141.042310713 438.894118632 135.755859375 439.51953125 c 1
 170.768554688 588.126953125 l 1
 186.582565612 588.281770341 202.354538323 588.318529245 218 588 c 0
 318.322607411 584.370188841 363.259552002 569.589240942 387.538085938 552.704101562 c 0
EndSplineSet
EndChar
StartChar: afii57681
Encoding: 1505 1505 2409
Width: 576
UnlinkRmOvrlpSave: 1
Flags: HW
AnchorPoint: "HbBottomLeft" 95 0 basechar 0
AnchorPoint: "HbBottomRight" 455 0 basechar 0
AnchorPoint: "HbTopRight" 473 638 basechar 0
AnchorPoint: "HbTopLeft" 139.065 638.023 basechar 0
AnchorPoint: "HbBottom" 248.907 0 basechar 0
AnchorPoint: "HbMiddle" 309.252 292.52 basechar 0
AnchorPoint: "HbTop" 324.616 638.023 basechar 0
LayerCount: 2
Fore
SplineSet
471.500976562 552.361328125 m 1
 543 504 556.989978752 353.669670617 547.349609375 261.661132812 c 0
 539.524645216 174 437.454503913 -17.9228515625 219.224609375 -17.9228515625 c 3
 120.462547547 -17.9228515625 48.8939721808 167.392660081 58.6435546875 247.440429688 c 0
 65.9365234375 316.82421875 99.3916015625 407.850585938 166.887695312 489.415039062 c 1
 226.95703125 475.818359375 l 1
 174.240234375 410.938476562 145.684092372 348.110401795 141.256835938 305.985351562 c 0
 134.799703663 254.340820312 194.485763291 136.966796875 279.256835938 136.966796875 c 3
 387.072998361 136.966796875 465.993783467 178 474.828125 276.447265625 c 0
 479.099382418 313.375697828 468 378 416.321289062 410.73828125 c 0
 376.316221396 436.081350628 256.010979884 435.588518534 169.262695312 441.110351562 c 1
 135.809570312 445.918198916 103.362304688 458.416401648 70.7880859375 469.955078125 c 1
 127.525390625 608.322265625 l 1
 200.459886792 579.878397911 385 606 471.500976562 552.361328125 c 1
EndSplineSet
EndChar
StartChar: afii57689
Encoding: 1513 1513 2417
Width: 641
UnlinkRmOvrlpSave: 1
Flags: HW
AnchorPoint: "HbBottomLeft" 53 0 basechar 0
AnchorPoint: "HbBottomRight" 443 0 basechar 0
AnchorPoint: "HbMiddle" 303 198 basechar 0
AnchorPoint: "HbTop" 384.38 638.023 basechar 0
AnchorPoint: "HbTopLeft" 165.049 638.023 basechar 0
AnchorPoint: "HbBottom" 243.251 0 basechar 0
AnchorPoint: "HbTopRight" 611.471 638.023 basechar 0
LayerCount: 2
Back
SplineSet
131.510742188 176.375976562 m 1xb0
 222.86693484 285.407375811 298.310357982 405.273846762 319 555 c 1
 319.338867188 603.126953125 l 1
 376 608 l 1
 383.706773313 567.297705042 460.775252358 570.010540812 485.822265625 556.443359375 c 1
 468 429 l 1
 412 421 l 1
 369 435 l 1
 339 348 247.09564373 203.794346523 146.862304688 114.674804688 c 1
 131.510742188 176.375976562 l 1xb0
EndSplineSet
Fore
SplineSet
134.924804688 312.16015625 m 1
 244.013671875 296.073486833 335.115990391 349.207581061 312.594726562 399 c 1
 291.930224546 433.356464767 276.794921875 450.379848228 276.794921875 474.74609375 c 3
 276.794921875 497.389114754 289.865015932 526.373100448 323.713867188 581.5 c 1
 392.567382812 586.095703125 l 1
 413.249023438 548.274414062 449.280273438 474.202148438 449.280273438 439.942382812 c 3
 449.280273438 418.255859375 439.019454752 388.906305682 423.07421875 367 c 0
 412.4921875 352.461914062 402.13086028 338.44228306 388.489257812 326 c 0
 375.79296875 310.768927562 289 246.399403077 123.70703125 255.080078125 c 1
 134.924804688 312.16015625 l 1
236.978515625 -19.7197265625 m 0
 74.3125493866 -19.7197265625 33.504193595 86.9424550137 46.66796875 200.6796875 c 0
 54.2863342669 266.503647554 69.2118611774 351.500778235 81 422 c 0
 83.819171293 438.860115509 109.120969844 515.345352236 146.916015625 588.400390625 c 1
 179.553297954 586.345703125 198.44104916 584.770507812 222.572265625 583.240234375 c 1
 222.211844284 537.949321738 212.671783574 477.941182897 204.286132812 438.120117188 c 1
 184.986281785 378.639648438 135.494397936 291.015522419 131.646484375 235.400390625 c 0
 125.045898437 140 192.388295977 116.240234375 293.279296875 116.240234375 c 0
 333.270507812 116.240234375 402.278320312 124.169921875 440.318359375 140 c 1
 469.756005952 204.83203125 518.106076766 278.847650535 526.810546875 354 c 0
 529.905273438 383.442382812 527.479617767 393.170193605 523.750976562 401 c 0
 505.704496639 413.471051423 493.568359375 433.812544275 493.568359375 451.390625 c 3
 493.568359375 487.832625727 499.243852141 528.346604752 515.370117188 583.193359375 c 1
 522.484375 584.630859375 548.439453125 586.794921875 555.555664062 588.231445312 c 1
 581.576171875 569.713867188 626.978356502 528.50875408 633.196289062 500.225585938 c 0
 637.592773438 480.227539062 632.814761612 448.897039002 630.58203125 425.119140625 c 0
 618.716027052 304.137695312 489.522360481 118.775390625 442.947265625 31.3203125 c 1
 404.582811147 9.12890625 306.350265228 -19.7197265625 236.978515625 -19.7197265625 c 0
EndSplineSet
EndChar
StartChar: uni2023
Encoding: 8227 8227 436
Width: 614
Flags: HW
LayerCount: 2
Back
Fore
SplineSet
561.169921875 320.640625 m 1
 549.771484375 262 l 1
 511.067382812 253.463107639 381.314058074 217.527815867 321.525390625 194 c 0
 197.805664063 145.314269579 139.29296875 77.7447516503 52.26953125 8.7802734375 c 1
 2.537109375 33.8203125 l 1
 47.1533203125 127.943359375 120.350585938 380.166992188 88.1240234375 551.5 c 1
 157.41015625 569.021484375 l 1
 190.175337372 505.109310523 267.228496179 424.632127055 360.90234375 386 c 0
 433.895688658 355.896740149 530.991858304 331.858141341 561.169921875 320.640625 c 1
EndSplineSet
EndChar
StartChar: uni2219
Encoding: 8729 8729 1304
Width: 318
Flags: HW
LayerCount: 2
Fore
SplineSet
70 218 m 0
 70 272 114 307 159 307 c 0
 214 307 248 262 248 217 c 0
 248 170 211 129 159 129 c 0
 113 129 70 165 70 218 c 0
EndSplineSet
EndChar
StartChar: uni2619
Encoding: 9753 9753 1434
Width: 1004
UnlinkRmOvrlpSave: 1
Flags: HW
LayerCount: 2
Fore
SplineSet
832 360 m 1
 801 373 l 1
 830.547851562 397 842 435.810546875 842 473 c 3
 842 519.818359375 817.521484375 527 799 527 c 3
 767.033203125 527 750 490.467773438 750 467 c 3
 750 299.23046875 971 287.998046875 971 137 c 3
 971 94.3515625 956.185546875 71.490234375 946 30 c 1
 916.201171875 47.466796875 876.6328125 63.3427734375 869 87 c 1
 871.036969866 98.6004909939 874 123.047485351 874 148 c 3
 874 273.287657729 714 292.926754732 714 476 c 3
 714 510.340820312 739.73828125 563 792 563 c 3
 828.016601562 563 872 542.036132812 872 478 c 3
 872 444.532226562 866.333007812 404.237304688 832 360 c 1
828 643.067382812 m 1
 852 700.490234375 l 1
 915.66796875 675.018554688 960 618.465820312 960 533 c 3
 960 411.457192096 836.084054129 353.604840686 678 267 c 1
 724.286132812 259.05859375 786 199.165039062 786 132 c 3
 786 61.765625 737.708984375 -12 651 -12 c 3
 495.793945312 -12 408.279296875 42 252 42 c 3
 209.4296875 42 187.30859375 40 145 40 c 3
 93.4619140625 40 51 75.9609375 51 120 c 3
 51 162.31640625 54.375 183.461914062 78 219 c 1
 96.8828125 219.05859375 122.857421875 191.159179688 150 159 c 1
 136.286132812 139.799804688 114 131.7109375 114 111 c 3
 114 92.169921875 132.063476562 75 159 75 c 3
 197.622070312 75 226.114257812 107.84375 237 159 c 0
 286.27734375 390.569335938 340.92578125 547 475 547 c 3
 545.271484375 547 627 507.708007812 627 404 c 3
 627 305.7890625 600 294.384765625 413 199 c 1
 406.555664062 184.366210938 401.491210938 173.06640625 399 165 c 1
 609.147239264 274.568179777 918 390.922413793 918 524 c 3
 918 600.9765625 864.760742188 634.026367188 828 643.067382812 c 1
EndSplineSet
EndChar
StartChar: heart
Encoding: 9829 9829 1494
Width: 674
Flags: HW
LayerCount: 2
Fore
SplineSet
36.44921875 498.337890625 m 0
 36.44921875 584.0859375 94.44921875 657.125976562 176.466796875 657.125976562 c 0
 251.11328125 657.125976562 315.935546875 595.841796875 337.200195312 516.120117188 c 1
 359.133789062 600.44140625 428.15625 657.125976562 498.14453125 657.125976562 c 0
 580.454101562 657.125976562 638.162109375 583.744140625 638.162109375 498.337890625 c 0
 638.162109375 345.458007812 481.436523438 245.357421875 398.87890625 112.727539062 c 0
 367.44921875 62.2373046875 356.447265625 24.4111328125 347.203125 7.9384765625 c 1
 346.208007812 3.2568359375 343.897460938 -0.5849609375 338.453125 -0.990234375 c 0
 337.995117188 -1.0927734375 337.528320312 -1.1435546875 337.051757812 -1.1435546875 c 0
 335.759765625 -1.1435546875 334.392578125 -0.765625 332.912109375 0.0068359375 c 0
 330.334960938 1.353515625 328.86328125 3.490234375 328.010742188 5.7109375 c 0
 319.765625 19.384765625 312.186523438 54.1669921875 275.733398438 112.727539062 c 0
 191.850585938 247.487304688 36.44921875 344.40625 36.44921875 498.337890625 c 0
EndSplineSet
EndChar
StartChar: f.pcap
Encoding: 57352 57352 648
Width: 472
Flags: HW
AnchorPoint: "Top" 305.557 537 basechar 0
AnchorPoint: "Bottom" 149.226 -15 basechar 0
LayerCount: 2
Back
SplineSet
304.362304688 199.587890625 m 1
 279.494140625 198.922851562 228.103515625 199.103515625 194.383789062 199.56640625 c 1
 193.337890625 140.7734375 193.325195312 110.422851562 193.139648438 73.0380859375 c 1
 205.359375 76.154296875 226.361328125 80.697265625 269.705078125 79.6611328125 c 0
 278.37109375 79.4609375 l 1
 264.067382812 -5.310546875 l 1
 256.780273438 -4.2119140625 l 2
 220.98828125 1.2392578125 183.001953125 4.4345703125 147.928710938 4.4345703125 c 0
 117.145507812 4.4345703125 89.15234375 1.4833984375 70.490234375 -4.8056640625 c 0
 61.9970703125 -7.5546875 l 1
 49.791015625 79.5341796875 l 1
 57.6591796875 80.2294921875 l 0
 72.083984375 81.4716796875 83.6787109375 79.78515625 87.8984375 79.5478515625 c 1
 87.705078125 97.212890625 87.642578125 121.809570312 87.642578125 160.938476562 c 0
 87.642578125 254.55078125 87.95703125 368.052734375 88.12109375 419.763671875 c 1
 76.1943359375 417.280273438 66.4853515625 417.986328125 55.083984375 418.762695312 c 0
 47.576171875 419.217773438 l 1
 52.64453125 499.19140625 l 1
 60.0322265625 498.826171875 l 0
 97.3037109375 496.978515625 170.15234375 494.603515625 241.278320312 494.603515625 c 0
 301.021484375 494.603515625 359.092773438 497.030273438 376.32421875 510.463867188 c 0
 379.282226562 511.478515625 l 1
 382.768554688 510.463867188 l 0
 413.513671875 502.676757812 423.075195312 487.135742188 423.075195312 462.375 c 0
 423.075195312 443.891601562 418.19921875 421.421875 417.111328125 392.827148438 c 0
 416.85546875 378.943359375 l 1
 347.641601562 373.74609375 l 1
 345.71875 384.087890625 l 0
 340.318359375 396.944335938 335.865234375 406.892578125 333.443359375 412.264648438 c 1
 296.607421875 412.905273438 240.848632812 417.950195312 190.633789062 417.012695312 c 1
 191.064453125 368.421875 192.254882812 319.197265625 192.83203125 275.497070312 c 1
 235.682617188 275.37109375 285.0703125 274.6015625 305.916015625 274.176757812 c 1
 306.892578125 279.745117188 309.081054688 287.866210938 312.91796875 299.522460938 c 0
 314.870117188 305.455078125 l 1
 397.0859375 294.209960938 l 1
 393.989257812 285.514648438 l 0
 386.973632812 265.815429688 384.133789062 249.828125 384.133789062 233.068359375 c 0
 384.133789062 218.029296875 387.629882812 201.819335938 393.693359375 180.258789062 c 0
 395.767578125 172.881835938 l 1
 317.01171875 152.549804688 l 1
 314.24609375 157.799804688 l 0
 305.104492188 175.158203125 303.479492188 189.92578125 304.362304688 199.587890625 c 1
EndSplineSet
Fore
SplineSet
215.537109375 -8.2119140625 m 1
 178.5859375 -2.76171875 138.862304688 0.4345703125 101.404296875 0.4345703125 c 3
 67.826171875 0.4345703125 35.9169921875 -5.3369140625 13.69140625 -8.8056640625 c 1
 15.1142578125 44.287109375 l 1
 55.662109375 53.02734375 60.8515625 50.62890625 63.96875 61.8759765625 c 1
 67.90234375 81.3857421875 74.3515625 112.09375 84.734375 160.938476562 c 0
 107.209960938 266.677734375 139.494140625 417.98828125 143.694335938 440.575195312 c 0
 144.428710938 444.525390625 136.466796875 444 96.8759765625 446.735351562 c 1
 112.923828125 502.826171875 l 1
 151.391601562 500.975585938 226.599609375 498.603515625 300.642578125 498.603515625 c 3
 360.123046875 498.603515625 419.225585938 499.521484375 443.407226562 514.463867188 c 1
 475.090820312 506.361328125 480.688476562 492.716796875 475.088867188 466.375 c 0
 470.673828125 445.600585938 459.927734375 417.841796875 451.28125 382.399414062 c 1
 393.751953125 379.131835938 l 1
 409.301757812 437 418.27734375 451 410.543945312 449.215820312 c 0
 367.19921875 439.21484375 275.975585938 442.349609375 204.7890625 444 c 0
 201.045898438 444.086914062 200.774414062 443.533203125 199.849609375 439.162109375 c 0
 187.109375 378.956054688 174.791992188 320.20703125 163.133789062 265.01171875 c 1
 232.692382812 265.02734375 319.444335938 265.279296875 330.669921875 265.455078125 c 0
 340.922851562 265.615234375 344.395507812 277.485351562 357.080078125 304.177734375 c 1
 410.017578125 295.030273438 l 1
 397.91796875 272.133789062 390.787109375 252.96875 386.556640625 233.068359375 c 0
 382.669921875 214.78125 382.348632812 195.739257812 383.251953125 171.228515625 c 1
 327.487304688 156.294921875 l 1
 321.697265625 183.587890625 331.940429688 209.59765625 321.786132812 209.54296875 c 0
 298.420898438 209.40625 205.196289062 208.513671875 150.858398438 209.177734375 c 1
 136.125 141.479492188 129.3203125 108.577148438 119.69921875 64.4658203125 c 0
 116.291992188 48.83984375 138.721679688 63.7578125 235.62109375 45.6650390625 c 1
 215.537109375 -8.2119140625 l 1
EndSplineSet
EndChar
StartChar: i.pcap
Encoding: 57355 57355 651
Width: 374
Flags: HW
AnchorPoint: "Top" 259.48 537 basechar 0
AnchorPoint: "Bottom" 141.149 -15 basechar 0
LayerCount: 2
Back
SplineSet
137.517578125 436.34375 m 1
 144.487304688 436.876953125 l 1
 144.616210938 435.915039062 144.586914062 436.416015625 144.573242188 435.446289062 c 0
 137.517578125 436.34375 l 1
129.850585938 423.384765625 m 1
 110.831054688 421.767578125 74.1884765625 423.768554688 64.603515625 423.478515625 c 0
 56.1083984375 423.01953125 l 1
 62.376953125 510.69921875 l 1
 71.2138671875 508.23828125 l 2
 106.981445312 498.08203125 144.809570312 493.822265625 183.272460938 493.822265625 c 0
 222.276367188 493.822265625 261.935546875 498.115234375 301.568359375 505.001953125 c 0
 309.7890625 506.416015625 l 1
 315.462890625 418.323242188 l 1
 306.604492188 419.274414062 l 0
 295.608398438 420.541015625 260.456054688 417.624023438 243.197265625 423.005859375 c 1
 236.899414062 372.081054688 236.8671875 299.831054688 236.8671875 202.37890625 c 0
 236.8671875 159.833007812 237.716796875 126.362304688 239.952148438 81.2548828125 c 1
 254.670898438 82.76953125 273.688476562 79.8798828125 303.482421875 80.6123046875 c 0
 311.79296875 80.8291015625 l 1
 305.489257812 -1.291015625 l 1
 297.58984375 -0.193359375 l 0
 260.396484375 5.0205078125 224.060546875 7.630859375 188.399414062 7.630859375 c 0
 146.243164062 7.630859375 105.17578125 4.16015625 66.8876953125 -2.9921875 c 0
 58.830078125 -4.4794921875 l 1
 50.7216796875 81.5205078125 l 1
 58.8330078125 81.6474609375 l 0
 93.0322265625 82.1982421875 117.07421875 79.5751953125 129.67578125 77.2470703125 c 1
 131.1640625 134.87109375 132.129882812 201.672851562 132.129882812 276.486328125 c 0
 132.129882812 339.783203125 130.806640625 386.469726562 129.850585938 423.384765625 c 1
EndSplineSet
Fore
SplineSet
146.104492188 507 m 1
 176.525390625 500 209.645507812 498 243.19140625 498 c 3
 278.24609375 498 314.986328125 502 351.529296875 509 c 1
 346.838867188 454 l 1
 261.4375 438 262.809570312 448.52734375 259.587890625 434 c 0
 248.307617188 383.146484375 231.341796875 305.817382812 209.274414062 202 c 0
 198.953125 153.443359375 186.12890625 93.109375 179.94140625 64 c 0
 177.603515625 53 191.241210938 56 256.541015625 48 c 1
 237.637695312 -8 l 1
 205.879882812 -3 174.517578125 0 143.337890625 0 c 3
 105.607421875 0 67.8642578125 -4 32 -11 c 1
 35.9033203125 45 l 1
 108.241210938 56 121.186523438 51.669921875 123.090820312 60 c 0
 137.334960938 122.307617188 152.553710938 193.90625 170.00390625 276 c 0
 184.986328125 346.489257812 195.685546875 396.826171875 204.012695312 436 c 0
 205.4296875 442.666992188 201.629882812 440.666992188 126.201171875 451 c 1
 146.104492188 507 l 1
EndSplineSet
EndChar
StartChar: l.pcap
Encoding: 57358 57358 654
Width: 527
Flags: HW
AnchorPoint: "TopRight" 401.806 350.755 basechar 0
AnchorPoint: "Top" 242.143 537 basechar 0
AnchorPoint: "Bottom" 222.812 -15 basechar 0
LayerCount: 2
Back
SplineSet
259.545363004 505.516988732 m 1
 265.758501683 423.08730106 l 1
 258.431389377 422.394693846 l 0
 223.959202557 419.283822241 207.862308651 415.676911537 202.046773421 413.667873615 c 1
 202.576238847 364.868797436 203.567324358 121.94769028 202.512488044 104.103373871 c 1
 202.446166418 104.107116602 203.073024462 92.7319725643 202.923069006 82.7338609474 c 1
 266.751599091 81.6060591555 375.94047649 81.4701219244 410.066129056 89.3733643221 c 1
 413.102757927 90.2537857705 414.699211676 90.7899835874 415.18385908 90.9646798643 c 1
 414.446249814 97.4790168895 412.57816144 111.656518747 427.143352781 144.221136625 c 0
 429.451256614 150.035366687 l 1
 503.32838262 135.258308146 l 1
 503.451555564 129.238385461 l 0
 504.571428899 74.9594978135 492.707685941 94.6071374529 476.414388349 -9.0361328125 c 0
 475.123996131 -11.2301604457 l 1
 467.039545964 -9.0361328125 l 0
 445.134462828 -2.9745560993 442.295345149 3.63644151863 409.183429451 4.44215293315 c 1
 398.167735734 4.91838022358 328.636649645 5.537109375 248.583007812 5.537109375 c 0
 79.0679905581 5.537109375 115.921579465 -1.078125 67.0458984375 -1.078125 c 0
 60.2614257238 -1.078125 l 1
 51.941241817 81.754640573 l 1
 60.6437640805 81.3255497002 l 0
 75.6853575828 80.5974581669 91.5641596565 80.7895466374 99.3018465493 80.8492469748 c 1
 99.7801439761 101.800064887 99.5048828125 155.965159449 99.5048828125 223.595703125 c 0
 99.5048828125 318.903282727 96.8380036706 397.466387654 95.7680660124 419.397151126 c 1
 88.2926581952 418.670535511 77.0632074681 417.291524137 57.102616293 416.736135203 c 0
 48.8290895355 416.508657545 l 1
 55.0236729712 503.892790204 l 1
 63.3879404296 502.200195312 l 0
 94.7251878552 495.753791024 127.86392938 493.051757812 159.98828125 493.051757812 c 0
 191.973602446 493.051757812 222.937737602 497.038435826 251.052587515 503.577148438 c 0
 259.545363004 505.516988732 l 1
EndSplineSet
Fore
SplineSet
301.553710938 506 m 1
 294.650390625 450 l 1
 213.184570312 435.708984375 213.33203125 448.502929688 210.887695312 437 c 0
 197.41796875 373.630859375 137.416992188 91.34765625 132.028320312 66 c 1
 131.143554688 57.12890625 131.665039062 54.87109375 136.690429688 55 c 0
 214.603515625 57 345.765625 55.3154296875 393.478515625 54 c 0
 399.78515625 53.826171875 421.53125 106 434.182617188 142 c 1
 485.6953125 135 l 1
 475.642578125 83 461.579101562 78 425.236328125 -13 c 1
 406.299804688 -8 396.58984375 -2 362.575195312 -2 c 0
 351.575195312 -2 283 0 203 0 c 3
 33 0 58.51171875 -7 11.51171875 -7 c 1
 16.990234375 47 l 1
 64.6904296875 55 70.83203125 47.1240234375 73.328125 58 c 0
 75.765625 68.619140625 91.18359375 137.299804688 109.612304688 224 c 0
 133.911132812 338.317382812 152.41015625 425.345703125 155.3125 439 c 0
 156.446289062 444.333007812 144.654296875 443.166992188 98.650390625 450 c 1
 115.553710938 506 l 1
 143.259765625 500 179.966796875 498 209.853515625 498 c 3
 239.552734375 498 274.263671875 500.400390625 301.553710938 506 c 1
EndSplineSet
EndChar
StartChar: thorn.pcap
Encoding: 57402 57402 1648
Width: 425
Flags: HW
LayerCount: 2
Fore
SplineSet
228.453125 372.001953125 m 1
 213.23277681 369.900762695 199.150802831 372.109409224 189.00000066 367.206545469 c 0
 181.420994209 363.545865713 176.033509836 355.920711099 174 339.577148438 c 0
 173.258535448 332.240174388 172.616787327 323.461816574 172.07421875 312.950195312 c 1
 187.930041328 314.123298986 203.903081842 315.2109375 221.557617188 315.2109375 c 3
 327.995091354 315.2109375 381.5546875 254.121539417 381.5546875 205.134765625 c 3
 381.5546875 117.67347515 294.139730061 81.21484375 196.642578125 81.21484375 c 3
 183.614257812 81.21484375 183.6015625 81.2335200393 172.622070312 81.5048828125 c 1
 173.405960895 70.0777747999 174.550779307 60.5272782811 175.349609375 54.72265625 c 0
 180.239257813 24.4990234375 190.46875 28.83203125 232.170898438 23.328125 c 1
 229.625 -6.56640625 l 1
 200.986463892 -1.44969435093 175.139868772 1.61400132683 148.882070669 1.61400132683 c 3
 120.279022607 1.61400132683 91.1880369513 -2.02141075497 57.46875 -10.5986328125 c 1
 48.2763671875 13.7890625 l 1
 91.3037109375 33.748046875 98.4991193458 32.7531945412 100.282226562 60.9404296875 c 0
 101.979780633 87.7752466395 102.775245554 119.287686779 102.775245554 152.851751119 c 3
 102.775245554 212.779968058 100.239330772 279.24869231 95.7744140625 337.310546875 c 0
 94.1188088627 360.24823044 81.826171875 368.252985403 43 369.888671875 c 1
 44.8896484375 399.146484375 l 1
 73.8688982882 393.931760606 101.916937177 391.732185955 130.15112192 391.732185955 c 3
 161.701467026 391.732185955 193.484252254 394.478792368 227.05859375 398.833984375 c 1
 228.453125 372.001953125 l 1
170.89453125 108.1328125 m 1
 180.352539062 105.623024123 186.37109375 103.635742188 198.549804688 103.635742188 c 3
 247.335164277 103.635742188 304.88671875 126.350266622 304.88671875 199.962890625 c 3
 304.88671875 254.884540906 255.973762378 282.664250534 221.000063069 288.58322788 c 0
 205.436556513 291.217208401 188.641564772 291.79296875 170.623046875 291.79296875 c 0
 169.816213123 291.79296875 170.496325836 145.899709362 170.89453125 108.1328125 c 1
EndSplineSet
EndChar
StartChar: iogonek.pcap
Encoding: 57426 57426 1672
Width: 377
UnlinkRmOvrlpSave: 1
Flags: HW
LayerCount: 2
Fore
SplineSet
222.630859375 15.54296875 m 1
 158.447679199 -46.1188656603 148.771484375 -75.4471425755 148.771484375 -132 c 3
 148.771484375 -178.376408535 170.134509604 -205.872070312 197.166015625 -205.872070312 c 3
 212.840568725 -205.872070312 231.660571522 -195.18359375 250.97265625 -171.599609375 c 1
 250.97265625 -171.599609375 262.081054688 -181.926757812 264.771484375 -190 c 1
 241.083847314 -242.788085938 201.174993147 -266 164.771484375 -266 c 3
 119.572780919 -266 79.5615234375 -226.657902331 79.5615234375 -160.834960938 c 3
 79.5615234375 -116.866708126 114.894177668 -31.8124401555 215.931640625 36.76171875 c 1
 222.630859375 15.54296875 l 1
EndSplineSet
Refer: 651 57355 N 1 0 0 1 0 0 2
EndChar
StartChar: oe.pcap
Encoding: 57443 57443 1689
Width: 781
UnlinkRmOvrlpSave: 1
Flags: HW
AnchorPoint: "Bottom" 379.104 -15 basechar 0
AnchorPoint: "Top" 493.436 537 basechar 0
LayerCount: 2
Back
SplineSet
304.743164062 456 m 3
 199.135742188 456 98.7431640625 365.97265625 98.7431640625 246 c 3
 98.7431640625 103.029296875 220.25390625 44 313.743164062 44 c 3
 343.069335938 44 372.500976562 51.3203125 399.522460938 64.44921875 c 1
 399.231445312 103.065429688 399.08203125 181.84375 399.08203125 268.88671875 c 0
 399.08203125 340.768554688 398.859375 409.017578125 398.702148438 434.717773438 c 1
 369.081054688 448.012695312 337.413085938 456 304.743164062 456 c 3
313.743164062 -12 m 3
 201.743164062 -12 42.7431640625 62 42.7431640625 246 c 3
 42.7431640625 398 168.743164062 512 304.743164062 512 c 3
 368.184570312 512 322.27734375 498.052734375 564.15625 498.052734375 c 3
 626.174804688 498.052734375 683.780273438 498.778320312 704.857421875 504.006835938 c 1
 727.689453125 489.434570312 734.751953125 480.116210938 734.751953125 468.404296875 c 0
 734.751953125 451.391601562 716.924804688 430.567382812 717.279296875 387.021484375 c 1
 662.2109375 384.75390625 l 1
 661.743164062 428 672.509765625 443.34765625 663.6484375 443.291015625 c 0
 603.258789062 442.908203125 518.724609375 441.45703125 458.0390625 442.873046875 c 0
 455.9140625 442.922851562 455.158203125 441.041992188 455.154296875 439.00390625 c 0
 455.052734375 388.391601562 454.994140625 325.135742188 455.065429688 277.174804688 c 1
 486.928710938 277.080078125 629.159179688 277 629.743164062 277 c 0
 638.828125 277 636.541015625 290.672851562 645.758789062 319.0546875 c 1
 699.828125 307.688476562 l 1
 692.524414062 280.52734375 689.013671875 257.125 689.013671875 232.61328125 c 0
 689.013671875 220.392578125 691.006835938 207.409179688 695.662109375 190.883789062 c 1
 641.939453125 174.918945312 l 1
 635.487304688 200.899414062 637.15234375 221 625.743164062 221 c 0
 601.3203125 221 486.26953125 221 454.743164062 221 c 1
 454.723632812 150.612304688 454.93359375 109.510742188 455.076171875 62.1201171875 c 0
 455.091796875 57.0107421875 457.555664062 54.8515625 457.85546875 54.857421875 c 0
 493.991210938 55.62109375 529.264648438 56.3818359375 562.771484375 56.3818359375 c 0
 601.364257812 56.3818359375 639.42578125 56.8759765625 671.072265625 56.662109375 c 0
 679.084960938 56.6083984375 681.706054688 62.1904296875 691.526367188 116.875 c 1
 745.220703125 104.475585938 l 1
 737.831054688 55.5439453125 733.161132812 46.0263671875 726.698242188 0.1865234375 c 1
 662.584960938 0.1572265625 595.2734375 0.5205078125 529.315429688 0.5205078125 c 3
 371.901367188 0.5205078125 373.959960938 -12 313.743164062 -12 c 3
EndSplineSet
Fore
SplineSet
355.21875 456 m 3
 249.611328125 456 130.083007812 365.97265625 104.58203125 246 c 0
 74.1923828125 103.029296875 183.15625 44 276.645507812 44 c 3
 305.971679688 44 336.958984375 51.3203125 366.771484375 64.44921875 c 1
 374.688476562 103.065429688 391.284179688 181.84375 409.78515625 268.88671875 c 0
 425.064453125 340.768554688 439.348632812 409.017578125 444.654296875 434.717773438 c 1
 417.859375 448.012695312 387.888671875 456 355.21875 456 c 3
264.7421875 -12 m 3
 152.7421875 -12 9.4716796875 62 48.58203125 246 c 0
 80.890625 398 231.122070312 512 367.122070312 512 c 3
 430.563476562 512 381.69140625 498.052734375 623.5703125 498.052734375 c 3
 685.588867188 498.052734375 743.348632812 498.778320312 765.537109375 504.006835938 c 1
 785.271484375 489.434570312 790.353515625 480.116210938 787.864257812 468.404296875 c 0
 784.248046875 451.391601562 761.994140625 430.567382812 753.092773438 387.021484375 c 1
 697.54296875 384.75390625 l 1
 706.267578125 428 720.295898438 443.34765625 711.422851562 443.291015625 c 0
 672.110317015 443.042145861 622.497136174 442.341743178 576.0000025 442.271149816 c 0
 550.975052979 442.233156177 526.852709175 442.377595429 505.724609375 442.873046875 c 0
 503.609375 442.922851562 502.454101562 441.041992188 502.017578125 439.00390625 c 0
 491.158203125 388.391601562 477.653320312 325.135742188 467.530273438 277.174804688 c 1
 499.374023438 277.080078125 641.586914062 277 642.170898438 277 c 0
 651.255859375 277 651.875 290.672851562 667.125976562 319.0546875 c 1
 718.779296875 307.688476562 l 1
 705.702148438 280.52734375 697.216796875 257.125 692.006835938 232.61328125 c 0
 689.409179688 220.392578125 688.642578125 207.409179688 689.78515625 190.883789062 c 1
 632.668945312 174.918945312 l 1
 631.739257812 200.899414062 637.676757812 221 626.267578125 221 c 0
 601.844726562 221 486.793945312 221 455.267578125 221 c 1
 440.287109375 150.612304688 431.760742188 109.510742188 421.830078125 62.1201171875 c 0
 420.759765625 57.0107421875 422.764648438 54.8515625 423.065429688 54.857421875 c 0
 459.36328125 55.62109375 494.798828125 56.3818359375 528.305664062 56.3818359375 c 0
 566.8984375 56.3818359375 605.065429688 56.8759765625 636.666015625 56.662109375 c 0
 644.666992188 56.6083984375 648.474609375 62.1904296875 669.918945312 116.875 c 1
 720.977539062 104.475585938 l 1
 703.1875 55.5439453125 696.494140625 46.0263671875 680.288085938 0.1865234375 c 1
 616.16796875 0.1572265625 548.93359375 0.5205078125 482.975585938 0.5205078125 c 3
 325.5625 0.5205078125 324.958984375 -12 264.7421875 -12 c 3
EndSplineSet
EndChar
StartChar: ohorn.pcap
Encoding: 57467 57467 1732
Width: 591
UnlinkRmOvrlpSave: 1
Flags: HW
AnchorPoint: "Top" 298 537 basechar 0
AnchorPoint: "Bottom" 296 -15 basechar 0
LayerCount: 2
Fore
SplineSet
541.561523438 515 m 3
 541.561523438 531.677734375 535.108508697 547.462890625 522.413085938 566.520507812 c 1
 546.015250143 598.009765625 579.922428955 615.90625 612.517578125 615.90625 c 3
 647.810168202 615.90625 668.178710938 579.580078125 668.178710938 539.022460938 c 3
 668.178710938 468.252707867 569.454941729 418.220703125 490.637695312 418.220703125 c 3
 470.736574074 418.220703125 455.61907552 420.592605924 443.431640625 425 c 1
 438.64107971 434.180333272 424.804812597 479.194414219 422.5859375 496.864257812 c 1
 444.854967863 483.794921875 474.545794295 471.524414062 496.860351562 471.524414062 c 3
 516.017352946 471.524414062 541.561523438 486.726842612 541.561523438 515 c 3
EndSplineSet
Refer: 657 57361 N 1 0 0 1 0 0 2
EndChar
StartChar: uhorn.pcap
Encoding: 57469 57469 1734
Width: 608
Flags: HW
AnchorPoint: "Bottom" 245.779 -15 basechar 0
AnchorPoint: "Top" 376.11 537 basechar 0
LayerCount: 2
Back
SplineSet
500 378 m 0xdc
 484 376 477 370 474 348 c 0
 473 344 465 279 465 147 c 0
 465 102 451 67 427 43 c 0
 394 10 341 -6 272 -6 c 1
 207 -6 162 8 134 36 c 0
 110 60 95 94 99 136 c 0
 100 147 102 327 101 333 c 0
 97 373 96 372 48 379 c 1
 51 404 l 1
 71.5 402 103 401 136 401 c 0
 169 401 203.5 402 230 404 c 1
 233 381 l 1
 195 378 177 374 174 325 c 0
 174 323 171 159 171 147 c 1
 171 114 178 85 195 65 c 0
 214 43 245 32 297 32 c 1
 315 32 365 31 397 60 c 0
 419 80 425 105 427 148 c 0
 429 201 429 290 426 345 c 0
 424 380 407 378 367 379 c 1
 368 404 l 1xbc
 391 401 445 401 484 401 c 3
 500 401 530 416 530 442 c 3
 530 450 526 459 516 471 c 1
 532 490 552 500 570 500 c 3
 600 500 616 475 616 446 c 3
 616 406 554 385 500 378 c 0xdc
EndSplineSet
Fore
SplineSet
591.579101562 431 m 1
 576.411132812 429 569.216796875 434 567.091796875 424 c 0
 564.793945312 413.189453125 550.505859375 334.580078125 518.62890625 196 c 0
 505.26953125 138.000976562 471.709960938 91.7958984375 435.508789062 59 c 0
 384.73046875 13 322.629882812 -11 256.629882812 -11 c 3
 167.629882812 -11 113.869140625 16.3564453125 83.5712890625 64 c 0
 62.5859375 97 58.787109375 137.047851562 65.291015625 185 c 0
 68.8173828125 211 107.768554688 415.05078125 111.303710938 425 c 0
 113.791992188 432 97.4296875 435 74.0673828125 438 c 1
 95.30859375 505 l 1
 116.458007812 501 150.033203125 499 184.033203125 499 c 3
 210.033203125 499 237.458007812 501 257.095703125 504 c 1
 251.4921875 440 l 1
 224.4296875 435 215.94140625 428 214.454101562 421 c 0
 211.690429688 408 188.168945312 320.740234375 174.69140625 201 c 0
 171.314453125 171 166.978515625 145.986328125 175.961914062 127 c 0
 192.522460938 92 218.271484375 72 297.271484375 72 c 3
 308.271484375 72 352.362304688 79.49609375 392.474609375 120 c 0
 410.30078125 138 423.342773438 159.958984375 434.416015625 195 c 0
 452.744140625 253 480.411132812 401.98046875 485.94140625 428 c 0
 486.3671875 430 478.4296875 435 453.854492188 437 c 1
 470.095703125 504 l 1
 512.640625 502.658203125 554.283203125 497.524414062 601.259765625 497.524414062 c 3
 617.456054688 497.524414062 638.5390625 506.083007812 641.921875 522 c 0
 645.466796875 538.677734375 638.678710938 554.462890625 622.7734375 573.520507812 c 1
 650.319335938 605.009765625 684.080078125 622.90625 712.877929688 622.90625 c 3
 758.532226562 622.90625 777.16015625 586.580078125 768.5390625 546.022460938 c 0
 753.982421875 477.5390625 659.24609375 429.123046875 591.579101562 431 c 1
EndSplineSet
EndChar
StartChar: exclam.pcap
Encoding: 57473 57473 1744
Width: 291
Flags: HW
LayerCount: 2
Fore
SplineSet
107.615234375 199.900390625 m 1
 125.724609375 285.099609375 130.384765625 332.0390625 135.90625 395.099609375 c 0
 139.268554688 433.5 116.94921875 452.700195312 128.021484375 493.5 c 1
 196.23046875 500.69921875 288.866210938 536.698242188 287.241210938 498.299804688 c 1
 261.987304688 469.5 264.359375 449.8046875 240.706054688 395.099609375 c 0
 210.528320312 313.5 182.580078125 286.299804688 163.959960938 198.700195312 c 1
 107.615234375 199.900390625 l 1
EndSplineSet
Refer: 48 46 N 1 0 0.212557 1 -15.0659 0 2
EndChar
StartChar: uni01EB.pcap
Encoding: 57492 57492 1793
Width: 591
UnlinkRmOvrlpSave: 1
Flags: HW
AnchorPoint: "Top" 304 537 basechar 0
LayerCount: 2
Fore
SplineSet
327.897460938 5.443359375 m 1
 247.037544309 -24.8741380557 234.846679688 -53.7129651514 234.846679688 -67.099609375 c 3
 234.846679688 -88.9919749036 244.890986138 -101.971679688 257.600585938 -101.971679688 c 3
 267.273101016 -101.971679688 278.886631763 -98.4562717008 290.803710938 -90.69921875 c 1
 290.803710938 -90.69921875 303.132362889 -118.986437988 306.118164062 -141.099609375 c 1
 283.879944803 -166.10445148 246.413081672 -177.099609375 212.237304688 -177.099609375 c 3
 178.278417358 -177.099609375 148.216796875 -148.606137637 148.216796875 -100.934570312 c 3
 148.216796875 -41.2134342126 194.300525475 20.0097183507 312.991210938 55.900390625 c 1
 327.897460938 5.443359375 l 1
EndSplineSet
Refer: 657 57361 N 1 0 0 1 0 0 2
EndChar
StartChar: uni021D.pcap
Encoding: 57518 57518 1821
Width: 382
UnlinkRmOvrlpSave: 1
Flags: HW
LayerCount: 2
Fore
SplineSet
218 208.62890625 m 1
 260.747227823 201.045047482 339 140.368578015 339 98.57421875 c 3
 339 -1.17355537386 154.469224988 -108.297223036 55.666015625 -117 c 1
 51.9765625 -89.42578125 l 1
 143.885849979 -82.2772756623 263 9.21354758968 263 84 c 3
 263 115.157847455 203.100548017 165.216866366 150.952148438 175.6875 c 1
 218 208.62890625 l 1
82.71484375 168.889648438 m 1
 166.167384212 188.29541443 246.119140625 228.37237333 246.119140625 296.212890625 c 3
 246.119140625 336.532144622 180.346289995 376.62890625 155.404296875 376.62890625 c 3
 125.414428478 376.62890625 90.0675250174 347.185146907 76.9287109375 297.7421875 c 1
 49 303.130859375 l 1
 54.0909562444 332.82877 58.6160843617 349.2571675 65.4052734375 378.955078125 c 1
 104.037614622 399.783314389 176.256714898 422 208.286132812 422 c 3
 235.152934118 422 319.071289062 365.761252747 319.071289062 322.68359375 c 3
 319.071289062 234.668980326 188.457740018 161.579945708 93.0478515625 146.663085938 c 1
 82.71484375 168.889648438 l 1
EndSplineSet
EndChar
StartChar: lambda.pcap
Encoding: 57531 57531 1836
Width: 472
Flags: HW
AnchorPoint: "Top" 246 537 basechar 0
AnchorPoint: "Bottom" 243 -15 basechar 0
LayerCount: 2
Fore
SplineSet
222 281 m 1
 189.502929688 198.138671875 135.883789062 81.7734375 126 51 c 0
 121.530273438 37.142578125 143 17 181 22 c 1
 180 -7 l 1
 161.333333333 -2.91666666667 125.652777778 -0.875 92.8078703704 -0.875 c 0
 69.3472222222 -0.875 47.3333333333 -1.91666666667 34 -4 c 1
 34 -2 31 13 30 22 c 1
 60 27 79.70703125 42.126953125 82 47 c 0
 138 166 186.415039062 275.237304688 226 372 c 0
 235 394 231 390 234 415 c 1
 265 415 l 1
 269 395 265.59765625 395.208007812 273 373 c 0
 316 244 345 161 407 37 c 0
 412.603515625 25.79296875 432 21 442 21 c 1
 442 19 442 5 441 -3 c 1
 423.976824749 -0.381049961378 400.475800154 1.09475019311 376.567793651 1.09475019311 c 0
 345.702689974 1.09475019311 314.159283114 -1.36491673104 295 -7 c 1
 295 -7 291 11 289 18 c 1
 304.40625 23 320.377929688 36.837890625 318 44 c 0
 289.000976562 131.708007812 256.813476562 208.897460938 222 281 c 1
EndSplineSet
EndChar
StartChar: upsilon.pcap
Encoding: 57535 57535 1840
Width: 500
Flags: HW
AnchorPoint: "Bottom" 249 -15 basechar 0
AnchorPoint: "Top" 249 537 basechar 0
LayerCount: 2
Fore
SplineSet
290.734375 226.9375 m 0
 284.92340859 199.825944147 284.674014127 169.243217055 284.876953125 139 c 0
 285.074925003 109.497013672 285.536461918 80.7197585013 287.53125 57.037109375 c 0
 289.329705981 35.6853666234 301.931671897 25.2943303389 348.592773438 21.3173828125 c 1
 344.427734375 -6.41015625 l 1
 311.150244932 -2.2216796875 280.295992277 0.77001953125 249.280157256 0.77001953125 c 0
 218.264322235 0.77001953125 187.086904847 -2.2216796875 153.163085938 -10 c 1
 145.572265625 15.1298828125 l 1
 190.783575203 25.5590682279 206.958984375 35.2440935087 211.958984375 71.00390625 c 0
 213.709905167 83.5264261775 215.636500288 112.080937794 215.97265625 142 c 0
 216.3736417 177.689114508 215.334132277 215.079375426 212.265625 227.53515625 c 0
 200.998787178 273.269857137 167.199101852 347.52734375 100.673828125 347.52734375 c 3
 83.5106144034 347.52734375 66.3474006819 340.741346955 47.5517578125 327.16796875 c 1
 33 344.518554688 l 1
 44.3876953125 392.171003407 77.9189453125 419 103.856445312 419 c 3
 216.079908548 419 231.470396555 298.137695312 252.6328125 222.150390625 c 1
 272.599906683 298.137695312 287.576672118 419 396.775390625 419 c 3
 422.713867188 419 455.612304688 392.171003407 467 344.518554688 c 1
 452.448242188 327.16796875 l 1
 433.652599318 340.741346955 416.489385597 347.52734375 399.326171875 347.52734375 c 3
 334.589343417 347.52734375 300.695392518 273.411470721 290.734375 226.9375 c 0
EndSplineSet
EndChar
StartChar: e.smcp
Encoding: 57675 57675 2027
Width: 562
Flags: HW
LayerCount: 2
Fore
SplineSet
141.829101562 556.6 m 1
 192.040429687 554.3 284.475390625 552.3 368.575390625 552.3 c 3
 434.96640625 552.3 496.73203125 553.6 517.818457031 558.9 c 1
 537.26640625 543.6 542.225585938 534 539.611230469 521.7 c 0
 536.38671875 504.4 517.73203125 479.6 508.427539062 430.2 c 1
 444.313378907 425.9 l 1
 445.126953125 449.7 449.091015625 476.666699219 442.594824219 477.4 c 0
 409.956445312 480.299609375 365.584179687 481.1 325.881640625 481.1 c 1
 309.481640625 481.1 290.917773437 480.8 277.202246094 481.2 c 0
 273.338671875 480.9 270.35 478.6 269.351269531 473.9 c 0
 258.613085938 421.5 246.944628906 361.9 235.422851562 312.4 c 1
 262.830371094 314.4 374.724023437 311.7 375.955957031 312 c 0
 383.98984375 310.9 383.551757812 324.2 396.10078125 352.7 c 1
 463.396289063 340.4 l 1
 451.047265625 311.9 442.958105469 287.7 438.270898438 261.2 c 0
 435.841503907 246.8 435.529882812 232 437.226855468 212.9 c 1
 368.136230469 196.7 l 1
 363.346972656 224.3 370.516210937 242.3 360.416210937 242.3 c 0
 339.51875 242 248.440917968 241.7 218.759472656 242 c 1
 204.581445312 175.3 195.226953125 132.7 186.325488281 88 c 0
 184.922558594 81.4 188.994824219 80.8 190.794824219 80.8 c 0
 219.443847656 81.5 248.928613282 81.9 275.528613282 81.9 c 1
 305.828613282 81.9 334.741210937 82.9 360.405078125 83.2 c 0
 385.932519531 83.8 395.490625 91.6 432.335546875 131.8 c 1
 485.686035156 115.1 l 1
 465.105078125 62.5 456.099316406 49.3 437.8203125 0 c 1
 365.529003906 -0.9 290.233203125 1 216.733203125 1 c 3
 150.733203125 1 88.0229492188 -1.4 33.7420898438 -12.6 c 1
 36.8022460938 55.9 l 1
 65.303125 63.9 80.8079101563 69.1 82.71796875 71.5 c 1
 89.3076171875 102.5 108.101367187 192.8 129.208203125 292.1 c 0
 149.720117187 388.6 166.105957032 467.1 167.253710937 472.5 c 0
 168.380078125 477.8 161.774804687 480.6 125.26875 480.1 c 1
 141.829101562 556.6 l 1
EndSplineSet
EndChar
StartChar: i.smcp
Encoding: 57679 57679 2031
Width: 404
Flags: HW
LayerCount: 2
Fore
SplineSet
137.316210937 562.5 m 1
 178.709179688 554 221.793066406 551.1 265.793066406 551.1 c 3
 310.493066406 551.1 357.470410157 555.7 405.222265625 563 c 1
 394.383984375 489.9 l 1
 336.453125 487.4 315.88125 483.3 313.927246093 477.4 c 0
 294.103320312 421.3 274.182324218 338.4 250.354492188 226.3 c 0
 239.322460938 174.4 228.845898438 115.7 221.0546875 73.4 c 0
 219.099414062 64.2 250.959082031 62.6 299.263671875 59.8 c 1
 279.852441406 -8 l 1
 237.742675781 -2.4 195.052636719 0 153.152636719 0 c 3
 104.852636719 0 56.83046875 -3.4 11.8147460937 -11 c 1
 20.0762695312 60.8 l 1
 79.8838867188 64.6 106.8890625 61.8 108.953222656 70.1 c 0
 125.281445313 136.1 143.352832031 215 161.802734375 301.8 c 0
 177.743945312 376.8 187.732519531 433.2 195.102441406 475.4 c 0
 196.483886719 481.9 172.802636719 483.4 116.7546875 490.7 c 1
 137.316210937 562.5 l 1
EndSplineSet
EndChar
StartChar: l.smcp
Encoding: 57682 57682 2034
Width: 571
Flags: HW
LayerCount: 2
Fore
SplineSet
340.491113281 562 m 1
 330.271875 490.4 l 1
 257.541308594 483.2 255.787304688 477.3 253.7890625 467.9 c 0
 244.010351562 418.6 182.392382812 127.3 177.693945313 109.9 c 1
 171.913574219 78 170.655566406 70.2 177.155566406 70.2 c 0
 238.142675781 69.2 357.130761718 68.2 398.797460938 75.1 c 0
 418.76875 79.2 422.070117187 103.2 450.675488281 157.8 c 1
 519.260839843 145.5 l 1
 508.315429688 89.3 495.565722657 93.3 453.743261719 -13.6 c 1
 433.497363281 -7.7 424.760546875 -2.7 387.372460938 -1.7 c 0
 375.472460937 -1.7 299.998242188 0.3 211.898242187 0.3 c 1
 25.3982421875 0.3 48.3825195312 -7.3 1.68251953125 -7.3 c 1
 10.4755859375 67 l 1
 38.7904296875 66.6 62.515234375 68.6 63.3046875 70.9 c 0
 66.4296875 80.9 82.5866210937 155.5 102.184277344 247.7 c 0
 128.031542969 369.3 144.942773438 465.8 146.897753906 479.7 c 0
 148.021972656 486.4 138.442871093 486.5 96.1918945312 487.2 c 1
 116.79375 560.6 l 1
 150.327050782 553.7 192.573828125 551.1 228.873828125 551.1 c 3
 265.773828125 551.1 306.938964844 554.7 340.491113281 562 c 1
EndSplineSet
EndChar
StartChar: n.smcp
Encoding: 57684 57684 2036
Width: 701
Flags: HW
LayerCount: 2
Fore
SplineSet
121.502050781 560.1 m 1
 140.653710937 559.4 188.56953125 554.3 216.974121093 551.5 c 0
 234.351171875 549.690527343 243.110742188 538.5 245.9453125 534.9 c 0
 330.9078125 399.7 418.016308594 308 527.622460938 189 c 1
 543.250195312 259.7 552.266601563 291.3 569.271289063 371.3 c 0
 574.266796875 394.8 579.897753906 418 583.067773438 439.5 c 0
 590.102734375 485.3 565.002441407 477.3 509.991992187 487.6 c 1
 534.446289062 563.6 l 1
 577.21796875 555 615.680273438 552 655.080273438 552 c 3
 678.180273438 552 702.641894532 553.7 729.313378907 557.8 c 1
 722.1390625 485 l 1
 685.012695312 479.7 670.531542969 481.2 668.745898438 472.8 c 0
 630.460351563 324.2 611.153125 245.6 576.187792969 81.1 c 0
 571.043945312 56.9 571.222753906 23.4 571.678515625 3.9 c 1
 490.809375 -14.3 l 1
 484.473046875 27.4 464.086230469 57.1 443.357714844 89.9 c 0
 368.981640625 200.1 300.147265625 273.8 217.105761718 380.4 c 1
 215.256542969 371.7 159.157714844 123.3 156.920410156 115.6 c 1
 144.48046875 64.6 161.208398437 73.2 233.802636719 68 c 1
 205.732226562 -10.9 l 1
 174.347949218 -3.3 142.349511719 0 114.349511719 0 c 3
 80.7495117188 0 47.3860351563 -5 6.30869140625 -9.6 c 1
 14.3760742188 75.4 l 1
 55.8459960938 76.2 68.3823242188 75.9 70.6168945312 85 c 0
 95.3918945313 181.8 115.076757813 273 136.354003906 373.1 c 0
 142.560449219 402.3 145.131152344 411.1 150.274804688 435.3 c 1
 154.164648438 453.6 157.321582031 486.8 101.710058594 481.1 c 1
 121.502050781 560.1 l 1
EndSplineSet
EndChar
StartChar: s.smcp
Encoding: 57689 57689 2041
Width: 474
Flags: HW
LayerCount: 2
Fore
SplineSet
23.048046875 154.9 m 1
 98.4737304684 164.9 l 1
 110.853808594 126.7 113.54921875 108.8 116.938867187 106.4 c 0
 131.32421875 86.1 174.763183594 63.7 215.363183594 63.7 c 3
 290.363183594 63.7 314.280957031 98.6 324.250390625 145.5 c 0
 333.687304687 189.9 257.717675781 230.5 192.383789062 258.1 c 0
 176.986621094 264.7 79.6387695313 300.7 103.083398437 411 c 0
 119.153125 486.6 212.3625 563.8 319.2625 563.8 c 3
 367.5625 563.8 387.572949219 553.5 404.042382812 546.3 c 0
 410.826269531 543.4 411.397460938 547.5 418.238085937 557.1 c 1
 479.57421875 548.8 l 1
 469.135253906 529.8 464.86640625 516.3 463.466503906 503.6 c 0
 454.719238281 415.4 458.750097656 417.9 378.268457032 424.1 c 1
 372.213964843 459.6 373.877929688 467.9 365.238574219 474.3 c 0
 351.7578125 483.8 341.031054687 491.2 296.631054687 491.2 c 3
 248.131054687 491.2 203.201171875 458.6 197.377636718 431.2 c 0
 188.216308594 388.1 223.598925781 369.2 336.466894531 317.3 c 0
 424.122558594 277.1 426.298925781 208.3 414.182910157 151.3 c 0
 399.218652344 80.9 331.042382813 -11.2 186.642382812 -11.2 c 3
 153.842382813 -11.2 123.025195312 -1.4 86.8442382812 20.8 c 1
 84.4901367187 14.9 77.0006835937 4.6 74.3129882812 -2.4 c 1
 5.4609375 3 l 1
 21.3208007812 63.5 18.8266601562 64 23.048046875 154.9 c 1
EndSplineSet
EndChar
StartChar: t.smcp
Encoding: 57690 57690 2042
Width: 577
Flags: HW
LayerCount: 2
Fore
SplineSet
168.023828125 553.3 m 0
 275.072851562 554 388.247363281 552 499.847363281 552 c 3
 522.647363281 552 545.447363281 552 567.396386719 552.7 c 0
 579.296386719 552.7 588.171972656 566.7 597.8125 576.3 c 1
 647.964355469 542.2 l 1
 625.9015625 508.5 595.566894531 458 588.850292968 418.4 c 1
 513.747167969 432.5 l 1
 534.998730469 481.2 l 1
 503.249707031 480.5 442.604589844 481.7 392.317480469 482.7 c 1
 371.545898437 387.8 341.654980469 262.7 325.308886718 185.8 c 0
 318.337402344 153 308.283398437 105.7 305.559667969 86.3 c 0
 302.752441406 69.8 316.524511719 73.9 381.019042968 68.7 c 1
 355.754492187 -9.7 l 1
 332.218554688 -1.4 278.444042969 0.6 243.244042969 0.6 c 3
 191.144042969 0.6 145.587695312 -3.9 107.989355469 -13.3 c 1
 112.949023438 67.9 l 1
 158.027734375 67.8 193.997070312 73.3 194.591601562 76.1 c 0
 210.578710938 149.9 247.41796875 317.1 270.841796875 427.3 c 0
 273.520019531 439.9 280.576855469 473.1 283.130371094 483.7 c 1
 252.068457031 482 215.417480469 482.7 177.102636719 483.1 c 0
 141.650976562 483.8 145.400097656 484.5 103.434375 423.5 c 1
 34.2232421875 454.5 l 1
 61.1627929687 489.5 103.429980469 553.8 129.999511719 588 c 1
 144.717089843 573.5 158.923828125 553.3 168.023828125 553.3 c 0
EndSplineSet
EndChar
StartChar: u.smcp
Encoding: 57691 57691 2043
Width: 658
Flags: HW
LayerCount: 2
Fore
SplineSet
109.249804688 559.3 m 1
 132.135351563 555 169.010546875 553 206.610546875 553 c 3
 236.510546875 553 267.535351563 555 290.536914062 558.3 c 1
 284.614648438 492.8 l 1
 250.88828125 487.5 240.956542969 485 238.895019531 475.3 c 0
 235.940332031 461.4 208.006152344 340.8 189.515332032 215.7 c 0
 184.626953125 180 179.765332031 149.6 192.652636719 127.9 c 0
 212.213183594 92.9 244.562207031 72.9 332.862207031 72.9 c 3
 346.262207031 72.9 400.160839843 77.6 442.337597656 120.3 c 0
 465.537011719 141 480.133886719 167.8 493.467382812 210.3 c 0
 514.499902343 278.2 543.84609375 433.2 552.772558594 479.9 c 0
 554.090722657 486.1 542.815722657 488.1 512.776953125 489.8 c 1
 529.40078125 558.6 l 1
 551.435351563 555 586.219238281 552.1 618.119238281 552.1 c 3
 649.219238281 552.1 678.507910156 554.4 693.362402343 560.3 c 1
 682.88828125 487.5 l 1
 652.554492188 486.4 636.170800781 489.3 634.363867188 480.8 c 0
 631.834375 468.9 615.751464844 376.3 577.31640625 211 c 0
 562.6484375 146.7 528.150683594 95.9 486.698535157 59.9 c 0
 432.302441407 12.4 363.000878907 -11.6 288.300878907 -11.6 c 3
 191.200878907 -11.6 130.93984375 15.4 98.0791015625 63.1 c 0
 73.3395507812 98.2 69.8174804688 144.2 77.9952148438 198.2 c 0
 82.2229492188 227.5 130.763378906 464.8 132.407128906 476.3 c 0
 134.014160156 484.8 119.260546875 486.9 87.6259765625 490.5 c 1
 109.249804688 559.3 l 1
EndSplineSet
EndChar
StartChar: oe.smcp
Encoding: 57767 57767 2119
Width: 869
Flags: HW
AnchorPoint: "Top" 463 599 basechar 0
AnchorPoint: "Bottom" 466 -15 basechar 0
LayerCount: 2
Fore
SplineSet
313.53 495.86 m 0
 209.33 495.86 126.63 411.71 126.63 279.3 c 0
 126.63 146.8 237.65 55.2 343.2 55.2 c 0
 372.28 55.2 408.94 61.44 424.05 78.6 c 1
 423.92 116.29 423.82 201.26 423.82 292.07 c 0
 423.82 337.6 423.59 437.82 423.47 456.35 c 1
 403.42 481.16 353.51 495.86 313.53 495.86 c 0
332.8 -13.09 m 3
 202.8 -13.09 32.7 73.51 32.7 271.61 c 0
 32.7 438.61 171.6 565.21 323.8 565.21 c 3
 390.94 565.21 370.7 552.31 605.25 552.31 c 3
 679.55 552.31 748.25 553.54 770.17 558.9 c 1
 792.83 543.71 799.84 534.03 799.84 521.81 c 0
 799.84 504.5 782.03 483.09 781.52 433.81 c 1
 721.45 430.95 l 1
 717.46 460.26 729.16 484.98 719.87 485.17 c 0
 664.46 486.45 577.42 485.85 516.17 487.01 c 0
 512.33 486.92 509.95 484.46 509.9 479.75 c 0
 510.02 425.63 510.48 360.27 509.76 309.22 c 1
 541.65 310.68 679.61 308.98 681.28 309.15 c 0
 689.86 308.57 687.76 324.17 696.09 353.02 c 1
 759.76 341.22 l 1
 752.39 312.68 748.51 287.48 748.51 261.1 c 0
 748.51 246.65 750.81 231.25 755.72 212.27 c 1
 694.8 195.05 l 1
 685.39 223.94 688.96 244.59 678.75 244.52 c 0
 654.29 244.22 543.52 244.03 508.41 244.22 c 1
 508.4 173.98 508.65 126.62 508.68 79.52 c 0
 508.69 72.37 512.75 71.05 514.63 71.11 c 1
 547.27 72.19 583.08 72.42 612.41 72.42 c 0
 645.71 72.42 682.97 72.91 711.07 73.19 c 0
 731.26 73.56 737.25 84.47 759.06 128.95 c 1
 814.81 113.56 l 1
 805.31 60.98 799.75 49.31 791.83 0.05 c 1
 719.7 -0.86 643.92 0.87 570.43 0.87 c 3
 405 0.87 402.1 -13.09 332.8 -13.09 c 3
EndSplineSet
EndChar
StartChar: uhorn.smcp
Encoding: 57793 57793 2145
Width: 673
Flags: HW
AnchorPoint: "Bottom" 348 -15 basechar 0
AnchorPoint: "Top" 358 580 basechar 0
LayerCount: 2
Fore
SplineSet
634.46 483.41 m 1
 613.83 482.01 596.3 487.33 596.3 476.68 c 0
 596.3 465.02 599.35 375.28 596.6 212.78 c 0
 595.58 148.48 571.52 98.08 538.1 61.68 c 0
 493.8 12.96 429.6 -11.6 354.9 -11.6 c 0
 257.8 -11.6 192.32 16.55 148.8 64.99 c 0
 116.82 100.42 103.75 146.12 100 200.09 c 0
 98 229.39 95.67 466.38 95.3 477.85 c 0
 95.1 486.35 79.9 488.45 47.5 492.05 c 1
 54.5 558.97 l 1
 78.3 554.67 115.6 552.67 153.2 552.67 c 0
 182.43 552.67 212.59 554.67 234.34 557.97 c 1
 242.22 494.13 l 1
 206.41 487.94 195.79 485.67 195.9 476.19 c 0
 196.01 462.4 192.18 342.17 201.7 217.59 c 0
 204.17 180.11 206.04 149.21 225.38 125.68 c 0
 252.6 90.57 289.2 69.24 377.73 69.24 c 0
 395.68 69.24 446.15 76.88 482.23 118.86 c 0
 501.59 140.56 512.12 167.55 515.79 212.08 c 0
 521.72 279.87 517.98 434.41 517.79 480.9 c 0
 517.79 486.88 505.31 488.77 472.8 491.8 c 1
 474.8 558.6 l 1
 518.03 555.29 574.15 550.44 625.04 550.44 c 3
 644.14 550.44 668.49 558.93 668.49 579.98 c 0
 668.49 594.93 660.34 608.76 643.44 626.46 c 1
 663.69 653.76 690.95 668.98 716.88 668.98 c 0
 760.78 668.98 785.81 633.97 785.81 595.96 c 0
 785.81 525.14 702.52 482.21 634.46 483.41 c 1
EndSplineSet
EndChar
StartChar: uni0195.smcp
Encoding: 57822 57822 2174
Width: 916
Flags: HW
LayerCount: 2
Fore
SplineSet
536.808203125 162.402832031 m 1
 536.808203125 83.7452577078 566.43646334 28.1 648.4 28.1 c 1
 732.510946398 28.1 770.47268638 63.160551407 773.2 149.2 c 1
 774.769452798 208.228588745 772.9 290.091644905 772.2 344.1 c 1
 770.8 381.558230162 748.461322933 379.313867707 709.6 381.1 c 1
 711.5 408.8 l 1
 735.872285095 405.463965443 771.448190063 402.8492527 808.117462934 402.8492527 c 1
 836.923481626 402.8492527 865.832198703 405.104051835 882.1 408.2 c 1
 884.4 380.1 l 1
 850.463799246 378.129781681 831.841274494 378.70678698 828 344.7 c 0
 823.8 328.482606399 820 273.74605327 819.3 158.1 c 1
 819.3 42.1978570808 723.771487653 -16.5 621.6 -16.5 c 1
 519.375245792 -16.5 464.334850297 44.6979665722 465.9 145 c 1
 466.10234375 153.498054369 465.5 155.923773951 466.5 230.1 c 1
 182.2 230.1 l 1
 181.2 171.098888715 180.649699956 106.997879123 183.9 59.4 c 0
 185.2 26.2 221.1 28.1 243.3 21.8 c 1
 243.3 21.8 240 3 239.7 -6.1 c 1
 204.007612452 0.154944980827 168.766131418 3.54679724664 135.155366416 3.54679724664 c 0
 105.313490725 3.54679724664 76.7563747346 0.88378124999 50.5 -4.8 c 1
 50.5 -4.8 46.9 15 45.6 26.7 c 1
 69.7 32 97.6010082901 32.0101985087 100.2 60.1 c 0
 106.592035428 135.524459054 110.295958228 248.146482965 110.295958228 331.112817812 c 0
 110.295958228 385.681513369 108.692653328 427.419804968 105.2 437.3 c 0
 99.6 460.7 76 461.4 49.2 465 c 1
 51.5 493.9 l 1
 91.6880056332 489.809642149 127.188509147 486.53150249 165.462832206 486.53150249 c 0
 190.449656339 486.53150249 216.650977119 487.918199837 246.2 491.3 c 1
 248.2 463.4 l 1
 231 460.1 195.245319488 459.378224968 192.4 445.8 c 1
 187.1 420.696972657 185.9 333.404296875 183.9 261.7 c 1
 466.5 262.4 l 1
 466.5 307.152636719 465.806491709 358.416252067 463.6 423.4 c 0
 461.9 459 434.1 457 405.7 466.9 c 1
 409.3 493.2 l 1
 437.647217518 488.153425621 463.803346364 485.24344048 490.298462559 485.24344048 c 0
 521.005730824 485.24344048 552.179096202 489.144697722 587.4 498.1 c 1
 592 470.2 l 1
 559.1 461.7 550.141842851 460.203951828 547.5 433.6 c 0
 538.339736862 337.250300852 536.808203125 209.72456416 536.808203125 162.402832031 c 1
EndSplineSet
EndChar
StartChar: pi.smcp
Encoding: 57857 57857 2209
Width: 639
Flags: HW
LayerCount: 2
Fore
SplineSet
184.5 55 m 0
 185.676367188 21.7938476563 221.7 23.7 243.9 17.4 c 1
 243.9 17.4 240.6 -1.4 240.3 -10.5 c 1
 204.607612452 -4.24505501917 169.366131418 -0.853202753358 135.755366416 -0.853202753358 c 0
 105.913490724 -0.853202753358 77.3563747346 -3.51621875001 51.1 -9.2 c 1
 51.1 -9.2 47.5 10.6 46.2 22.3 c 1
 70.3 27.6 98.4690429688 27.5931640625 100.8 55.7 c 0
 106.982943405 129.821125275 109.868481496 239.184656673 109.868481496 322.231325499 c 0
 109.868481496 380.968035736 108.433148464 426.602676564 105.8 437.3 c 0
 100.2 460.7 76.6 461.4 49.8 465 c 1
 52.1 493.9 l 1
 88.0541992188 490.35078125 120.157324219 487.116015625 154.010742188 486.60625 c 1
 210.549316406 486.844726562 439.125585937 486.693164062 499.219140625 486.570703125 c 1
 527.707617187 487.200292969 557.075292969 490.870507813 589.2 498.1 c 1
 593.8 470.2 l 1
 560.9 461.7 551.928222656 460.208203125 549.3 433.6 c 0
 543.099340554 363.644778273 538.141273709 250.476352616 538.141273709 164.387685542 c 0
 538.141273709 109.414426925 540.044610257 64.9030295813 544.4 49.3 c 0
 552 21.5 572.3 19.8 592.5 17.1 c 1
 592.5 17.1 588.9 -0.1 589.2 -9.2 c 1
 564.353421062 -3.90741591169 535.880514224 -0.896064511495 506.251364012 -0.896064511495 c 0
 475.397269476 -0.896064511495 443.291975989 -4.15677878441 412.8 -11.5 c 1
 412.8 -10.1 407.5 6.6 406.2 15.8 c 1
 437.8 24.4 458.20703125 26.2713867188 460.4 54.8 c 0
 465.929580232 130.083867528 469.029325669 196.811054053 469.029325669 268.509582646 c 0
 469.029325669 314.613091539 467.838142601 362.692600831 465.4 416.4 c 0
 463.893066406 444.74609375 442.086425781 453.823925781 413.65 454.159375 c 0
 392.315136719 455.166894531 265.214746094 455.075488281 239.65 455.030078125 c 1
 221.74609375 455.083105469 195.958300781 449.941992187 193 438.8 c 0
 184.881926349 394.660183091 181.770885951 295.665945235 181.770885951 205.793667539 c 0
 181.770885951 148.459460772 183.186675217 92.0295312525 184.5 55 c 0
EndSplineSet
EndChar
StartChar: omega.smcp
Encoding: 57862 57862 2214
Width: 587
Flags: HW
LayerCount: 2
Fore
SplineSet
242.119140625 1.1322265625 m 1
 162.01431353 0.96044921875 86.3308488484 -1.45888671875 76.2203125 -6.5 c 1
 78.512890625 44.6486681841 76.8724609375 96.8217555093 69.6465820313 137.585546875 c 1
 105.771289063 141.13359375 l 1
 106.471289063 108.084492459 107.682226563 79.3043149884 141.638964844 75.5865234375 c 1
 156.258957656 73.5640625 173.729318721 72.1750976563 192.162988281 71.4049804687 c 1
 186.862833405 153.177662577 53.5 172.811719577 53.5 299.353808594 c 1
 53.5 407.328125 164.150655591 501.6 296.931054688 501.6 c 1
 428.918889887 501.6 535.4 410.617871094 535.4 299.353808594 c 1
 535.4 173.695394637 400.889168597 146.613692965 393.941015625 71.3692382813 c 1
 416.388609944 72.312109375 436.463055233 75.7678621677 450.952148438 77.0061523438 c 0
 478.422949219 79.2388742098 476.134570312 109.386222651 479.949902344 138.975390625 c 1
 518.364355469 136.1375 l 1
 507.353613281 80.1345703124 504.9875 40.7176757813 508.299902344 -6.5 c 1
 497.136646515 -2.02724609375 420.822403035 0.61396484375 340.543457031 1.061328125 c 1
 354.299293016 173.049121094 449.223730469 131.138378906 449.223730469 285.1609375 c 1
 449.223730469 379.113591237 367.062955955 462.627636719 267.295410156 462.627636719 c 1
 196.063870651 462.627636719 138.470507812 406.359433694 138.470507812 328.449023437 c 1
 138.470507812 175.716894531 228.831360851 185.43359375 242.119140625 1.1322265625 c 1
EndSplineSet
EndChar
StartChar: uni1E9E.smcp
Encoding: 57944 57944 2296
Width: 687
Flags: HW
LayerCount: 2
Fore
SplineSet
423.6 466.7858 m 1
 394.98432196 478.648570486 362.770646373 482.410253907 340.075585938 482.410253907 c 3
 220.597629026 482.410253907 160.511230468 406.926828042 160.511230468 295.763378907 c 0
 160.511230468 274.53437177 164.56481936 78.8255002296 164.702246093 74.1885742188 c 0
 166.818215617 24.1654001577 186.889706378 22.3464866418 235.558691407 16.8897460937 c 1
 232.4125 -10.0526367187 l 1
 171.195413678 -5.08564453125 70.6781689851 -5.08564453125 25.3322265625 -10.0526367187 c 1
 21.4 19.7276367187 l 1
 78.5593655042 28.138768722 86.92421875 28.8421263276 86.92421875 72.06015625 c 0
 86.92421875 81.5387125486 84.3919921875 278.07230364 84.3919921875 297.030078125 c 3
 84.3919921875 411.753306923 184.356761376 515 328.27890625 515 c 3
 412.350099218 515 483.12979375 487.122953907 530.390429688 461.822324218 c 1
 520.1671875 438.292167188 l 1
 437.172814843 462.62155 383.328710937 409.7314875 383.328710937 361.037597657 c 3
 383.328710937 306.771232767 429.343214611 300.627854071 512.6 269.7 c 0
 611.8388 235.5794 636.8 178.058745098 636.8 124.639648438 c 3
 636.8 68.7903344329 596.583209391 -8.7 456.190136718 -8.7 c 3
 420.573461885 -8.7 383.014378501 -3.75544298195 350.636035157 9.06591796875 c 0
 335.52626375 15.048974003 333.593847657 12.9415420603 327.829394532 -5.1431640625 c 1
 302.663964843 -1.6052734375 l 1
 303.275578193 48.8449046724 301.441175804 62.0057894083 285.544042968 140.239257812 c 1
 312.282226562 144.49609375 l 1
 323.452050125 104.287158587 331.559992338 92.16963319 347.758300782 76.3454101562 c 0
 374.801429098 49.9472620824 434.16405055 26.0086914063 476.377832032 26.0086914063 c 3
 540.487804973 26.0086914063 566.885742188 72.1421764998 566.885742188 107.677929687 c 3
 566.885742188 184.09244982 464.722462825 205.984599048 425 222.3 c 0
 405.511154589 229.572747686 312.360644532 256.990364059 312.360644532 346.800097657 c 3
 312.360644532 393.593876474 349.4227 447.799569095 423.6 466.7858 c 1
EndSplineSet
Substitution2: "salt-1" germandbls.smcp
EndChar
StartChar: eng.altsmcp
Encoding: 57995 57995 2347
Width: 542
Flags: HW
LayerCount: 2
Fore
SplineSet
371.9 -243.6 m 0
 328.952205883 -272 295.9 -295.6 236.9 -295.6 c 3
 204.9 -295.6 154.9 -284.6 129.9 -262.6 c 1
 130.967346939 -234.7140625 129.9 -234.7140625 182.2 -196.5 c 1
 214.880555555 -213 238.562152755 -235 272.7 -235 c 3
 302.728873947 -235 343.845131536 -231.609390999 362.897628573 -211.500000461 c 0
 390.38004467 -182.641574818 406.279246551 -144.880111257 411.903648307 -108.200000929 c 0
 417.644494457 -72.2148162904 420.624414063 -4.870587954 420.624414063 138.8 c 3
 420.624414063 213.446820959 418.517800894 312.275879442 416.120117188 343.175 c 0
 411.437109375 397.015397621 388.467773438 435.55 324.739941406 435.55 c 3
 266.226757813 435.55 215.027832031 418.53 174.8 393 c 1
 173.506640625 282.302450059 168.979882812 128.116890823 168.979882812 80.675 c 3
 168.979882812 28.8279968095 202.899003001 33.0095039968 245.5 26.7 c 1
 245.5 26.7 241.5 -4 241.2 -8.2 c 1
 198.417718159 -1.41961969309 163.929477178 3.53369404002 121.683681685 3.53369404002 c 3
 89.6338451269 3.53369404002 53.8593722346 -1.04165407609 21.9 -6.2 c 1
 21.9 -6.2 18.3 24.1 17.7 29.5 c 1
 61.1078215258 37.1317754337 85.986687036 42.0762347575 92.4600585936 86.8 c 0
 97.7573242186 126.359667969 98.3 202.935839844 98.3 243.775 c 3
 98.3 268.275 95.5011083517 352.768335042 89.7798828125 377.3 c 0
 82.1266601562 411.86875 72.4913085938 414.3 57.1201171875 414.3 c 3
 46.6018554688 414.3 37.7 410.9 26.0600585938 410.375 c 1
 22.2 441.4 l 1
 61.9213867188 449.248144531 102.242773438 456.649804688 155.320117187 499.7 c 1
 158.720504869 498.867636237 175.140038376 486.425119436 176.108605005 483.50000069 c 1
 174.554260557 467.863462073 172.760058594 442.230982545 172.760058594 419.95 c 1
 228.339746094 455.903222656 288.551367187 499.975 361.5 499.975 c 3
 442.629003906 499.975 492.639941406 450.975 492.639941406 364 c 3
 492.639941406 277.131568456 490.257226563 165.956934477 490.257226563 -12 c 3
 490.257226563 -82.1315841367 481.511167372 -124.464879622 464.489841486 -155.4 c 0
 443.620138625 -190.842558469 414.801457604 -215.076840066 371.9 -243.6 c 0
EndSplineSet
EndChar
StartChar: Ring
Encoding: 58026 58026 165
Width: 281
Flags: HW
AnchorPoint: "Top" 141 699 mark 0
LayerCount: 2
Fore
SplineSet
140.5 887.891601562 m 3
 113.448746617 887.891601562 88.4013671875 865.849618447 88.4013671875 835.79296875 c 3
 88.4013671875 805.736132812 112.447744641 785.698242188 140.5 785.698242188 c 3
 167.551424731 785.698242188 192.598632812 807.740225303 192.598632812 837.796875 c 3
 192.598632812 865.849481869 168.552433047 887.891601562 140.5 887.891601562 c 3
140.5 948.760742188 m 3
 201.972191512 948.760742188 254.661132812 900.46049706 254.661132812 838.989257812 c 3
 254.661132812 773.125441195 199.775718961 724.828125 140.5 724.828125 c 3
 79.0281537196 724.828125 26.3388671875 768.737109375 26.3388671875 834.600585938 c 3
 26.3388671875 900.461199171 81.2242226537 948.760742188 140.5 948.760742188 c 3
EndSplineSet
EndChar
StartChar: thinrule
Encoding: 58113 58113 1961
Width: 1000
Flags: HW
LayerCount: 2
Fore
SplineSet
0 -28 m 1
 0 28 l 1
 1000 28 l 1
 1000 -28 l 1
 0 -28 l 1
EndSplineSet
EndChar
StartChar: uniE31D
Encoding: 58141 58141 2648
Width: 771
VWidth: 1361
Flags: HW
AnchorPoint: "Top" 485 699 basechar 0
AnchorPoint: "Bottom" 256 -15 basechar 0
LayerCount: 2
Fore
SplineSet
347.427734375 287.215820312 m 3
 416.91311356 287.215820312 439.107421875 308.064662634 439.107421875 359 c 3
 439.107421875 363.331808452 435.130950566 375.962890625 423 375.962890625 c 3
 411.592952325 375.962890625 398.192487191 372.734599233 382 373 c 1
 370 425 l 1
 390.07351673 433.902345475 410.41423164 444.887695312 432 444.887695312 c 3
 492.235869709 444.887695312 542.055664062 420.04210121 542.055664062 369 c 3
 542.055664062 246.902115043 393.902930545 213.551757812 301.360351562 213.551757812 c 3
 175.092092286 213.551757812 92.9462890625 289.765816525 92.9462890625 418.587890625 c 3
 92.9462890625 579.271907527 277.497981979 705.000976562 482.2109375 705.000976562 c 3
 636.948849792 705.000976562 765.096679688 601.707670301 765.096679688 444.422851562 c 3
 765.096679688 173.366461416 495.552697687 -35.69921875 255.967773438 -35.69921875 c 3
 194.837377044 -35.69921875 138.334960938 -1.89385562479 138.334960938 64.810546875 c 3
 138.334960938 132.879502358 199.705826628 172.395507812 268.319335938 172.395507812 c 3
 479.107388558 172.395507812 594.153671692 -82.3740234375 920.157226562 -82.3740234375 c 3
 978.14355705 -82.3740234375 1026.95930589 -75.6441110581 1079 -61 c 1
 1089 -121 l 1
 1021.20401508 -152.960925254 955.67341281 -172.01953125 873.670898438 -172.01953125 c 3
 535.332620817 -172.01953125 364.263647394 86.7421875 253.428710938 86.7421875 c 3
 228.021847073 86.7421875 207.514648438 77.6540684624 207.514648438 63.1220703125 c 3
 207.514648438 41.2772339197 233.89172401 33.2060546875 259.881835938 33.2060546875 c 3
 463.418549886 33.2060546875 644.057617188 209.439254076 644.057617188 460.009765625 c 3
 644.057617188 567.327387508 565.550504717 643.138671875 452.395507812 643.138671875 c 3
 306.978417308 643.138671875 219.41015625 546.776522487 219.41015625 441.11328125 c 3
 219.41015625 349.930971189 259.740961441 287.215820312 347.427734375 287.215820312 c 3
EndSplineSet
EndChar
StartChar: dollar.alt
Encoding: 58288 58288 1736
Width: 463
UnlinkRmOvrlpSave: 1
Flags: HW
LayerCount: 2
Fore
SplineSet
412 600 m 1
 389.692382812 566.166992188 376.461914062 542 354 513 c 1
 335 524 l 1
 343 537 347 547.356445312 347 564 c 3
 347 612.899707031 302.518554688 646 255 646 c 3
 190.223632812 646 131 598.356532505 131 532 c 3
 131 450.41796875 204.400490918 421.427893749 275 377 c 0
 363 321.622070312 423 274.197265625 423 176 c 3
 423 71.1904296875 331.307617188 -8 227 -8 c 3
 142.650390625 -8 67.341796875 66.025390625 35 152 c 1
 52.9228515625 174.013671875 78.349609375 198.633789062 99 224 c 1
 121 210 l 1
 109.299804688 196.888671875 108 173.958984375 108 151 c 3
 108 83.4521484375 167.880859375 26 233 26 c 3
 315.29296875 26 368 90.064453125 368 156 c 3
 368 233.665039062 318.283714979 255.120419394 243 307 c 0
 157.59765625 365.852539062 67 403.629882812 67 508 c 3
 67 602.802734375 155.541015625 672 255 672 c 3
 322.590820312 672 379.731445312 633.051757812 412 600 c 1
EndSplineSet
Refer: 1961 58113 N 0.023288 0.784654 -0.99956 0.0296662 223.356 -61.8272 2
EndChar
StartChar: zero.smaller
Encoding: 58358 58358 2446
Width: 344
Flags: HW
LayerCount: 2
Back
SplineSet
234.504882812 219.151367188 m 0
 184.443688352 219.151367188 120.825372514 174.233080663 110.036079838 123.472408204 c 0
 101.692439386 84.2199573414 117.778331999 64.5613522917 150.618618692 57.6525099164 c 0
 156.169548751 56.48472167 162.365187752 55.8095703125 169.163085938 55.8095703125 c 0
 221.051444818 55.8095703125 276.511738605 92.9769667886 288.021675175 147.124919896 c 0
 297.061797874 189.65700916 278.283886294 211.714576533 249.34306737 217.698599972 c 0
 244.896789125 218.617946218 239.970348492 219.151367188 234.504882812 219.151367188 c 0
234.504882812 275.151367188 m 0
 243.631563876 275.151367188 252.387426827 274.253676308 260.682199265 272.538586185 c 0
 320.58214171 260.153219325 357.393904802 204.153150329 342.797851562 135.481445312 c 0
 324.81941314 50.9027306792 244.095610433 -0.1904296875 169.163085938 -0.1904296875 c 0
 158.659500785 -0.1904296875 148.597103944 0.851968629919 139.089864963 2.852073445 c 0
 79.1746581502 15.4568574294 40.8430135607 67.2919796105 55.259765625 135.115234375 c 0
 72.7108817959 217.217965164 159.431397804 275.151367188 234.504882812 275.151367188 c 0
EndSplineSet
Fore
SplineSet
233.662109375 218.83984375 m 3
 186.715379409 218.83984375 121.647355561 173.990091774 111 128 c 0
 99.741161138 79.3686727573 121.699262409 55.84375 171.153320312 55.84375 c 3
 222.067145056 55.84375 275 93 288 146 c 0
 298.02645529 186.87708695 280.178863005 218.83984375 233.662109375 218.83984375 c 3
234.504882812 275.151367188 m 3
 309.978515625 275.151367188 359.456299355 213.850326358 342.797851562 135.481445312 c 0
 324.8359375 50.98046875 243.979492188 -0.1904296875 169.163085938 -0.1904296875 c 3
 91.9345703125 -0.1904296875 38.4803496347 56.1726693054 55.259765625 135.115234375 c 0
 72.65625 216.9609375 159.723632812 275.151367188 234.504882812 275.151367188 c 3
EndSplineSet
EndChar
StartChar: six.smaller
Encoding: 58364 58364 2452
Width: 307
Flags: HW
LayerCount: 2
Back
SplineSet
227.906006508 70.2508638843 m 2
 218.069209136 80.2126617874 l 1
 227.694975261 89.7176439042 233.005991756 100.007450788 234.629034539 107.643180497 c 0
 236.448719006 116.203697973 231.010687807 123.380624344 227.940615303 124.999491983 c 0
 221.192541498 124.942786936 215.786337387 124.242586834 210.978216186 122.962718628 c 1
 203.775733268 150.020513065 l 1
 196.57325035 177.078307503 l 1
 206.252508842 179.654818094 216.752733473 181 228.47265625 181 c 0
 231.98155061 181 235.500108046 180.644400926 238.882789122 179.974561361 c 0
 272.469644618 173.323681734 297.987274546 136.373137113 289.405273438 96 c 0
 285.041088885 75.4683578288 273.615216233 56.3610251971 257.416398624 40.365470175 c 1
 237.74280388 60.2890659812 l 2
 237.040175497 61.0006229743 237.74280388 60.2890659812 227.906006508 70.2508638843 c 2
183.069825348 29.99398197 m 1
 190.001399055 2.86552300258 l 1
 177.747830645 -0.2653777504 164.818279796 -2 151.575195312 -2 c 0
 143.601871145 -2 136.144222078 -1.24843614001 129.235146952 0.152106 c 0
 73.5202843499 11.4460941927 51.9362855936 65.5671986026 61.380859375 110 c 0
 70.808732187 154.354301135 95.3112313083 195.603768976 128.28901739 228.888679646 c 1
 148.17956103 209.181668871 l 1
 168.070104671 189.474658096 l 1
 141.560115078 162.717778987 122.919801282 130.172582368 116.157106163 98.3568566155 c 0
 111.495916239 76.4278918022 121.252636267 58.9092254008 140.360654471 55.0358292923 c 0
 143.424332837 54.4147894894 147.096973813 54 151.575195312 54 c 0
 159.896126942 54 168.255960801 55.1084422799 176.138251641 57.1224409373 c 1
 183.069825348 29.99398197 l 1
EndSplineSet
Fore
SplineSet
274.892578125 310 m 1
 274.892578125 310 277.5 268.947265625 280.83984375 258 c 1
 200.302132464 233.260564631 133.706604708 172.310444525 116 99 c 0
 110.339110002 75.5622845818 120.420619768 54 151 54 c 3
 188.644961044 54 229.756606151 79.1770810319 235 107 c 0
 236.938063651 117.283909518 230.045016256 125 226.506835938 125 c 3
 208.149365434 125 199.956208666 121.36328125 182.444335938 115 c 1
 172.072265625 165 l 1
 182.6171875 174.390625 202.827148438 181 228.47265625 181 c 3
 266.47265625 181 298.800436655 140.20026856 289.405273438 96 c 0
 278.139648438 43 219.515625 -2 151.575195312 -2 c 3
 79.0302734375 -2 50.7529459349 59.9999965465 61.380859375 110 c 0
 81.6025390625 205.134765625 170.086914062 286.216796875 274.892578125 310 c 1
EndSplineSet
EndChar
StartChar: eight.smaller
Encoding: 58366 58366 2454
Width: 292
UnlinkRmOvrlpSave: 1
Flags: HW
LayerCount: 2
Back
SplineSet
174.828110251 112.875052046 m 1
 139.126933351 92.7640545542 113.353896895 73.0078128306 107.4803001 56.5109222826 c 1
 108.6327748 56.1633911515 111.845622629 55.2836548441 114.783660351 54.6680881315 c 0
 119.962097095 53.5831213664 126.610736769 52.875 133.814453125 52.875 c 0
 177.515462412 52.875 206.040866811 69.6777779758 215.039993466 84.1103261636 c 1
 208.269378801 90.6047310355 195.437602848 100.629002712 174.828110251 112.875052046 c 1
188.474481998 169.544619265 m 2
 232.197919147 145.541367864 281.798151822 121.373928156 273.092773438 80.416015625 c 0
 261.377160326 25.2952574112 199.109587123 -3.125 133.814453125 -3.125 c 0
 123.086633913 -3.125 112.845875857 -2.14183191018 103.300089681 -0.14183437037 c 0
 83.0473020808 4.10145419954 61.4644957933 12.0259904087 53.1212972788 34.3700517616 c 0
 49.055471886 45.2588076589 49.9776712423 55.2240648979 51.3544425692 62.6651462535 c 0
 61.7265902928 118.723834818 119.740631468 146.521347042 161.487523717 169.523722896 c 2
 174.97525649 176.955411388 l 1
 188.474481998 169.544619265 l 2
174.850235324 177.413304516 m 1
 205.894132576 196.15525257 228.706799402 215.16453562 233.19574039 223.621131874 c 1
 231.532485656 224.197911615 227.611490558 225.362243779 223.349084979 226.25196695 c 0
 218.077072048 227.352432867 211.549069932 228.02734375 204.865234375 228.02734375 c 0
 185.97748981 228.02734375 152.573675263 209.842720915 144.675757396 196.306073019 c 1
 149.6185907 192.486702653 158.374309108 186.969504073 174.850235324 177.413304516 c 1
161.016370668 120.74184445 m 2
 119.534218692 144.654257574 79.3008159006 161.281873195 88.5439453125 204.76953125 c 0
 99.2217813234 255.007287373 162.629987855 284.02734375 204.865234375 284.02734375 c 0
 215.144567438 284.02734375 225.220105042 283.068403557 234.79174774 281.070444391 c 0
 257.016242776 276.431362578 282.245484144 266.57339173 288.727727731 239.718892145 c 0
 290.952683088 230.501394854 290.251757723 222.101380259 288.87547572 214.799618968 c 0
 280.623268044 171.018147971 230.760331709 144.922752915 189.026603173 120.766667513 c 2
 175.028656218 112.664453453 l 1
 161.016370668 120.74184445 l 2
EndSplineSet
Fore
SplineSet
206 228 m 3
 181.32181562 228 150.522210033 213.375514112 146 198 c 0
 141 181 287 143 273.092773438 80.416015625 c 0
 260.921339559 25.6432811527 198.826171875 -3.125 133.814453125 -3.125 c 3
 83.6904296875 -3.125 42.5351191985 18.5233757504 51.4990234375 63.392578125 c 0
 70 156 205 169 233 221 c 0
 234.936438134 224.596242249 227.745184944 228 206 228 c 3
204.865234375 284.02734375 m 3
 252.969726562 284.02734375 298.623086009 262.791914893 288.748046875 214.1640625 c 0
 272.412675418 133.72346665 128.065777134 114.721320212 109 60 c 0
 107.57190948 55.9011899664 119.694286337 53 135.83203125 53 c 3
 180.466682098 53 209.94211594 72.419204963 212 80 c 0
 214.85533791 90.5184407022 196.350160979 99.507501242 164.711914062 118.08984375 c 0
 124.959960938 141.437673681 78.9986868028 159.860397166 88.5439453125 204.76953125 c 0
 99.0263671875 254.087890625 163.029296875 284.02734375 204.865234375 284.02734375 c 3
EndSplineSet
EndChar
StartChar: four.tabulartext
Encoding: 58372 58372 676
Width: 533
Flags: HW
LayerCount: 2
Back
SplineSet
359 60 m 1
 383.350168258 180.817820983 402.307578576 280.851457669 422.533203125 362.5234375 c 1
 422.533203125 362.5234375 249.973481359 178.320191632 137.999023438 60 c 1
 202.752911916 60 307.360662747 60 359 60 c 1
528.969726562 492.17578125 m 1
 499.597027316 437.803710938 475.070115712 350.440312862 443.13671875 202.267578125 c 0
 428.554468487 132.586959822 431.581969868 140.552388384 416 60 c 1
 482.929852119 59.1261622915 440 48 500.559570312 105.48046875 c 1
 500.559570312 105.48046875 538.645507812 88.833007812 541.795898438 86.841796875 c 1
 541.795898438 86.841796875 510.746152809 30.6540083989 491.147460938 -6.634765625 c 1
 468.30078125 1.72070312461 431.01171875 3.98730468751 404.571289062 4.1435546875 c 1
 387.617385279 -49.7474223355 384.780420331 -97.6494430404 391.788085938 -115.715820312 c 1
 350.590186875 -122.17208205 347.154730204 -159.743002142 318.201171875 -178.099609375 c 1
 318.201171875 -178.099609375 278.912690882 -146.634234849 277.750976562 -142.801757812 c 1
 352.907786963 -70.3797026789 325.474693115 -113.928861097 346.096679688 3.044921875 c 1
 37.2441288884 3.044921875 101.048950861 10.2653477864 50 -26 c 1
 50 -26 9.60051834959 6.62855827326 7.0673828125 9.71484375 c 1
 29.8578295744 29.5338647563 438.596836647 443.507798178 478.993164062 511.017578125 c 1
 528.969726562 492.17578125 l 1
EndSplineSet
Fore
SplineSet
359 60 m 1
 383.350168258 180.817820983 402.307578576 280.851457669 422.533203125 362.5234375 c 1
 422.533203125 362.5234375 249.973481359 178.320191632 137.999023438 60 c 1
 202.752911916 60 307.360662747 60 359 60 c 1
528.969726562 492.17578125 m 1
 499.597027316 437.803710938 475.070115712 350.440312862 443.13671875 202.267578125 c 0
 428.554468487 132.586959822 431.581969868 140.552388384 416 60 c 1
 486.929852119 59.1261622915 440 48 500.559570312 105.48046875 c 1
 500.559570312 105.48046875 538.645507812 88.833007812 541.795898438 86.841796875 c 1
 541.795898438 86.841796875 510.746152809 30.6540083989 491.147460938 -6.634765625 c 1
 468.30078125 1.72070312461 431.01171875 3.98730468751 404.571289062 4.1435546875 c 1
 387.617385279 -49.7474223355 384.780420331 -97.6494430404 391.788085938 -115.715820312 c 1
 350.590186875 -122.17208205 347.154730204 -159.743002142 318.201171875 -178.099609375 c 1
 318.201171875 -178.099609375 278.912690882 -146.634234849 277.750976562 -142.801757812 c 1
 344.907786963 -70.3797026789 325.474693115 -113.928861097 346.096679688 3.044921875 c 1
 37.2441288884 3.044921875 101.048950861 10.2653477864 50 -26 c 1
 50 -26 9.60051834959 6.62855827326 7.0673828125 9.71484375 c 1
 29.8578295744 29.5338647563 438.596836647 443.507798178 478.993164062 511.017578125 c 1
 528.969726562 492.17578125 l 1
EndSplineSet
Substitution2: "pnum-1" four
Substitution2: "lnum-1" four.tabularlining
Substitution2: "numr-1" four.numerator
Substitution2: "dnom-1" four.denom
EndChar
StartChar: one.proportionallining
Encoding: 58389 58389 902
Width: 484
Flags: HW
LayerCount: 2
Back
SplineSet
250.823242188 627.12109375 m 5xd0
 262.124448565 626.19140625 275.832558327 625.76171875 290.829101562 625.76171875 c 0
 370.338876809 625.76171875 477.39931588 632.75390625 515.284179688 642.05078125 c 9
 503.860351562 583.084960938 l 5xb0
 411.773825121 570.317382812 398.50888451 578.226678617 394.783203125 561.62890625 c 0
 383.606371052 511.836533966 364.123046875 406.75390625 346.215820312 322.504882812 c 0
 320.413085938 201.11328125 299.872595429 101.806110804 292.623046875 67.615234375 c 0
 288.769705125 49.4418087301 319.78797178 56.376953125 392.776367188 55.734375 c 9
 377.014648438 -0.65625 l 1
 340.89119835 -0.369140625 300.929478726 -0.2109375 256.1015625 -0.2109375 c 0
 212.319309111 -0.2109375 164.058699192 -0.3515625 110.427734375 -0.65625 c 9
 114.620117188 54.5673828125 l 1
 149.338204032 56.1123046875 232.42556075 52.0602360767 235.28515625 64.8779296875 c 0
 242.958190914 99.2711182994 254.399414062 156.333007812 288.720703125 322.504882812 c 0
 315.352539062 451.447265625 325.725585938 496.766601562 337.584960938 559.208984375 c 0
 341.177868129 578.126480976 307.401317688 566.657226562 236.983398438 570.640625 c 9
 250.823242188 627.12109375 l 5xd0
EndSplineSet
Fore
SplineSet
250.823242188 627.12109375 m 1
 262.124448565 626.19140625 275.832558327 625.76171875 290.829101562 625.76171875 c 0
 370.338876809 625.76171875 477.39931588 632.75390625 515.284179688 642.05078125 c 9
 503.860351562 583.084960938 l 1
 411.773825121 570.317382812 398.50888451 578.226678617 394.783203125 561.62890625 c 0
 383.606371052 511.836533966 364.123046875 406.75390625 346.215820312 322.504882812 c 0
 320.413085938 201.11328125 299.872595429 101.806110804 292.623046875 67.615234375 c 0
 288.769705125 49.4418087301 319.78797178 56.376953125 392.776367188 55.734375 c 9
 377.014648438 -0.65625 l 1
 340.89119835 -0.369140625 300.929478726 -0.2109375 256.1015625 -0.2109375 c 0
 212.319309111 -0.2109375 164.058699192 -0.3515625 110.427734375 -0.65625 c 9
 114.620117188 54.5673828125 l 1
 149.338204032 56.1123046875 232.42556075 52.0602360767 235.28515625 64.8779296875 c 0
 242.958190914 99.2711182994 254.399414062 156.333007812 288.720703125 322.504882812 c 0
 315.352539062 451.447265625 325.725585938 496.766601562 337.584960938 559.208984375 c 0
 341.177868129 578.126480976 307.401317688 566.657226562 236.983398438 570.640625 c 9
 250.823242188 627.12109375 l 1
EndSplineSet
Substitution2: "tnum-1" one.tabularlining
Substitution2: "onum-1" one
Substitution2: "numr-1" one.numerator
Substitution2: "dnom-1" one.denom
Substitution2: "salt-1" one.proportionalliningalt
EndChar
StartChar: one.proportionalliningalt
Encoding: 58419 58419 1421
Width: 373
Flags: HW
LayerCount: 2
Fore
SplineSet
352.783203125 545.62890625 m 0
 338.744140625 495.594726562 320.123046875 406.75390625 302.215820312 322.504882812 c 0
 276.413085938 201.11328125 256.411132812 108.911132812 262.623046875 76.615234375 c 0
 264.3515625 63.2626953125 286.75390625 57.376953125 339.776367188 55.734375 c 1
 324.014648438 -0.65625 l 1
 285.44140625 1.5673828125 242.418945312 2.99609375 193.622070312 2.99609375 c 3
 150.90625 2.99609375 103.799804688 1.9169921875 51.427734375 -0.65625 c 1
 55.6201171875 54.5673828125 l 1
 89.7802734375 56.1123046875 150.176757812 68.7353515625 153.28515625 75.8779296875 c 0
 169.435546875 110.161132812 183.399414062 156.333007812 218.720703125 322.504882812 c 0
 239.5859375 420.670898438 246.541015625 442.015625 250.532226562 489.208984375 c 0
 251.375 499.170898438 248.974609375 509.327148438 232.260742188 509.327148438 c 3
 221.95703125 509.327148438 201.043945312 496.290039062 175.727539062 488 c 1
 160.993164062 541 l 1
 208.583007812 555.743164062 313.211914062 624.044921875 352.17578125 683 c 1
 399.4375 656 l 1
 374.879882812 620.721679688 365.34765625 590.40625 352.783203125 545.62890625 c 0
EndSplineSet
EndChar
StartChar: five.small
Encoding: 58456 58456 2461
Width: 304
Flags: HW
LayerCount: 2
Fore
SplineSet
138.8984375 333.626953125 m 1
 195.37109375 334.956054688 251.698242188 335.205078125 265.96875 336.45703125 c 0
 286.533203125 338.405273438 298.688476562 355.828125 307.615234375 366.330078125 c 1
 307.615234375 366.330078125 343.090820312 341.3203125 349.634765625 337.760742188 c 1
 323.94140625 309.499023438 296.38671875 265.317382812 283.826171875 265.680664062 c 0
 251.803710938 266.348632812 227.255859375 264.640625 177.6796875 264.69140625 c 1
 177.6796875 264.69140625 168.251953125 235.659179688 163.290039062 217.647460938 c 1
 228.381835938 221.42578125 290.244140625 191.430664062 276.853515625 128.43359375 c 0
 254.962890625 25.4423828125 120.1328125 -8.26171875 27.076171875 -15.0673828125 c 1
 27.076171875 -15.0673828125 37.7099609375 33.314453125 36.951171875 41.0859375 c 1
 85.025390625 45.76953125 174.365234375 60.0791015625 187.239257812 120.6484375 c 0
 190.797851562 137.385742188 170.33203125 165.783203125 82.5810546875 160.005859375 c 1
 98.5810546875 200.30078125 122.62890625 270.140625 138.8984375 333.626953125 c 1
EndSplineSet
EndChar
StartChar: uniFB00
Encoding: 64256 64256 73
Width: 624
VWidth: 1159
Flags: HW
LayerCount: 2
Back
SplineSet
101.684563758 -107 m 1
 97.4550092725 -79.3212921391 l 1
 279.431127674 -51.5137112438 344.533594186 -76.2590105001 404.381215328 242.171918252 c 1
 431.899414062 237 l 1
 459.417612797 231.828081748 l 1
 395.973066237 -105.7409895 290.408663655 -106.486288761 105.914118244 -134.678707861 c 1
 101.684563758 -107 l 1
469.653320312 739 m 3
 508.23828125 739 591.013671875 713.459960938 616 691.849609375 c 1
 610.525390625 658.068359375 600.669921875 649.310546875 543.731445312 616.780273438 c 1
 500.859375 634.6796875 455.60546875 665.5703125 411.54296875 665.5703125 c 3
 319.950195312 665.5703125 292 595 254.983398438 499.01953125 c 0
 217.285514423 401.272562973 158 37 126.24609375 -53 c 0
 108.6052911 -102.99927335 81.1455078125 -138.104492188 51.017578125 -171 c 1
 37.2646484375 -170.169921875 38.6396484375 -169.33984375 -19.1240234375 -169.33984375 c 3
 -38.7216796875 -169.33984375 -68.5849609375 -173.068359375 -79.7841796875 -174 c 1
 -85.6015625 -112.360351562 l 1
 -39.3671875 -105.904296875 -10.5194166611 -93.5752666432 10.380859375 -60 c 0
 73.9606782696 42.1378554438 133.501713065 406.098019514 150.888671875 493.169921875 c 0
 175.886179681 618.354583713 223.048828125 655.309570312 305.84375 698.6796875 c 0
 348.811523438 721.1875 400.490234375 739 469.653320312 739 c 3
62.94140625 440.790039062 m 1
 176.365234375 442.102539062 590.205774168 467.275914479 706.294921875 479.620117188 c 1
 698.831054688 412 l 1
 588.076277618 405.387394106 174.122070312 389.689453125 67.9541015625 373.33984375 c 1
 62.94140625 440.790039062 l 1
777.653320312 754 m 3
 816.23828125 754 899.013671875 728.459960938 924 706.849609375 c 1
 918.525390625 673.068359375 908.669921875 664.310546875 851.731445312 631.780273438 c 1
 808.859375 649.6796875 763.60546875 680.5703125 719.54296875 680.5703125 c 3
 627.950195312 680.5703125 591.623571033 599.69849447 553.983398438 499.01953125 c 0
 505 368 494.993944844 164.369011714 451 51 c 0
 425 -16 336 -99 251 -114 c 0
 224.575484232 -118.663149841 190 -126 150 -128 c 0
 118.89403518 -129.555298241 80.19921875 -133.068359375 69 -134 c 1
 64 -82 l 1
 233 -56 271 -45 307 0 c 0
 376.314153279 86.6426915984 403 254 449.888671875 493.169921875 c 0
 476.183868734 627.296565413 531.048608713 670.309101432 613.84375 713.6796875 c 0
 656.811523438 736.1875 708.490234375 754 777.653320312 754 c 3
EndSplineSet
Fore
SplineSet
66.8173828125 442 m 1
 670.182617188 478 l 1
 668.528320312 422 l 1
 71 387 l 1
 66.8173828125 442 l 1
733.883789062 754 m 3
 784.743164062 754 868.321289062 730.708007812 896 711 c 1
 894.788085938 688.049804688 892.606445312 682.100585938 880 660 c 1
 832.32421875 677.412109375 782 698 733 698 c 3
 599.86328125 698 534.830860512 592.32144263 516 504 c 0
 479.839574017 334.398563734 451.842263819 149.874926322 409 52 c 0
 376.686619627 -21.8212559587 350.986371865 -62.6790916314 275.537109375 -98 c 1
 247.71334747 -111 189.272157924 -124.225431553 133.631835938 -129 c 0
 87.9036401681 -132.923995996 49.1348737738 -135.401041667 30.0009765625 -137 c 1
 43.18359375 -84 l 1
 266 -61 301 -56 353.934570312 55 c 0
 386.599540262 123.496100808 429.229008796 365.387872821 455.088867188 494 c 0
 476 598 523.440286737 675.733649109 595.803710938 717 c 0
 632.022460938 737.654296875 675.583984375 754 733.883789062 754 c 3
442.345703125 739 m 3
 493.205078125 739 576.783203125 715.708007812 604.461914062 696 c 1
 603.25 673.049804688 601.068359375 667.100585938 588.461914062 645 c 1
 540.786132812 662.412109375 490.461914062 683 441.461914062 683 c 3
 308.325195312 683 243.68963394 577.23602849 224.461914062 489 c 0
 179.675895813 285.628366248 149.655441111 62.1321219845 91.9384765625 -53 c 0
 69.1439507587 -98.9508796515 37.4940509199 -145.728945975 -2.2109375 -161 c 1
 -8.15994658139 -165 -19.6744081886 -168.11112269 -32.5517578125 -170 c 0
 -50.542005492 -172.638848183 -67.3114629171 -173.200520833 -75.1826171875 -174 c 1
 -81 -119 l 1
 -28.8063642829 -115.315429688 -11.5556419847 -116.600497962 25.873046875 -60 c 0
 79.2249737817 19.7797833935 131.346660909 320.622193036 163.55078125 479 c 0
 184.461914062 583 231.901884117 660.733468516 304.265625 702 c 0
 340.484375 722.654296875 384.045898438 739 442.345703125 739 c 3
EndSplineSet
Substitution2: "salt-1" uniFB00.alt
LCarets2: 1 311
Ligature2: "liga-1" f f
EndChar
StartChar: uniFB02
Encoding: 64258 64258 698
Width: 583
VWidth: 1159
Flags: HW
LayerCount: 2
Back
SplineSet
58.94140625 458.790039062 m 1
 172.365234375 460.102539062 339.375 469.276367188 455.463867188 478.620117188 c 1
 448 418 l 1
 337.245117188 409.387695312 170.122070312 407.689453125 63.9541015625 391.33984375 c 1
 58.94140625 458.790039062 l 1
474.653320312 754 m 3
 513.23828125 754 582.013671875 733.610351562 607 712 c 1
 594.525390625 678.21875 583 670 548.731445312 631.780273438 c 1
 505.859375 649.6796875 460.60546875 680.5703125 416.54296875 680.5703125 c 3
 324.950195312 680.5703125 288.926757812 599.583984375 250.983398438 499.01953125 c 0
 214 401 154 37 122.24609375 -53 c 0
 104.60546875 -102.999023438 77.1455078125 -138.104492188 47.017578125 -171 c 1
 33.2646484375 -170.169921875 34.6396484375 -169.33984375 -23.1240234375 -169.33984375 c 3
 -42.7216796875 -169.33984375 -72.5849609375 -173.068359375 -83.7841796875 -174 c 1
 -89.6015625 -112.360351562 l 1
 -43.3671875 -105.904296875 -14.51953125 -93.5751953125 6.380859375 -60 c 0
 69.9609375 42.1376953125 130 406 146.888671875 493.169921875 c 0
 172.885742188 627.354492188 228.048828125 670.309570312 310.84375 713.6796875 c 0
 353.811523438 736.1875 405.490234375 754 474.653320312 754 c 3
517.854492188 413 m 0
 492.932617188 318.221679688 453.896484375 158.909179688 452.93359375 91.5 c 1
 452.84765625 85.8486328125 453.147460938 79.513671875 459.537109375 79.2001953125 c 1
 473.447265625 79.2001953125 509.130859375 97.36328125 529.306640625 111.490234375 c 1
 570.626953125 70 l 1
 523.375976562 22 468.760742188 -10 416.640625 -10 c 3
 373.745117188 -10 355.655102655 11.4179405476 351.430664062 37 c 0
 348.942382812 52.068359375 351.813395403 69.8652475701 356.0625 96 c 0
 368.09375 170 406.670210696 310.210109438 426.274414062 401 c 0
 463.387695312 572.876953125 475.583984375 617.505859375 475.583984375 645.219726562 c 1
 475.583984375 653.728515625 472.927734375 666.466796875 464.567382812 670.950195312 c 1
 463.849609375 689.920898438 460.658203125 702.268554688 459.616210938 719.459960938 c 1
 480.791015625 736.162109375 532.928710938 750.478515625 583.518554688 764 c 1
 601.008789062 751.547851562 607.729492188 735.984375 616.87109375 720.419921875 c 1
 606.165039062 698.142578125 586.251407885 653.054847291 579.495117188 630 c 0
 562.498046875 572 545.411066148 517.798125884 517.854492188 413 c 0
EndSplineSet
Fore
SplineSet
484.497070312 413 m 0
 461.561523438 304.9453125 413.293945312 97.84375 413.293945312 50 c 3
 413.293945312 48.162109375 413.41796875 46 417.293945312 46 c 3
 457.206054688 46 493.852539062 81.4375 525 109 c 1
 563 70 l 1
 518.294921875 22 466.624023438 -10 417.313476562 -10 c 3
 376.458984375 -10 361.837838334 11.5489706024 357.9140625 37 c 0
 355.586914062 52.0947265625 358.788377997 69.7890206296 362.545898438 96 c 0
 373.154296875 170 404.56269327 311.672808518 424.45703125 401 c 0
 471.764648438 613.415039062 488.293945312 692.58203125 488.293945312 694 c 0
 488.293945312 694 l 1
 492.661539715 711.748817845 495.552978517 728.915707237 499.293945312 745 c 1
 504.412109375 749.875 517.013671875 754.053710938 529.241210938 758 c 1
 542.37890625 751.713867188 547.426757812 743.857421875 554.293945312 736 c 1
 549.667024578 709.883562361 538.569858261 656.607186588 532.858398438 630 c 0
 520.408203125 572 498.293888019 478.000012161 484.497070312 413 c 0
58.87890625 458 m 1
 451.654296875 483 l 1
 450 427 l 1
 63.0615234375 403 l 1
 58.87890625 458 l 1
437.883789062 754 m 3
 472.743356825 754 530.028711038 740.458144077 549 729 c 1
 547.788085938 706.049804688 545.606445312 700.100585938 533 678 c 1
 501.864795918 687.164268092 469 698 437 698 c 3
 303.86328125 698 239.194733081 592.243077676 220 504 c 0
 174.538085938 295 140.538600413 66.9997639337 85.4765625 -53 c 0
 62.439453125 -103.206054688 28.4326171875 -145.57421875 -9.6728515625 -171 c 1
 -13.6611328125 -171 -13.2626953125 -171 -30.013671875 -171 c 3
 -38.6171875 -171 -51.7275390625 -173.400390625 -56.64453125 -174 c 1
 -62.4619140625 -119 l 1
 -22.4775390625 -115.315429688 -14.5213915742 -111.406311257 19.4111328125 -60 c 0
 73.5380859375 22 126.360246717 331.226583581 159.088867188 494 c 0
 180 598 227.440286738 675.73364911 299.803710938 717 c 0
 336.022460938 737.654296875 379.583984375 754 437.883789062 754 c 3
EndSplineSet
LCarets2: 1 277
Ligature2: "liga-1" f l
EndChar
StartChar: NameMe.exclam
Encoding: 65537 -1 1388
Width: 216
Flags: HW
LayerCount: 2
Fore
SplineSet
82 162 m 1
 82 252.679310005 82.0576171875 321.258633141 71 388 c 0
 67.3076171875 419.8515625 45.154296875 436.115234375 47 470 c 1
 97.9462890625 475.755859375 163.184570312 505.830078125 168 474 c 1
 153.599609375 449.8125 154.999023438 434.415039062 150 388 c 0
 138.62109375 300.692521738 120 254.594277099 120 161 c 1
 82 162 l 1
EndSplineSet
Refer: 48 46 N 0.929057 0 0 0.987278 8.12874 -1.7082 2
EndChar
